<ttFont>
<head>
    <!-- Most of this table will be recalculated by the compiler -->
    <tableVersion value="1.0"/>
    <fontRevision value="3.01"/>
    <checkSumAdjustment value="0x9be8d489"/>
    <magicNumber value="0x5f0f3cf5"/>
    <flags value="00000000 00000011"/>
    <unitsPerEm value="1000"/>
    <created value="Mon Aug 14 17:43:25 2017"/>
    <modified value="Tue Aug 15 00:43:27 2017"/>
    <xMin value="-543"/>
    <yMin value="-593"/>
    <xMax value="2512"/>
    <yMax value="1091"/>
    <macStyle value="00000000 00000000"/>
    <lowestRecPPEM value="7"/>
    <fontDirectionHint value="2"/>
    <indexToLocFormat value="0"/>
    <glyphDataFormat value="0"/>
  </head>
    <TTGlyph name=".notdef" xMin="0" yMin="0" xMax="500" yMax="700">
      <contour>
        <pt x="500" y="700" on="1"/>
        <pt x="500" y="0" on="1"/>
        <pt x="0" y="0" on="1"/>
        <pt x="0" y="700" on="1"/>
      </contour>
      <contour>
        <pt x="80" y="650" on="1"/>
        <pt x="250" y="395" on="1"/>
        <pt x="420" y="650" on="1"/>
      </contour>
      <contour>
        <pt x="220" y="350" on="1"/>
        <pt x="50" y="605" on="1"/>
        <pt x="50" y="95" on="1"/>
      </contour>
      <contour>
        <pt x="450" y="605" on="1"/>
        <pt x="280" y="350" on="1"/>
        <pt x="450" y="95" on="1"/>
      </contour>
      <contour>
        <pt x="250" y="305" on="1"/>
        <pt x="80" y="50" on="1"/>
        <pt x="420" y="50" on="1"/>
      </contour>
    </TTGlyph>
    <TTGlyph name="A" xMin="12" yMin="0" xMax="692" yMax="698">
      <contour>
        <pt x="494" y="142" on="1"/>
        <pt x="211" y="142" on="1"/>
        <pt x="161" y="0" on="1"/>
        <pt x="12" y="0" on="1"/>
        <pt x="272" y="698" on="1"/>
        <pt x="433" y="698" on="1"/>
        <pt x="692" y="0" on="1"/>
        <pt x="543" y="0" on="1"/>
      </contour>
      <contour>
        <pt x="456" y="249" on="1"/>
        <pt x="352" y="547" on="1"/>
        <pt x="248" y="249" on="1"/>
      </contour>
    </TTGlyph>
    <TTGlyph name="AE" xMin="4" yMin="0" xMax="886" yMax="706">
      <contour>
        <pt x="612" y="594" on="1"/>
        <pt x="612" y="413" on="1"/>
        <pt x="856" y="413" on="1"/>
        <pt x="856" y="305" on="1"/>
        <pt x="612" y="305" on="1"/>
        <pt x="612" y="113" on="1"/>
        <pt x="886" y="113" on="1"/>
        <pt x="886" y="0" on="1"/>
        <pt x="471" y="0" on="1"/>
        <pt x="471" y="136" on="1"/>
        <pt x="230" y="136" on="1"/>
        <pt x="158" y="0" on="1"/>
        <pt x="4" y="0" on="1"/>
        <pt x="381" y="706" on="1"/>
        <pt x="886" y="706" on="1"/>
        <pt x="886" y="594" on="1"/>
      </contour>
      <contour>
        <pt x="471" y="243" on="1"/>
        <pt x="471" y="589" on="1"/>
        <pt x="287" y="243" on="1"/>
      </contour>
    </TTGlyph>
    <TTGlyph name="Aacute" xMin="12" yMin="0" xMax="692" yMax="964">
      <component glyphName="A" x="0" y="0" flags="0x0"/>
      <component glyphName="acute" x="251" y="152" flags="0x4"/>
    </TTGlyph>
    <TTGlyph name="Abreve" xMin="12" yMin="0" xMax="692" yMax="934">
      <component glyphName="A" x="0" y="0" flags="0x0"/>
      <component glyphName="breve" x="170" y="152" flags="0x4"/>
    </TTGlyph>
    <TTGlyph name="Acircumflex" xMin="12" yMin="0" xMax="692" yMax="933">
      <component glyphName="A" x="0" y="0" flags="0x0"/>
      <component glyphName="circumflex" x="181" y="152" flags="0x4"/>
    </TTGlyph>
    <TTGlyph name="Adieresis" xMin="12" yMin="0" xMax="692" yMax="902">
      <component glyphName="A" x="0" y="0" flags="0x0"/>
      <component glyphName="dieresis" x="163" y="152" flags="0x4"/>
    </TTGlyph>
    <TTGlyph name="Agrave" xMin="12" yMin="0" xMax="692" yMax="964">
      <component glyphName="A" x="0" y="0" flags="0x0"/>
      <component glyphName="grave" x="175" y="152" flags="0x4"/>
    </TTGlyph>
    <TTGlyph name="Amacron" xMin="12" yMin="0" xMax="692" yMax="884">
      <component glyphName="A" x="0" y="0" flags="0x0"/>
      <component glyphName="macron" x="139" y="152" flags="0x4"/>
    </TTGlyph>
    <TTGlyph name="Aogonek" xMin="12" yMin="-207" xMax="732" yMax="698">
      <contour>
        <pt x="732" y="-132" on="1"/>
        <pt x="732" y="-207" on="1"/>
        <pt x="604" y="-207" on="1"/>
        <pt x="546" y="-207" on="0"/>
        <pt x="468" y="-151" on="0"/>
        <pt x="468" y="-96" on="1"/>
        <pt x="468" y="-24" on="0"/>
        <pt x="542" y="3" on="1"/>
        <pt x="494" y="142" on="1"/>
        <pt x="211" y="142" on="1"/>
        <pt x="161" y="0" on="1"/>
        <pt x="12" y="0" on="1"/>
        <pt x="272" y="698" on="1"/>
        <pt x="433" y="698" on="1"/>
        <pt x="689" y="9" on="1"/>
        <pt x="689" y="-53" on="1"/>
        <pt x="617" y="-53" on="1"/>
        <pt x="592" y="-53" on="0"/>
        <pt x="564" y="-73" on="0"/>
        <pt x="564" y="-92" on="1"/>
        <pt x="564" y="-111" on="0"/>
        <pt x="592" y="-132" on="0"/>
        <pt x="617" y="-132" on="1"/>
      </contour>
      <contour>
        <pt x="456" y="249" on="1"/>
        <pt x="352" y="548" on="1"/>
        <pt x="248" y="249" on="1"/>
      </contour>
    </TTGlyph>
    <TTGlyph name="Aring" xMin="12" yMin="0" xMax="692" yMax="984">
      <component glyphName="A" x="0" y="0" flags="0x0"/>
      <component glyphName="ring" x="214" y="152" flags="0x4"/>
    </TTGlyph>
    <TTGlyph name="Atilde" xMin="12" yMin="0" xMax="692" yMax="893">
      <component glyphName="A" x="0" y="0" flags="0x0"/>
      <component glyphName="tilde" x="152" y="152" flags="0x4"/>
    </TTGlyph>
    <TTGlyph name="B" xMin="64" yMin="0" xMax="599" yMax="706">
      <contour>
        <pt x="522" y="351" on="0"/>
        <pt x="599" y="256" on="0"/>
        <pt x="599" y="192" on="1"/>
        <pt x="599" y="103" on="0"/>
        <pt x="480" y="0" on="0"/>
        <pt x="367" y="0" on="1"/>
        <pt x="64" y="0" on="1"/>
        <pt x="64" y="706" on="1"/>
        <pt x="361" y="706" on="1"/>
        <pt x="468" y="706" on="0"/>
        <pt x="583" y="612" on="0"/>
        <pt x="583" y="527" on="1"/>
        <pt x="583" y="461" on="0"/>
        <pt x="514" y="377" on="0"/>
        <pt x="458" y="364" on="1"/>
      </contour>
      <contour>
        <pt x="205" y="410" on="1"/>
        <pt x="332" y="410" on="1"/>
        <pt x="385" y="410" on="0"/>
        <pt x="440" y="457" on="0"/>
        <pt x="440" y="501" on="1"/>
        <pt x="440" y="545" on="0"/>
        <pt x="386" y="593" on="0"/>
        <pt x="330" y="593" on="1"/>
        <pt x="205" y="593" on="1"/>
      </contour>
      <contour>
        <pt x="395" y="115" on="0"/>
        <pt x="455" y="164" on="0"/>
        <pt x="455" y="211" on="1"/>
        <pt x="455" y="258" on="0"/>
        <pt x="394" y="309" on="0"/>
        <pt x="338" y="309" on="1"/>
        <pt x="205" y="309" on="1"/>
        <pt x="205" y="115" on="1"/>
        <pt x="339" y="115" on="1"/>
      </contour>
    </TTGlyph>
    <TTGlyph name="C" xMin="42" yMin="-6" xMax="717" yMax="713">
      <contour>
        <pt x="515" y="713" on="0"/>
        <pt x="689" y="577" on="0"/>
        <pt x="717" y="460" on="1"/>
        <pt x="569" y="460" on="1"/>
        <pt x="546" y="517" on="0"/>
        <pt x="449" y="583" on="0"/>
        <pt x="381" y="583" on="1"/>
        <pt x="325" y="583" on="0"/>
        <pt x="235" y="527" on="0"/>
        <pt x="185" y="423" on="0"/>
        <pt x="185" y="353" on="1"/>
        <pt x="185" y="284" on="0"/>
        <pt x="235" y="180" on="0"/>
        <pt x="325" y="124" on="0"/>
        <pt x="381" y="124" on="1"/>
        <pt x="449" y="124" on="0"/>
        <pt x="546" y="190" on="0"/>
        <pt x="569" y="247" on="1"/>
        <pt x="717" y="247" on="1"/>
        <pt x="689" y="130" on="0"/>
        <pt x="515" y="-6" on="0"/>
        <pt x="383" y="-6" on="1"/>
        <pt x="282" y="-6" on="0"/>
        <pt x="127" y="85" on="0"/>
        <pt x="42" y="249" on="0"/>
        <pt x="42" y="353" on="1"/>
        <pt x="42" y="458" on="0"/>
        <pt x="127" y="622" on="0"/>
        <pt x="281" y="713" on="0"/>
        <pt x="383" y="713" on="1"/>
      </contour>
    </TTGlyph>
    <TTGlyph name="Cacute" xMin="42" yMin="-6" xMax="717" yMax="964">
      <component glyphName="C" x="0" y="0" flags="0x0"/>
      <component glyphName="acute" x="279" y="152" flags="0x4"/>
    </TTGlyph>
    <TTGlyph name="Ccaron" xMin="42" yMin="-6" xMax="717" yMax="932">
      <component glyphName="C" x="0" y="0" flags="0x0"/>
      <component glyphName="caron" x="209" y="152" flags="0x4"/>
    </TTGlyph>
    <TTGlyph name="Ccedilla" xMin="42" yMin="-264" xMax="717" yMax="713">
      <component glyphName="C" x="0" y="0" flags="0x0"/>
      <component glyphName="cedilla" x="271" y="0" flags="0x0"/>
    </TTGlyph>
    <TTGlyph name="Cdotaccent" xMin="42" yMin="-6" xMax="717" yMax="902">
      <component glyphName="C" x="0" y="0" flags="0x0"/>
      <component glyphName="dotaccent" x="291" y="152" flags="0x4"/>
    </TTGlyph>
    <TTGlyph name="D" xMin="64" yMin="0" xMax="685" yMax="706">
      <contour>
        <pt x="685" y="249" on="0"/>
        <pt x="597" y="89" on="0"/>
        <pt x="430" y="0" on="0"/>
        <pt x="315" y="0" on="1"/>
        <pt x="64" y="0" on="1"/>
        <pt x="64" y="706" on="1"/>
        <pt x="315" y="706" on="1"/>
        <pt x="430" y="706" on="0"/>
        <pt x="597" y="619" on="0"/>
        <pt x="685" y="460" on="0"/>
        <pt x="685" y="354" on="1"/>
      </contour>
      <contour>
        <pt x="417" y="126" on="0"/>
        <pt x="542" y="246" on="0"/>
        <pt x="542" y="354" on="1"/>
        <pt x="542" y="463" on="0"/>
        <pt x="417" y="583" on="0"/>
        <pt x="303" y="583" on="1"/>
        <pt x="205" y="583" on="1"/>
        <pt x="205" y="126" on="1"/>
        <pt x="303" y="126" on="1"/>
      </contour>
    </TTGlyph>
    <TTGlyph name="Dcaron" xMin="64" yMin="0" xMax="685" yMax="932">
      <component glyphName="D" x="0" y="0" flags="0x0"/>
      <component glyphName="caron" x="204" y="152" flags="0x4"/>
    </TTGlyph>
    <TTGlyph name="Dcroat" xMin="4" yMin="0" xMax="701" yMax="706">
      <component glyphName="Eth" x="0" y="0" flags="0x0"/>
    </TTGlyph>
    <TTGlyph name="E" xMin="64" yMin="0" xMax="485" yMax="706">
      <contour>
        <pt x="205" y="594" on="1"/>
        <pt x="205" y="411" on="1"/>
        <pt x="455" y="411" on="1"/>
        <pt x="455" y="303" on="1"/>
        <pt x="205" y="303" on="1"/>
        <pt x="205" y="113" on="1"/>
        <pt x="485" y="113" on="1"/>
        <pt x="485" y="0" on="1"/>
        <pt x="64" y="0" on="1"/>
        <pt x="64" y="706" on="1"/>
        <pt x="485" y="706" on="1"/>
        <pt x="485" y="594" on="1"/>
      </contour>
    </TTGlyph>
    <TTGlyph name="Eacute" xMin="64" yMin="0" xMax="485" yMax="964">
      <component glyphName="E" x="0" y="0" flags="0x0"/>
      <component glyphName="acute" x="174" y="152" flags="0x4"/>
    </TTGlyph>
    <TTGlyph name="Ebreve" xMin="64" yMin="0" xMax="485" yMax="934">
      <component glyphName="E" x="0" y="0" flags="0x0"/>
      <component glyphName="breve" x="92" y="152" flags="0x4"/>
    </TTGlyph>
    <TTGlyph name="Ecaron" xMin="64" yMin="0" xMax="485" yMax="932">
      <component glyphName="E" x="0" y="0" flags="0x0"/>
      <component glyphName="caron" x="104" y="152" flags="0x4"/>
    </TTGlyph>
    <TTGlyph name="Ecircumflex" xMin="64" yMin="0" xMax="485" yMax="933">
      <component glyphName="E" x="0" y="0" flags="0x0"/>
      <component glyphName="circumflex" x="104" y="152" flags="0x4"/>
    </TTGlyph>
    <TTGlyph name="Edieresis" xMin="64" yMin="0" xMax="485" yMax="902">
      <component glyphName="E" x="0" y="0" flags="0x0"/>
      <component glyphName="dieresis" x="86" y="152" flags="0x4"/>
    </TTGlyph>
    <TTGlyph name="Edotaccent" xMin="64" yMin="0" xMax="485" yMax="902">
      <component glyphName="E" x="0" y="0" flags="0x0"/>
      <component glyphName="dotaccent" x="186" y="152" flags="0x4"/>
    </TTGlyph>
    <TTGlyph name="Egrave" xMin="64" yMin="0" xMax="485" yMax="964">
      <component glyphName="E" x="0" y="0" flags="0x0"/>
      <component glyphName="grave" x="98" y="152" flags="0x4"/>
    </TTGlyph>
    <TTGlyph name="Emacron" xMin="64" yMin="0" xMax="485" yMax="884">
      <component glyphName="E" x="0" y="0" flags="0x0"/>
      <component glyphName="macron" x="62" y="152" flags="0x4"/>
    </TTGlyph>
    <TTGlyph name="Eogonek" xMin="64" yMin="-162" xMax="501" yMax="706">
      <component glyphName="E" x="0" y="0" flags="0x0"/>
      <component glyphName="ogonek" x="221" y="60" flags="0x4"/>
    </TTGlyph>
    <TTGlyph name="Eth" xMin="4" yMin="0" xMax="701" yMax="706">
      <contour>
        <pt x="446" y="706" on="0"/>
        <pt x="613" y="619" on="0"/>
        <pt x="701" y="460" on="0"/>
        <pt x="701" y="354" on="1"/>
        <pt x="701" y="249" on="0"/>
        <pt x="613" y="89" on="0"/>
        <pt x="446" y="0" on="0"/>
        <pt x="331" y="0" on="1"/>
        <pt x="80" y="0" on="1"/>
        <pt x="80" y="298" on="1"/>
        <pt x="4" y="298" on="1"/>
        <pt x="4" y="411" on="1"/>
        <pt x="80" y="411" on="1"/>
        <pt x="80" y="706" on="1"/>
        <pt x="331" y="706" on="1"/>
      </contour>
      <contour>
        <pt x="433" y="126" on="0"/>
        <pt x="558" y="246" on="0"/>
        <pt x="558" y="354" on="1"/>
        <pt x="558" y="463" on="0"/>
        <pt x="433" y="583" on="0"/>
        <pt x="319" y="583" on="1"/>
        <pt x="221" y="583" on="1"/>
        <pt x="221" y="411" on="1"/>
        <pt x="392" y="411" on="1"/>
        <pt x="392" y="298" on="1"/>
        <pt x="221" y="298" on="1"/>
        <pt x="221" y="126" on="1"/>
        <pt x="319" y="126" on="1"/>
      </contour>
    </TTGlyph>
    <TTGlyph name="Euro" xMin="17" yMin="-6" xMax="767" yMax="713">
      <contour>
        <pt x="498" y="124" on="0"/>
        <pt x="595" y="190" on="0"/>
        <pt x="618" y="247" on="1"/>
        <pt x="767" y="247" on="1"/>
        <pt x="739" y="130" on="0"/>
        <pt x="565" y="-6" on="0"/>
        <pt x="433" y="-6" on="1"/>
        <pt x="307" y="-6" on="0"/>
        <pt x="132" y="132" on="0"/>
        <pt x="103" y="248" on="1"/>
        <pt x="17" y="248" on="1"/>
        <pt x="17" y="314" on="1"/>
        <pt x="93" y="314" on="1"/>
        <pt x="91" y="340" on="0"/>
        <pt x="91" y="353" on="1"/>
        <pt x="91" y="377" on="0"/>
        <pt x="92" y="388" on="1"/>
        <pt x="17" y="388" on="1"/>
        <pt x="17" y="455" on="1"/>
        <pt x="102" y="455" on="1"/>
        <pt x="130" y="574" on="0"/>
        <pt x="306" y="713" on="0"/>
        <pt x="433" y="713" on="1"/>
        <pt x="565" y="713" on="0"/>
        <pt x="739" y="577" on="0"/>
        <pt x="767" y="460" on="1"/>
        <pt x="618" y="460" on="1"/>
        <pt x="595" y="517" on="0"/>
        <pt x="498" y="583" on="0"/>
        <pt x="430" y="583" on="1"/>
        <pt x="368" y="583" on="0"/>
        <pt x="274" y="516" on="0"/>
        <pt x="252" y="455" on="1"/>
        <pt x="454" y="455" on="1"/>
        <pt x="454" y="388" on="1"/>
        <pt x="237" y="388" on="1"/>
        <pt x="235" y="366" on="0"/>
        <pt x="235" y="353" on="1"/>
        <pt x="235" y="340" on="0"/>
        <pt x="237" y="314" on="1"/>
        <pt x="454" y="314" on="1"/>
        <pt x="454" y="248" on="1"/>
        <pt x="253" y="248" on="1"/>
        <pt x="275" y="190" on="0"/>
        <pt x="369" y="124" on="0"/>
        <pt x="430" y="124" on="1"/>
      </contour>
    </TTGlyph>
    <TTGlyph name="F" xMin="64" yMin="0" xMax="502" yMax="706">
      <contour>
        <pt x="502" y="706" on="1"/>
        <pt x="502" y="594" on="1"/>
        <pt x="205" y="594" on="1"/>
        <pt x="205" y="405" on="1"/>
        <pt x="443" y="405" on="1"/>
        <pt x="443" y="297" on="1"/>
        <pt x="205" y="297" on="1"/>
        <pt x="205" y="0" on="1"/>
        <pt x="64" y="0" on="1"/>
        <pt x="64" y="706" on="1"/>
      </contour>
    </TTGlyph>
    <TTGlyph name="G" xMin="42" yMin="-6" xMax="726" yMax="713">
      <contour>
        <pt x="520" y="713" on="0"/>
        <pt x="690" y="586" on="0"/>
        <pt x="714" y="478" on="1"/>
        <pt x="566" y="478" on="1"/>
        <pt x="545" y="526" on="0"/>
        <pt x="454" y="583" on="0"/>
        <pt x="392" y="583" on="1"/>
        <pt x="331" y="583" on="0"/>
        <pt x="237" y="527" on="0"/>
        <pt x="185" y="423" on="0"/>
        <pt x="185" y="353" on="1"/>
        <pt x="185" y="242" on="0"/>
        <pt x="304" y="118" on="0"/>
        <pt x="407" y="118" on="1"/>
        <pt x="483" y="118" on="0"/>
        <pt x="592" y="208" on="0"/>
        <pt x="608" y="288" on="1"/>
        <pt x="369" y="288" on="1"/>
        <pt x="369" y="389" on="1"/>
        <pt x="726" y="389" on="1"/>
        <pt x="726" y="253" on="1"/>
        <pt x="711" y="183" on="0"/>
        <pt x="624" y="65" on="0"/>
        <pt x="483" y="-6" on="0"/>
        <pt x="392" y="-6" on="1"/>
        <pt x="288" y="-6" on="0"/>
        <pt x="129" y="85" on="0"/>
        <pt x="42" y="248" on="0"/>
        <pt x="42" y="353" on="1"/>
        <pt x="42" y="458" on="0"/>
        <pt x="129" y="621" on="0"/>
        <pt x="287" y="713" on="0"/>
        <pt x="391" y="713" on="1"/>
      </contour>
    </TTGlyph>
    <TTGlyph name="Gbreve" xMin="42" yMin="-6" xMax="726" yMax="934">
      <component glyphName="G" x="0" y="0" flags="0x0"/>
      <component glyphName="breve" x="202" y="152" flags="0x4"/>
    </TTGlyph>
    <TTGlyph name="Gdotaccent" xMin="42" yMin="-6" xMax="726" yMax="902">
      <component glyphName="G" x="0" y="0" flags="0x0"/>
      <component glyphName="dotaccent" x="296" y="152" flags="0x4"/>
    </TTGlyph>
    <TTGlyph name="H" xMin="64" yMin="0" xMax="649" yMax="706">
      <contour>
        <pt x="649" y="706" on="1"/>
        <pt x="649" y="0" on="1"/>
        <pt x="507" y="0" on="1"/>
        <pt x="507" y="307" on="1"/>
        <pt x="205" y="307" on="1"/>
        <pt x="205" y="0" on="1"/>
        <pt x="64" y="0" on="1"/>
        <pt x="64" y="706" on="1"/>
        <pt x="205" y="706" on="1"/>
        <pt x="205" y="420" on="1"/>
        <pt x="507" y="420" on="1"/>
        <pt x="507" y="706" on="1"/>
      </contour>
    </TTGlyph>
    <TTGlyph name="I" xMin="64" yMin="0" xMax="205" yMax="706">
      <contour>
        <pt x="205" y="706" on="1"/>
        <pt x="205" y="0" on="1"/>
        <pt x="64" y="0" on="1"/>
        <pt x="64" y="706" on="1"/>
      </contour>
    </TTGlyph>
    <TTGlyph name="Iacute" xMin="56" yMin="0" xMax="286" yMax="964">
      <component glyphName="I" x="0" y="0" flags="0x0"/>
      <component glyphName="acute" x="34" y="152" flags="0x4"/>
    </TTGlyph>
    <TTGlyph name="Icircumflex" xMin="-14" yMin="0" xMax="283" yMax="933">
      <component glyphName="I" x="0" y="0" flags="0x0"/>
      <component glyphName="circumflex" x="-36" y="152" flags="0x4"/>
    </TTGlyph>
    <TTGlyph name="Idieresis" xMin="-23" yMin="0" xMax="293" yMax="902">
      <component glyphName="I" x="0" y="0" flags="0x0"/>
      <component glyphName="dieresis" x="-54" y="152" flags="0x4"/>
    </TTGlyph>
    <TTGlyph name="Idotaccent" xMin="64" yMin="0" xMax="205" yMax="902">
      <component glyphName="I" x="0" y="0" flags="0x0"/>
      <component glyphName="dotaccent" x="46" y="152" flags="0x4"/>
    </TTGlyph>
    <TTGlyph name="Igrave" xMin="-20" yMin="0" xMax="210" yMax="964">
      <component glyphName="I" x="0" y="0" flags="0x0"/>
      <component glyphName="grave" x="-42" y="152" flags="0x4"/>
    </TTGlyph>
    <TTGlyph name="Imacron" xMin="-56" yMin="0" xMax="326" yMax="884">
      <component glyphName="I" x="0" y="0" flags="0x0"/>
      <component glyphName="macron" x="-78" y="152" flags="0x4"/>
    </TTGlyph>
    <TTGlyph name="Iogonek" xMin="-16" yMin="-207" xMax="248" yMax="706">
      <component glyphName="I" x="0" y="0" flags="0x0"/>
      <component glyphName="ogonek" x="-32" y="15" flags="0x4"/>
    </TTGlyph>
    <TTGlyph name="Itilde" xMin="-49" yMin="0" xMax="318" yMax="893">
      <component glyphName="I" x="0" y="0" flags="0x0"/>
      <component glyphName="tilde" x="-65" y="152" flags="0x4"/>
    </TTGlyph>
    <TTGlyph name="J" xMin="18" yMin="-7" xMax="465" yMax="706">
      <contour>
        <pt x="465" y="706" on="1"/>
        <pt x="465" y="208" on="1"/>
        <pt x="465" y="106" on="0"/>
        <pt x="352" y="-7" on="0"/>
        <pt x="252" y="-7" on="1"/>
        <pt x="144" y="-7" on="0"/>
        <pt x="18" y="117" on="0"/>
        <pt x="18" y="232" on="1"/>
        <pt x="157" y="232" on="1"/>
        <pt x="157" y="178" on="0"/>
        <pt x="202" y="120" on="0"/>
        <pt x="246" y="120" on="1"/>
        <pt x="286" y="120" on="0"/>
        <pt x="324" y="167" on="0"/>
        <pt x="324" y="208" on="1"/>
        <pt x="324" y="706" on="1"/>
      </contour>
    </TTGlyph>
    <TTGlyph name="K" xMin="64" yMin="0" xMax="637" yMax="706">
      <contour>
        <pt x="338" y="359" on="1"/>
        <pt x="637" y="0" on="1"/>
        <pt x="466" y="0" on="1"/>
        <pt x="205" y="323" on="1"/>
        <pt x="205" y="0" on="1"/>
        <pt x="64" y="0" on="1"/>
        <pt x="64" y="706" on="1"/>
        <pt x="205" y="706" on="1"/>
        <pt x="205" y="389" on="1"/>
        <pt x="467" y="706" on="1"/>
        <pt x="637" y="706" on="1"/>
      </contour>
    </TTGlyph>
    <TTGlyph name="L" xMin="64" yMin="0" xMax="442" yMax="706">
      <contour>
        <pt x="205" y="108" on="1"/>
        <pt x="442" y="108" on="1"/>
        <pt x="442" y="0" on="1"/>
        <pt x="64" y="0" on="1"/>
        <pt x="64" y="706" on="1"/>
        <pt x="205" y="706" on="1"/>
      </contour>
    </TTGlyph>
    <TTGlyph name="Lacute" xMin="64" yMin="0" xMax="442" yMax="964">
      <component glyphName="L" x="0" y="0" flags="0x0"/>
      <component glyphName="acute" x="95" y="152" flags="0x4"/>
    </TTGlyph>
    <TTGlyph name="Lcaron" xMin="64" yMin="0" xMax="447" yMax="706">
      <contour>
        <pt x="205" y="108" on="1"/>
        <pt x="442" y="108" on="1"/>
        <pt x="442" y="0" on="1"/>
        <pt x="64" y="0" on="1"/>
        <pt x="64" y="706" on="1"/>
        <pt x="205" y="706" on="1"/>
      </contour>
      <contour>
        <pt x="447" y="651" on="0"/>
        <pt x="447" y="598" on="1"/>
        <pt x="447" y="534" on="0"/>
        <pt x="383" y="461" on="0"/>
        <pt x="322" y="461" on="1"/>
        <pt x="322" y="516" on="1"/>
        <pt x="373" y="516" on="0"/>
        <pt x="373" y="579" on="1"/>
        <pt x="373" y="598" on="1"/>
        <pt x="314" y="598" on="1"/>
        <pt x="314" y="706" on="1"/>
        <pt x="430" y="706" on="1"/>
      </contour>
    </TTGlyph>
    <TTGlyph name="Ldot" xMin="64" yMin="0" xMax="442" yMax="706">
      <component glyphName="L" x="0" y="0" flags="0x0"/>
      <component glyphName="dotaccent" x="290" y="-333" flags="0x4"/>
    </TTGlyph>
    <TTGlyph name="Lslash" xMin="10" yMin="0" xMax="459" yMax="706">
      <contour>
        <pt x="459" y="108" on="1"/>
        <pt x="459" y="0" on="1"/>
        <pt x="81" y="0" on="1"/>
        <pt x="81" y="281" on="1"/>
        <pt x="10" y="257" on="1"/>
        <pt x="10" y="396" on="1"/>
        <pt x="81" y="420" on="1"/>
        <pt x="81" y="706" on="1"/>
        <pt x="222" y="706" on="1"/>
        <pt x="222" y="468" on="1"/>
        <pt x="332" y="506" on="1"/>
        <pt x="332" y="368" on="1"/>
        <pt x="222" y="330" on="1"/>
        <pt x="222" y="108" on="1"/>
      </contour>
    </TTGlyph>
    <TTGlyph name="M" xMin="64" yMin="0" xMax="825" yMax="698">
      <contour>
        <pt x="825" y="698" on="1"/>
        <pt x="825" y="0" on="1"/>
        <pt x="685" y="0" on="1"/>
        <pt x="685" y="487" on="1"/>
        <pt x="506" y="0" on="1"/>
        <pt x="384" y="0" on="1"/>
        <pt x="205" y="485" on="1"/>
        <pt x="205" y="0" on="1"/>
        <pt x="64" y="0" on="1"/>
        <pt x="64" y="698" on="1"/>
        <pt x="235" y="698" on="1"/>
        <pt x="447" y="173" on="1"/>
        <pt x="655" y="698" on="1"/>
      </contour>
    </TTGlyph>
    <TTGlyph name="N" xMin="64" yMin="0" xMax="662" yMax="706">
      <contour>
        <pt x="662" y="0" on="1"/>
        <pt x="521" y="0" on="1"/>
        <pt x="205" y="480" on="1"/>
        <pt x="205" y="0" on="1"/>
        <pt x="64" y="0" on="1"/>
        <pt x="64" y="706" on="1"/>
        <pt x="205" y="706" on="1"/>
        <pt x="521" y="222" on="1"/>
        <pt x="521" y="706" on="1"/>
        <pt x="662" y="706" on="1"/>
      </contour>
    </TTGlyph>
    <TTGlyph name="Nacute" xMin="64" yMin="0" xMax="662" yMax="964">
      <component glyphName="N" x="0" y="0" flags="0x0"/>
      <component glyphName="acute" x="262" y="152" flags="0x4"/>
    </TTGlyph>
    <TTGlyph name="Ncaron" xMin="64" yMin="0" xMax="662" yMax="932">
      <component glyphName="N" x="0" y="0" flags="0x0"/>
      <component glyphName="caron" x="192" y="152" flags="0x4"/>
    </TTGlyph>
    <TTGlyph name="Ntilde" xMin="64" yMin="0" xMax="662" yMax="893">
      <component glyphName="N" x="0" y="0" flags="0x0"/>
      <component glyphName="tilde" x="163" y="152" flags="0x4"/>
    </TTGlyph>
    <TTGlyph name="O" xMin="42" yMin="-7" xMax="748" yMax="716">
      <contour>
        <pt x="494" y="716" on="0"/>
        <pt x="655" y="624" on="0"/>
        <pt x="748" y="459" on="0"/>
        <pt x="748" y="355" on="1"/>
        <pt x="748" y="251" on="0"/>
        <pt x="655" y="85" on="0"/>
        <pt x="494" y="-7" on="0"/>
        <pt x="395" y="-7" on="1"/>
        <pt x="296" y="-7" on="0"/>
        <pt x="135" y="85" on="0"/>
        <pt x="42" y="251" on="0"/>
        <pt x="42" y="355" on="1"/>
        <pt x="42" y="459" on="0"/>
        <pt x="135" y="624" on="0"/>
        <pt x="296" y="716" on="0"/>
        <pt x="395" y="716" on="1"/>
      </contour>
      <contour>
        <pt x="333" y="586" on="0"/>
        <pt x="239" y="530" on="0"/>
        <pt x="186" y="425" on="0"/>
        <pt x="186" y="355" on="1"/>
        <pt x="186" y="285" on="0"/>
        <pt x="239" y="180" on="0"/>
        <pt x="333" y="124" on="0"/>
        <pt x="395" y="124" on="1"/>
        <pt x="457" y="124" on="0"/>
        <pt x="551" y="180" on="0"/>
        <pt x="604" y="285" on="0"/>
        <pt x="604" y="355" on="1"/>
        <pt x="604" y="425" on="0"/>
        <pt x="551" y="530" on="0"/>
        <pt x="457" y="586" on="0"/>
        <pt x="395" y="586" on="1"/>
      </contour>
    </TTGlyph>
    <TTGlyph name="OE" xMin="42" yMin="-10" xMax="1031" yMax="716">
      <contour>
        <pt x="752" y="411" on="1"/>
        <pt x="1001" y="411" on="1"/>
        <pt x="1001" y="303" on="1"/>
        <pt x="752" y="303" on="1"/>
        <pt x="752" y="113" on="1"/>
        <pt x="1031" y="113" on="1"/>
        <pt x="1031" y="0" on="1"/>
        <pt x="611" y="0" on="1"/>
        <pt x="611" y="118" on="1"/>
        <pt x="581" y="59" on="0"/>
        <pt x="459" y="-9" on="0"/>
        <pt x="385" y="-10" on="1"/>
        <pt x="286" y="-10" on="0"/>
        <pt x="130" y="82" on="0"/>
        <pt x="42" y="248" on="0"/>
        <pt x="42" y="353" on="1"/>
        <pt x="42" y="458" on="0"/>
        <pt x="130" y="623" on="0"/>
        <pt x="287" y="716" on="0"/>
        <pt x="385" y="716" on="1"/>
        <pt x="459" y="716" on="0"/>
        <pt x="581" y="647" on="0"/>
        <pt x="611" y="587" on="1"/>
        <pt x="611" y="706" on="1"/>
        <pt x="1031" y="706" on="1"/>
        <pt x="1031" y="594" on="1"/>
        <pt x="752" y="594" on="1"/>
      </contour>
      <contour>
        <pt x="457" y="120" on="0"/>
        <pt x="552" y="177" on="0"/>
        <pt x="604" y="282" on="0"/>
        <pt x="604" y="353" on="1"/>
        <pt x="604" y="423" on="0"/>
        <pt x="551" y="529" on="0"/>
        <pt x="457" y="586" on="0"/>
        <pt x="395" y="586" on="1"/>
        <pt x="333" y="586" on="0"/>
        <pt x="239" y="529" on="0"/>
        <pt x="186" y="423" on="0"/>
        <pt x="186" y="353" on="1"/>
        <pt x="186" y="282" on="0"/>
        <pt x="238" y="177" on="0"/>
        <pt x="333" y="120" on="0"/>
        <pt x="395" y="120" on="1"/>
      </contour>
    </TTGlyph>
    <TTGlyph name="Oacute" xMin="42" yMin="-7" xMax="748" yMax="964">
      <component glyphName="O" x="0" y="0" flags="0x0"/>
      <component glyphName="acute" x="294" y="152" flags="0x4"/>
    </TTGlyph>
    <TTGlyph name="Ocircumflex" xMin="42" yMin="-7" xMax="748" yMax="933">
      <component glyphName="O" x="0" y="0" flags="0x0"/>
      <component glyphName="circumflex" x="225" y="152" flags="0x4"/>
    </TTGlyph>
    <TTGlyph name="Odieresis" xMin="42" yMin="-7" xMax="748" yMax="902">
      <component glyphName="O" x="0" y="0" flags="0x0"/>
      <component glyphName="dieresis" x="206" y="152" flags="0x4"/>
    </TTGlyph>
    <TTGlyph name="Ograve" xMin="42" yMin="-7" xMax="748" yMax="964">
      <component glyphName="O" x="0" y="0" flags="0x0"/>
      <component glyphName="grave" x="218" y="152" flags="0x4"/>
    </TTGlyph>
    <TTGlyph name="Ohungarumlaut" xMin="42" yMin="-7" xMax="748" yMax="941">
      <component glyphName="O" x="0" y="0" flags="0x0"/>
      <component glyphName="hungarumlaut" x="233" y="152" flags="0x4"/>
    </TTGlyph>
    <TTGlyph name="Omacron" xMin="42" yMin="-7" xMax="748" yMax="884">
      <component glyphName="O" x="0" y="0" flags="0x0"/>
      <component glyphName="macron" x="182" y="152" flags="0x4"/>
    </TTGlyph>
    <TTGlyph name="Oslash" xMin="35" yMin="-7" xMax="754" yMax="716">
      <contour>
        <pt x="658" y="602" on="1"/>
        <pt x="701" y="554" on="0"/>
        <pt x="747" y="428" on="0"/>
        <pt x="747" y="355" on="1"/>
        <pt x="747" y="251" on="0"/>
        <pt x="654" y="85" on="0"/>
        <pt x="493" y="-7" on="0"/>
        <pt x="394" y="-7" on="1"/>
        <pt x="332" y="-7" on="0"/>
        <pt x="220" y="31" on="0"/>
        <pt x="174" y="66" on="1"/>
        <pt x="115" y="1" on="1"/>
        <pt x="35" y="1" on="1"/>
        <pt x="131" y="107" on="1"/>
        <pt x="88" y="155" on="0"/>
        <pt x="41" y="282" on="0"/>
        <pt x="41" y="355" on="1"/>
        <pt x="41" y="459" on="0"/>
        <pt x="134" y="624" on="0"/>
        <pt x="295" y="716" on="0"/>
        <pt x="394" y="716" on="1"/>
        <pt x="457" y="716" on="0"/>
        <pt x="569" y="678" on="0"/>
        <pt x="615" y="642" on="1"/>
        <pt x="675" y="709" on="1"/>
        <pt x="754" y="709" on="1"/>
      </contour>
      <contour>
        <pt x="185" y="269" on="0"/>
        <pt x="224" y="210" on="1"/>
        <pt x="525" y="543" on="1"/>
        <pt x="471" y="586" on="0"/>
        <pt x="394" y="586" on="1"/>
        <pt x="332" y="586" on="0"/>
        <pt x="238" y="530" on="0"/>
        <pt x="185" y="425" on="0"/>
        <pt x="185" y="355" on="1"/>
      </contour>
      <contour>
        <pt x="603" y="440" on="0"/>
        <pt x="564" y="499" on="1"/>
        <pt x="264" y="166" on="1"/>
        <pt x="318" y="124" on="0"/>
        <pt x="394" y="124" on="1"/>
        <pt x="456" y="124" on="0"/>
        <pt x="550" y="180" on="0"/>
        <pt x="603" y="285" on="0"/>
        <pt x="603" y="355" on="1"/>
      </contour>
    </TTGlyph>
    <TTGlyph name="Otilde" xMin="42" yMin="-7" xMax="748" yMax="893">
      <component glyphName="O" x="0" y="0" flags="0x0"/>
      <component glyphName="tilde" x="195" y="152" flags="0x4"/>
    </TTGlyph>
    <TTGlyph name="P" xMin="64" yMin="0" xMax="573" yMax="706">
      <contour>
        <pt x="205" y="262" on="1"/>
        <pt x="205" y="0" on="1"/>
        <pt x="64" y="0" on="1"/>
        <pt x="64" y="706" on="1"/>
        <pt x="321" y="706" on="1"/>
        <pt x="446" y="706" on="0"/>
        <pt x="573" y="586" on="0"/>
        <pt x="573" y="483" on="1"/>
        <pt x="573" y="382" on="0"/>
        <pt x="442" y="262" on="0"/>
        <pt x="321" y="262" on="1"/>
      </contour>
      <contour>
        <pt x="430" y="375" on="0"/>
        <pt x="430" y="483" on="1"/>
        <pt x="430" y="536" on="0"/>
        <pt x="372" y="592" on="0"/>
        <pt x="306" y="592" on="1"/>
        <pt x="205" y="592" on="1"/>
        <pt x="205" y="375" on="1"/>
        <pt x="306" y="375" on="1"/>
      </contour>
    </TTGlyph>
    <TTGlyph name="Q" xMin="42" yMin="-129" xMax="764" yMax="716">
      <contour>
        <pt x="593" y="-129" on="1"/>
        <pt x="483" y="3" on="1"/>
        <pt x="443" y="-7" on="0"/>
        <pt x="395" y="-7" on="1"/>
        <pt x="296" y="-7" on="0"/>
        <pt x="135" y="85" on="0"/>
        <pt x="42" y="251" on="0"/>
        <pt x="42" y="355" on="1"/>
        <pt x="42" y="459" on="0"/>
        <pt x="135" y="624" on="0"/>
        <pt x="296" y="716" on="0"/>
        <pt x="395" y="716" on="1"/>
        <pt x="494" y="716" on="0"/>
        <pt x="655" y="624" on="0"/>
        <pt x="748" y="459" on="0"/>
        <pt x="748" y="355" on="1"/>
        <pt x="748" y="258" on="0"/>
        <pt x="668" y="101" on="0"/>
        <pt x="597" y="53" on="1"/>
        <pt x="764" y="-129" on="1"/>
      </contour>
      <contour>
        <pt x="186" y="285" on="0"/>
        <pt x="239" y="180" on="0"/>
        <pt x="333" y="124" on="0"/>
        <pt x="395" y="124" on="1"/>
        <pt x="457" y="124" on="0"/>
        <pt x="551" y="180" on="0"/>
        <pt x="604" y="285" on="0"/>
        <pt x="604" y="355" on="1"/>
        <pt x="604" y="425" on="0"/>
        <pt x="551" y="530" on="0"/>
        <pt x="457" y="586" on="0"/>
        <pt x="395" y="586" on="1"/>
        <pt x="333" y="586" on="0"/>
        <pt x="239" y="530" on="0"/>
        <pt x="186" y="425" on="0"/>
        <pt x="186" y="355" on="1"/>
      </contour>
    </TTGlyph>
    <TTGlyph name="R" xMin="64" yMin="0" xMax="588" yMax="706">
      <contour>
        <pt x="432" y="0" on="1"/>
        <pt x="267" y="275" on="1"/>
        <pt x="205" y="275" on="1"/>
        <pt x="205" y="0" on="1"/>
        <pt x="64" y="0" on="1"/>
        <pt x="64" y="706" on="1"/>
        <pt x="333" y="706" on="1"/>
        <pt x="456" y="706" on="0"/>
        <pt x="585" y="586" on="0"/>
        <pt x="585" y="488" on="1"/>
        <pt x="585" y="408" on="0"/>
        <pt x="496" y="300" on="0"/>
        <pt x="412" y="282" on="1"/>
        <pt x="588" y="0" on="1"/>
      </contour>
      <contour>
        <pt x="205" y="372" on="1"/>
        <pt x="321" y="372" on="1"/>
        <pt x="442" y="372" on="0"/>
        <pt x="442" y="479" on="1"/>
        <pt x="442" y="530" on="0"/>
        <pt x="383" y="587" on="0"/>
        <pt x="321" y="587" on="1"/>
        <pt x="205" y="587" on="1"/>
      </contour>
    </TTGlyph>
    <TTGlyph name="Racute" xMin="64" yMin="0" xMax="588" yMax="964">
      <component glyphName="R" x="0" y="0" flags="0x0"/>
      <component glyphName="acute" x="225" y="152" flags="0x4"/>
    </TTGlyph>
    <TTGlyph name="Rcaron" xMin="64" yMin="0" xMax="588" yMax="932">
      <component glyphName="R" x="0" y="0" flags="0x0"/>
      <component glyphName="caron" x="156" y="152" flags="0x4"/>
    </TTGlyph>
    <TTGlyph name="S" xMin="42" yMin="-7" xMax="549" yMax="716">
      <contour>
        <pt x="549" y="139" on="0"/>
        <pt x="495" y="48" on="0"/>
        <pt x="389" y="-7" on="0"/>
        <pt x="313" y="-7" on="1"/>
        <pt x="238" y="-7" on="0"/>
        <pt x="120" y="44" on="0"/>
        <pt x="49" y="140" on="0"/>
        <pt x="44" y="204" on="1"/>
        <pt x="194" y="204" on="1"/>
        <pt x="199" y="161" on="0"/>
        <pt x="258" y="104" on="0"/>
        <pt x="307" y="104" on="1"/>
        <pt x="351" y="104" on="0"/>
        <pt x="398" y="151" on="0"/>
        <pt x="398" y="188" on="1"/>
        <pt x="398" y="221" on="0"/>
        <pt x="360" y="264" on="0"/>
        <pt x="302" y="290" on="0"/>
        <pt x="251" y="307" on="1"/>
        <pt x="185" y="329" on="0"/>
        <pt x="101" y="372" on="0"/>
        <pt x="42" y="454" on="0"/>
        <pt x="42" y="520" on="1"/>
        <pt x="42" y="611" on="0"/>
        <pt x="173" y="716" on="0"/>
        <pt x="281" y="716" on="1"/>
        <pt x="393" y="716" on="0"/>
        <pt x="526" y="608" on="0"/>
        <pt x="535" y="518" on="1"/>
        <pt x="383" y="518" on="1"/>
        <pt x="377" y="556" on="0"/>
        <pt x="325" y="605" on="0"/>
        <pt x="280" y="605" on="1"/>
        <pt x="241" y="605" on="0"/>
        <pt x="193" y="564" on="0"/>
        <pt x="193" y="525" on="1"/>
        <pt x="193" y="494" on="0"/>
        <pt x="230" y="453" on="0"/>
        <pt x="287" y="427" on="0"/>
        <pt x="336" y="411" on="1"/>
        <pt x="404" y="387" on="0"/>
        <pt x="489" y="345" on="0"/>
        <pt x="549" y="261" on="0"/>
        <pt x="549" y="193" on="1"/>
      </contour>
    </TTGlyph>
    <TTGlyph name="Sacute" xMin="42" yMin="-7" xMax="549" yMax="964">
      <component glyphName="S" x="0" y="0" flags="0x0"/>
      <component glyphName="acute" x="194" y="152" flags="0x4"/>
    </TTGlyph>
    <TTGlyph name="Scaron" xMin="42" yMin="-7" xMax="549" yMax="932">
      <component glyphName="S" x="0" y="0" flags="0x0"/>
      <component glyphName="caron" x="125" y="152" flags="0x4"/>
    </TTGlyph>
    <TTGlyph name="T" xMin="14" yMin="0" xMax="544" yMax="706">
      <contour>
        <pt x="544" y="706" on="1"/>
        <pt x="544" y="594" on="1"/>
        <pt x="349" y="594" on="1"/>
        <pt x="349" y="0" on="1"/>
        <pt x="208" y="0" on="1"/>
        <pt x="208" y="594" on="1"/>
        <pt x="14" y="594" on="1"/>
        <pt x="14" y="706" on="1"/>
      </contour>
    </TTGlyph>
    <TTGlyph name="Tcaron" xMin="14" yMin="0" xMax="544" yMax="932">
      <component glyphName="T" x="0" y="0" flags="0x0"/>
      <component glyphName="caron" x="109" y="152" flags="0x4"/>
    </TTGlyph>
    <TTGlyph name="Thorn" xMin="64" yMin="0" xMax="573" yMax="706">
      <contour>
        <pt x="205" y="139" on="1"/>
        <pt x="205" y="0" on="1"/>
        <pt x="64" y="0" on="1"/>
        <pt x="64" y="706" on="1"/>
        <pt x="204" y="706" on="1"/>
        <pt x="204" y="571" on="1"/>
        <pt x="321" y="571" on="1"/>
        <pt x="445" y="571" on="0"/>
        <pt x="573" y="454" on="0"/>
        <pt x="573" y="354" on="1"/>
        <pt x="573" y="256" on="0"/>
        <pt x="442" y="139" on="0"/>
        <pt x="321" y="139" on="1"/>
      </contour>
      <contour>
        <pt x="430" y="246" on="0"/>
        <pt x="430" y="354" on="1"/>
        <pt x="430" y="407" on="0"/>
        <pt x="372" y="462" on="0"/>
        <pt x="306" y="462" on="1"/>
        <pt x="205" y="462" on="1"/>
        <pt x="205" y="246" on="1"/>
        <pt x="306" y="246" on="1"/>
      </contour>
    </TTGlyph>
    <TTGlyph name="U" xMin="60" yMin="-7" xMax="623" yMax="706">
      <contour>
        <pt x="200" y="706" on="1"/>
        <pt x="200" y="292" on="1"/>
        <pt x="200" y="209" on="0"/>
        <pt x="273" y="126" on="0"/>
        <pt x="342" y="126" on="1"/>
        <pt x="410" y="126" on="0"/>
        <pt x="483" y="209" on="0"/>
        <pt x="483" y="292" on="1"/>
        <pt x="483" y="706" on="1"/>
        <pt x="623" y="706" on="1"/>
        <pt x="623" y="292" on="1"/>
        <pt x="623" y="194" on="0"/>
        <pt x="550" y="59" on="0"/>
        <pt x="421" y="-7" on="0"/>
        <pt x="339" y="-7" on="1"/>
        <pt x="212" y="-7" on="0"/>
        <pt x="60" y="145" on="0"/>
        <pt x="60" y="292" on="1"/>
        <pt x="60" y="706" on="1"/>
      </contour>
    </TTGlyph>
    <TTGlyph name="Uacute" xMin="60" yMin="-7" xMax="623" yMax="964">
      <component glyphName="U" x="0" y="0" flags="0x0"/>
      <component glyphName="acute" x="240" y="152" flags="0x4"/>
    </TTGlyph>
    <TTGlyph name="Ubreve" xMin="60" yMin="-7" xMax="623" yMax="934">
      <component glyphName="U" x="0" y="0" flags="0x0"/>
      <component glyphName="breve" x="159" y="152" flags="0x4"/>
    </TTGlyph>
    <TTGlyph name="Ucircumflex" xMin="60" yMin="-7" xMax="623" yMax="933">
      <component glyphName="U" x="0" y="0" flags="0x0"/>
      <component glyphName="circumflex" x="171" y="152" flags="0x4"/>
    </TTGlyph>
    <TTGlyph name="Udieresis" xMin="60" yMin="-7" xMax="623" yMax="902">
      <component glyphName="U" x="0" y="0" flags="0x0"/>
      <component glyphName="dieresis" x="153" y="152" flags="0x4"/>
    </TTGlyph>
    <TTGlyph name="Ugrave" xMin="60" yMin="-7" xMax="623" yMax="964">
      <component glyphName="U" x="0" y="0" flags="0x0"/>
      <component glyphName="grave" x="164" y="152" flags="0x4"/>
    </TTGlyph>
    <TTGlyph name="Uhungarumlaut" xMin="60" yMin="-7" xMax="623" yMax="941">
      <component glyphName="U" x="0" y="0" flags="0x0"/>
      <component glyphName="hungarumlaut" x="143" y="152" flags="0x4"/>
    </TTGlyph>
    <TTGlyph name="Umacron" xMin="60" yMin="-7" xMax="623" yMax="884">
      <component glyphName="U" x="0" y="0" flags="0x0"/>
      <component glyphName="macron" x="128" y="152" flags="0x4"/>
    </TTGlyph>
    <TTGlyph name="Uogonek" xMin="75" yMin="-155" xMax="638" yMax="706">
      <contour>
        <pt x="347" y="-155" on="0"/>
        <pt x="274" y="-95" on="0"/>
        <pt x="274" y="-41" on="1"/>
        <pt x="274" y="-28" on="0"/>
        <pt x="286" y="-6" on="0"/>
        <pt x="296" y="-1" on="1"/>
        <pt x="199" y="17" on="0"/>
        <pt x="75" y="168" on="0"/>
        <pt x="75" y="292" on="1"/>
        <pt x="75" y="706" on="1"/>
        <pt x="215" y="706" on="1"/>
        <pt x="215" y="292" on="1"/>
        <pt x="215" y="209" on="0"/>
        <pt x="288" y="126" on="0"/>
        <pt x="357" y="126" on="1"/>
        <pt x="423" y="126" on="0"/>
        <pt x="498" y="207" on="0"/>
        <pt x="498" y="292" on="1"/>
        <pt x="498" y="706" on="1"/>
        <pt x="638" y="706" on="1"/>
        <pt x="638" y="292" on="1"/>
        <pt x="638" y="168" on="0"/>
        <pt x="517" y="21" on="0"/>
        <pt x="424" y="3" on="1"/>
        <pt x="371" y="-6" on="0"/>
        <pt x="371" y="-41" on="1"/>
        <pt x="371" y="-59" on="0"/>
        <pt x="399" y="-80" on="0"/>
        <pt x="426" y="-80" on="1"/>
        <pt x="533" y="-80" on="1"/>
        <pt x="533" y="-155" on="1"/>
        <pt x="400" y="-155" on="1"/>
      </contour>
    </TTGlyph>
    <TTGlyph name="Uring" xMin="60" yMin="-7" xMax="623" yMax="984">
      <component glyphName="U" x="0" y="0" flags="0x0"/>
      <component glyphName="ring" x="204" y="152" flags="0x4"/>
    </TTGlyph>
    <TTGlyph name="Utilde" xMin="60" yMin="-7" xMax="623" yMax="893">
      <component glyphName="U" x="0" y="0" flags="0x0"/>
      <component glyphName="tilde" x="142" y="152" flags="0x4"/>
    </TTGlyph>
    <TTGlyph name="V" xMin="12" yMin="0" xMax="693" yMax="706">
      <contour>
        <pt x="163" y="706" on="1"/>
        <pt x="352" y="147" on="1"/>
        <pt x="542" y="706" on="1"/>
        <pt x="693" y="706" on="1"/>
        <pt x="443" y="0" on="1"/>
        <pt x="262" y="0" on="1"/>
        <pt x="12" y="706" on="1"/>
      </contour>
    </TTGlyph>
    <TTGlyph name="W" xMin="32" yMin="0" xMax="990" yMax="706">
      <contour>
        <pt x="990" y="706" on="1"/>
        <pt x="817" y="0" on="1"/>
        <pt x="643" y="0" on="1"/>
        <pt x="511" y="512" on="1"/>
        <pt x="378" y="0" on="1"/>
        <pt x="205" y="0" on="1"/>
        <pt x="32" y="706" on="1"/>
        <pt x="185" y="706" on="1"/>
        <pt x="293" y="159" on="1"/>
        <pt x="433" y="706" on="1"/>
        <pt x="588" y="706" on="1"/>
        <pt x="729" y="159" on="1"/>
        <pt x="837" y="706" on="1"/>
      </contour>
    </TTGlyph>
    <TTGlyph name="Wacute" xMin="32" yMin="0" xMax="990" yMax="964">
      <component glyphName="W" x="0" y="0" flags="0x0"/>
      <component glyphName="acute" x="410" y="152" flags="0x4"/>
    </TTGlyph>
    <TTGlyph name="Wcircumflex" xMin="32" yMin="0" xMax="990" yMax="933">
      <component glyphName="W" x="0" y="0" flags="0x0"/>
      <component glyphName="circumflex" x="341" y="152" flags="0x4"/>
    </TTGlyph>
    <TTGlyph name="Wdieresis" xMin="32" yMin="0" xMax="990" yMax="902">
      <component glyphName="W" x="0" y="0" flags="0x0"/>
      <component glyphName="dieresis" x="322" y="152" flags="0x4"/>
    </TTGlyph>
    <TTGlyph name="Wgrave" xMin="32" yMin="0" xMax="990" yMax="964">
      <component glyphName="W" x="0" y="0" flags="0x0"/>
      <component glyphName="grave" x="334" y="152" flags="0x4"/>
    </TTGlyph>
    <TTGlyph name="X" xMin="12" yMin="0" xMax="646" yMax="706">
      <contour>
        <pt x="479" y="0" on="1"/>
        <pt x="320" y="241" on="1"/>
        <pt x="179" y="0" on="1"/>
        <pt x="18" y="0" on="1"/>
        <pt x="240" y="361" on="1"/>
        <pt x="12" y="706" on="1"/>
        <pt x="179" y="706" on="1"/>
        <pt x="335" y="470" on="1"/>
        <pt x="474" y="706" on="1"/>
        <pt x="635" y="706" on="1"/>
        <pt x="414" y="351" on="1"/>
        <pt x="646" y="0" on="1"/>
      </contour>
    </TTGlyph>
    <TTGlyph name="Y" xMin="12" yMin="0" xMax="633" yMax="706">
      <contour>
        <pt x="633" y="706" on="1"/>
        <pt x="394" y="247" on="1"/>
        <pt x="394" y="0" on="1"/>
        <pt x="252" y="0" on="1"/>
        <pt x="252" y="247" on="1"/>
        <pt x="12" y="706" on="1"/>
        <pt x="174" y="706" on="1"/>
        <pt x="324" y="397" on="1"/>
        <pt x="474" y="706" on="1"/>
      </contour>
    </TTGlyph>
    <TTGlyph name="Yacute" xMin="12" yMin="0" xMax="633" yMax="964">
      <component glyphName="Y" x="0" y="0" flags="0x0"/>
      <component glyphName="acute" x="222" y="152" flags="0x4"/>
    </TTGlyph>
    <TTGlyph name="Ycircumflex" xMin="12" yMin="0" xMax="633" yMax="933">
      <component glyphName="Y" x="0" y="0" flags="0x0"/>
      <component glyphName="circumflex" x="152" y="152" flags="0x4"/>
    </TTGlyph>
    <TTGlyph name="Ydieresis" xMin="12" yMin="0" xMax="633" yMax="902">
      <component glyphName="Y" x="0" y="0" flags="0x0"/>
      <component glyphName="dieresis" x="134" y="152" flags="0x4"/>
    </TTGlyph>
    <TTGlyph name="Ygrave" xMin="12" yMin="0" xMax="633" yMax="964">
      <component glyphName="Y" x="0" y="0" flags="0x0"/>
      <component glyphName="grave" x="146" y="152" flags="0x4"/>
    </TTGlyph>
    <TTGlyph name="Z" xMin="44" yMin="0" xMax="529" yMax="706">
      <contour>
        <pt x="200" y="114" on="1"/>
        <pt x="529" y="114" on="1"/>
        <pt x="529" y="0" on="1"/>
        <pt x="44" y="0" on="1"/>
        <pt x="44" y="108" on="1"/>
        <pt x="366" y="593" on="1"/>
        <pt x="49" y="593" on="1"/>
        <pt x="49" y="706" on="1"/>
        <pt x="525" y="706" on="1"/>
        <pt x="525" y="598" on="1"/>
      </contour>
    </TTGlyph>
    <TTGlyph name="Zacute" xMin="44" yMin="0" xMax="529" yMax="964">
      <component glyphName="Z" x="0" y="0" flags="0x0"/>
      <component glyphName="acute" x="186" y="152" flags="0x4"/>
    </TTGlyph>
    <TTGlyph name="Zcaron" xMin="44" yMin="0" xMax="529" yMax="932">
      <component glyphName="Z" x="0" y="0" flags="0x0"/>
      <component glyphName="caron" x="116" y="152" flags="0x4"/>
    </TTGlyph>
    <TTGlyph name="Zdotaccent" xMin="44" yMin="0" xMax="529" yMax="902">
      <component glyphName="Z" x="0" y="0" flags="0x0"/>
      <component glyphName="dotaccent" x="198" y="152" flags="0x4"/>
    </TTGlyph>
    <TTGlyph name="a" xMin="36" yMin="-7" xMax="612" yMax="561">
      <contour>
        <pt x="351" y="561" on="0"/>
        <pt x="451" y="495" on="0"/>
        <pt x="472" y="439" on="1"/>
        <pt x="472" y="554" on="1"/>
        <pt x="612" y="554" on="1"/>
        <pt x="612" y="0" on="1"/>
        <pt x="472" y="0" on="1"/>
        <pt x="472" y="116" on="1"/>
        <pt x="451" y="60" on="0"/>
        <pt x="351" y="-7" on="0"/>
        <pt x="281" y="-7" on="1"/>
        <pt x="211" y="-7" on="0"/>
        <pt x="99" y="61" on="0"/>
        <pt x="36" y="190" on="0"/>
        <pt x="36" y="277" on="1"/>
        <pt x="36" y="364" on="0"/>
        <pt x="99" y="493" on="0"/>
        <pt x="211" y="561" on="0"/>
        <pt x="281" y="561" on="1"/>
      </contour>
      <contour>
        <pt x="259" y="438" on="0"/>
        <pt x="179" y="352" on="0"/>
        <pt x="179" y="277" on="1"/>
        <pt x="179" y="202" on="0"/>
        <pt x="259" y="117" on="0"/>
        <pt x="325" y="117" on="1"/>
        <pt x="389" y="117" on="0"/>
        <pt x="472" y="204" on="0"/>
        <pt x="472" y="277" on="1"/>
        <pt x="472" y="351" on="0"/>
        <pt x="389" y="438" on="0"/>
        <pt x="325" y="438" on="1"/>
      </contour>
    </TTGlyph>
    <TTGlyph name="aacute" xMin="36" yMin="-7" xMax="612" yMax="812">
      <component glyphName="a" x="0" y="0" flags="0x0"/>
      <component glyphName="acute" x="224" y="0" flags="0x0"/>
    </TTGlyph>
    <TTGlyph name="abreve" xMin="36" yMin="-7" xMax="612" yMax="782">
      <component glyphName="a" x="0" y="0" flags="0x0"/>
      <component glyphName="breve" x="142" y="0" flags="0x0"/>
    </TTGlyph>
    <TTGlyph name="acircumflex" xMin="36" yMin="-7" xMax="612" yMax="781">
      <component glyphName="a" x="0" y="0" flags="0x0"/>
      <component glyphName="circumflex" x="154" y="0" flags="0x0"/>
    </TTGlyph>
    <TTGlyph name="acute" xMin="22" yMin="596" xMax="252" yMax="812">
      <contour>
        <pt x="252" y="704" on="1"/>
        <pt x="22" y="596" on="1"/>
        <pt x="22" y="692" on="1"/>
        <pt x="252" y="812" on="1"/>
      </contour>
    </TTGlyph>
    <TTGlyph name="adieresis" xMin="36" yMin="-7" xMax="612" yMax="750">
      <component glyphName="a" x="0" y="0" flags="0x0"/>
      <component glyphName="dieresis" x="136" y="0" flags="0x0"/>
    </TTGlyph>
    <TTGlyph name="ae" xMin="36" yMin="-7" xMax="1050" yMax="561">
      <contour>
        <pt x="1050" y="271" on="0"/>
        <pt x="1046" y="250" on="1"/>
        <pt x="617" y="250" on="1"/>
        <pt x="622" y="176" on="0"/>
        <pt x="701" y="105" on="0"/>
        <pt x="761" y="105" on="1"/>
        <pt x="814" y="105" on="0"/>
        <pt x="884" y="153" on="0"/>
        <pt x="894" y="195" on="1"/>
        <pt x="1043" y="195" on="1"/>
        <pt x="1027" y="106" on="0"/>
        <pt x="901" y="-7" on="0"/>
        <pt x="808" y="-7" on="1"/>
        <pt x="737" y="-7" on="0"/>
        <pt x="633" y="57" on="0"/>
        <pt x="612" y="116" on="1"/>
        <pt x="612" y="0" on="1"/>
        <pt x="472" y="0" on="1"/>
        <pt x="472" y="116" on="1"/>
        <pt x="451" y="60" on="0"/>
        <pt x="351" y="-7" on="0"/>
        <pt x="281" y="-7" on="1"/>
        <pt x="211" y="-7" on="0"/>
        <pt x="99" y="61" on="0"/>
        <pt x="36" y="190" on="0"/>
        <pt x="36" y="277" on="1"/>
        <pt x="36" y="364" on="0"/>
        <pt x="99" y="493" on="0"/>
        <pt x="211" y="561" on="0"/>
        <pt x="281" y="561" on="1"/>
        <pt x="351" y="561" on="0"/>
        <pt x="451" y="495" on="0"/>
        <pt x="472" y="439" on="1"/>
        <pt x="472" y="554" on="1"/>
        <pt x="612" y="554" on="1"/>
        <pt x="612" y="438" on="1"/>
        <pt x="633" y="497" on="0"/>
        <pt x="737" y="561" on="0"/>
        <pt x="808" y="561" on="1"/>
        <pt x="882" y="561" on="0"/>
        <pt x="991" y="493" on="0"/>
        <pt x="1050" y="374" on="0"/>
        <pt x="1050" y="298" on="1"/>
      </contour>
      <contour>
        <pt x="911" y="380" on="0"/>
        <pt x="827" y="450" on="0"/>
        <pt x="765" y="450" on="1"/>
        <pt x="706" y="450" on="0"/>
        <pt x="623" y="382" on="0"/>
        <pt x="617" y="312" on="1"/>
        <pt x="908" y="312" on="1"/>
      </contour>
      <contour>
        <pt x="389" y="117" on="0"/>
        <pt x="472" y="204" on="0"/>
        <pt x="472" y="277" on="1"/>
        <pt x="472" y="351" on="0"/>
        <pt x="389" y="438" on="0"/>
        <pt x="325" y="438" on="1"/>
        <pt x="259" y="438" on="0"/>
        <pt x="179" y="352" on="0"/>
        <pt x="179" y="277" on="1"/>
        <pt x="179" y="202" on="0"/>
        <pt x="259" y="117" on="0"/>
        <pt x="325" y="117" on="1"/>
      </contour>
    </TTGlyph>
    <TTGlyph name="agrave" xMin="36" yMin="-7" xMax="612" yMax="812">
      <component glyphName="a" x="0" y="0" flags="0x0"/>
      <component glyphName="grave" x="148" y="0" flags="0x0"/>
    </TTGlyph>
    <TTGlyph name="amacron" xMin="36" yMin="-7" xMax="612" yMax="732">
      <component glyphName="a" x="0" y="0" flags="0x0"/>
      <component glyphName="macron" x="112" y="0" flags="0x0"/>
    </TTGlyph>
    <TTGlyph name="ampersand" xMin="31" yMin="-7" xMax="685" yMax="713">
      <contour>
        <pt x="543" y="0" on="1"/>
        <pt x="435" y="126" on="1"/>
        <pt x="427" y="106" on="0"/>
        <pt x="421" y="95" on="1"/>
        <pt x="403" y="49" on="0"/>
        <pt x="313" y="-7" on="0"/>
        <pt x="253" y="-7" on="1"/>
        <pt x="186" y="-7" on="0"/>
        <pt x="85" y="49" on="0"/>
        <pt x="31" y="146" on="0"/>
        <pt x="31" y="208" on="1"/>
        <pt x="31" y="269" on="0"/>
        <pt x="78" y="361" on="0"/>
        <pt x="159" y="412" on="0"/>
        <pt x="209" y="414" on="1"/>
        <pt x="197" y="432" on="1"/>
        <pt x="177" y="460" on="0"/>
        <pt x="155" y="515" on="0"/>
        <pt x="155" y="549" on="1"/>
        <pt x="155" y="592" on="0"/>
        <pt x="200" y="667" on="0"/>
        <pt x="289" y="713" on="0"/>
        <pt x="351" y="713" on="1"/>
        <pt x="440" y="713" on="0"/>
        <pt x="537" y="633" on="0"/>
        <pt x="551" y="570" on="1"/>
        <pt x="561" y="540" on="0"/>
        <pt x="561" y="506" on="1"/>
        <pt x="560" y="487" on="1"/>
        <pt x="429" y="487" on="1"/>
        <pt x="429" y="512" on="0"/>
        <pt x="427" y="521" on="1"/>
        <pt x="426" y="557" on="0"/>
        <pt x="388" y="596" on="0"/>
        <pt x="354" y="596" on="1"/>
        <pt x="323" y="596" on="0"/>
        <pt x="287" y="560" on="0"/>
        <pt x="287" y="534" on="1"/>
        <pt x="287" y="511" on="0"/>
        <pt x="305" y="477" on="0"/>
        <pt x="326" y="452" on="1"/>
        <pt x="685" y="0" on="1"/>
      </contour>
      <contour>
        <pt x="297" y="111" on="0"/>
        <pt x="352" y="164" on="0"/>
        <pt x="352" y="206" on="1"/>
        <pt x="352" y="250" on="0"/>
        <pt x="289" y="308" on="0"/>
        <pt x="246" y="308" on="1"/>
        <pt x="205" y="308" on="0"/>
        <pt x="152" y="258" on="0"/>
        <pt x="152" y="212" on="1"/>
        <pt x="152" y="166" on="0"/>
        <pt x="211" y="111" on="0"/>
        <pt x="254" y="111" on="1"/>
      </contour>
    </TTGlyph>
    <TTGlyph name="aogonek" xMin="36" yMin="-207" xMax="655" yMax="561">
      <component glyphName="a" x="0" y="0" flags="0x0"/>
      <component glyphName="ogonek" x="375" y="15" flags="0x4"/>
    </TTGlyph>
    <TTGlyph name="approxequal" xMin="28" yMin="149" xMax="563" yMax="579">
      <component glyphName="asciitilde" x="0" y="-71" flags="0x4"/>
      <component glyphName="asciitilde" x="0" y="164" flags="0x4"/>
    </TTGlyph>
    <TTGlyph name="aring" xMin="36" yMin="-7" xMax="612" yMax="832">
      <component glyphName="a" x="0" y="0" flags="0x0"/>
      <component glyphName="ring" x="187" y="0" flags="0x0"/>
    </TTGlyph>
    <TTGlyph name="asciicircum" xMin="31" yMin="167" xMax="645" yMax="700">
      <contour>
        <pt x="171" y="167" on="1"/>
        <pt x="31" y="167" on="1"/>
        <pt x="271" y="700" on="1"/>
        <pt x="406" y="700" on="1"/>
        <pt x="645" y="167" on="1"/>
        <pt x="505" y="167" on="1"/>
        <pt x="339" y="537" on="1"/>
      </contour>
    </TTGlyph>
    <TTGlyph name="asciitilde" xMin="28" yMin="220" xMax="563" yMax="415">
      <contour>
        <pt x="236" y="414" on="0"/>
        <pt x="285" y="394" on="0"/>
        <pt x="317" y="376" on="1"/>
        <pt x="345" y="361" on="0"/>
        <pt x="377" y="347" on="0"/>
        <pt x="394" y="347" on="1"/>
        <pt x="445" y="347" on="0"/>
        <pt x="456" y="415" on="1"/>
        <pt x="563" y="415" on="1"/>
        <pt x="548" y="317" on="0"/>
        <pt x="456" y="221" on="0"/>
        <pt x="386" y="221" on="1"/>
        <pt x="356" y="221" on="0"/>
        <pt x="308" y="240" on="0"/>
        <pt x="274" y="259" on="1"/>
        <pt x="248" y="274" on="0"/>
        <pt x="215" y="288" on="0"/>
        <pt x="197" y="288" on="1"/>
        <pt x="146" y="288" on="0"/>
        <pt x="134" y="220" on="1"/>
        <pt x="28" y="220" on="1"/>
        <pt x="44" y="318" on="0"/>
        <pt x="136" y="414" on="0"/>
        <pt x="205" y="414" on="1"/>
      </contour>
    </TTGlyph>
    <TTGlyph name="asterisk" xMin="66" yMin="360" xMax="448" yMax="738">
      <contour>
        <pt x="398" y="687" on="1"/>
        <pt x="448" y="596" on="1"/>
        <pt x="317" y="549" on="1"/>
        <pt x="448" y="503" on="1"/>
        <pt x="395" y="409" on="1"/>
        <pt x="288" y="499" on="1"/>
        <pt x="311" y="360" on="1"/>
        <pt x="207" y="360" on="1"/>
        <pt x="229" y="499" on="1"/>
        <pt x="121" y="408" on="1"/>
        <pt x="66" y="503" on="1"/>
        <pt x="197" y="550" on="1"/>
        <pt x="68" y="596" on="1"/>
        <pt x="119" y="687" on="1"/>
        <pt x="229" y="599" on="1"/>
        <pt x="206" y="738" on="1"/>
        <pt x="311" y="738" on="1"/>
        <pt x="288" y="599" on="1"/>
      </contour>
    </TTGlyph>
    <TTGlyph name="at" xMin="46" yMin="-267" xMax="1188" yMax="809">
      <contour>
        <pt x="834" y="809" on="0"/>
        <pt x="1065" y="700" on="0"/>
        <pt x="1188" y="493" on="0"/>
        <pt x="1188" y="349" on="1"/>
        <pt x="1188" y="250" on="0"/>
        <pt x="1109" y="86" on="0"/>
        <pt x="977" y="-8" on="0"/>
        <pt x="901" y="-8" on="1"/>
        <pt x="834" y="-8" on="0"/>
        <pt x="751" y="54" on="0"/>
        <pt x="745" y="120" on="1"/>
        <pt x="711" y="58" on="0"/>
        <pt x="610" y="-8" on="0"/>
        <pt x="538" y="-8" on="1"/>
        <pt x="476" y="-8" on="0"/>
        <pt x="381" y="51" on="0"/>
        <pt x="328" y="158" on="0"/>
        <pt x="328" y="228" on="1"/>
        <pt x="328" y="250" on="0"/>
        <pt x="329" y="261" on="1"/>
        <pt x="335" y="347" on="0"/>
        <pt x="420" y="484" on="0"/>
        <pt x="559" y="561" on="0"/>
        <pt x="643" y="561" on="1"/>
        <pt x="752" y="561" on="0"/>
        <pt x="881" y="444" on="0"/>
        <pt x="881" y="344" on="1"/>
        <pt x="881" y="323" on="0"/>
        <pt x="878" y="300" on="1"/>
        <pt x="862" y="192" on="1"/>
        <pt x="860" y="174" on="0"/>
        <pt x="860" y="168" on="1"/>
        <pt x="860" y="139" on="0"/>
        <pt x="885" y="115" on="0"/>
        <pt x="911" y="115" on="1"/>
        <pt x="946" y="115" on="0"/>
        <pt x="1007" y="168" on="0"/>
        <pt x="1045" y="271" on="0"/>
        <pt x="1045" y="344" on="1"/>
        <pt x="1045" y="449" on="0"/>
        <pt x="955" y="607" on="0"/>
        <pt x="780" y="694" on="0"/>
        <pt x="654" y="694" on="1"/>
        <pt x="506" y="694" on="0"/>
        <pt x="293" y="572" on="0"/>
        <pt x="183" y="360" on="0"/>
        <pt x="183" y="229" on="1"/>
        <pt x="183" y="47" on="0"/>
        <pt x="398" y="-152" on="0"/>
        <pt x="604" y="-152" on="1"/>
        <pt x="578" y="-267" on="1"/>
        <pt x="408" y="-265" on="0"/>
        <pt x="170" y="-147" on="0"/>
        <pt x="46" y="74" on="0"/>
        <pt x="46" y="229" on="1"/>
        <pt x="46" y="402" on="0"/>
        <pt x="212" y="665" on="0"/>
        <pt x="499" y="809" on="0"/>
        <pt x="675" y="809" on="1"/>
      </contour>
      <contour>
        <pt x="744" y="372" on="0"/>
        <pt x="676" y="439" on="0"/>
        <pt x="619" y="439" on="1"/>
        <pt x="577" y="439" on="0"/>
        <pt x="506" y="394" on="0"/>
        <pt x="464" y="308" on="0"/>
        <pt x="464" y="249" on="1"/>
        <pt x="464" y="185" on="0"/>
        <pt x="533" y="115" on="0"/>
        <pt x="586" y="115" on="1"/>
        <pt x="627" y="115" on="0"/>
        <pt x="699" y="160" on="0"/>
        <pt x="744" y="247" on="0"/>
        <pt x="744" y="309" on="1"/>
      </contour>
    </TTGlyph>
    <TTGlyph name="atilde" xMin="36" yMin="-7" xMax="612" yMax="741">
      <component glyphName="a" x="0" y="0" flags="0x0"/>
      <component glyphName="tilde" x="125" y="0" flags="0x0"/>
    </TTGlyph>
    <TTGlyph name="b" xMin="64" yMin="-7" xMax="640" yMax="740">
      <contour>
        <pt x="465" y="561" on="0"/>
        <pt x="577" y="493" on="0"/>
        <pt x="640" y="364" on="0"/>
        <pt x="640" y="277" on="1"/>
        <pt x="640" y="190" on="0"/>
        <pt x="577" y="61" on="0"/>
        <pt x="465" y="-7" on="0"/>
        <pt x="395" y="-7" on="1"/>
        <pt x="325" y="-7" on="0"/>
        <pt x="226" y="60" on="0"/>
        <pt x="205" y="116" on="1"/>
        <pt x="205" y="0" on="1"/>
        <pt x="64" y="0" on="1"/>
        <pt x="64" y="740" on="1"/>
        <pt x="205" y="740" on="1"/>
        <pt x="205" y="439" on="1"/>
        <pt x="226" y="495" on="0"/>
        <pt x="325" y="561" on="0"/>
        <pt x="395" y="561" on="1"/>
      </contour>
      <contour>
        <pt x="287" y="438" on="0"/>
        <pt x="204" y="351" on="0"/>
        <pt x="204" y="277" on="1"/>
        <pt x="204" y="204" on="0"/>
        <pt x="287" y="117" on="0"/>
        <pt x="351" y="117" on="1"/>
        <pt x="417" y="117" on="0"/>
        <pt x="497" y="202" on="0"/>
        <pt x="497" y="277" on="1"/>
        <pt x="497" y="352" on="0"/>
        <pt x="417" y="438" on="0"/>
        <pt x="351" y="438" on="1"/>
      </contour>
    </TTGlyph>
    <TTGlyph name="backslash" xMin="132" yMin="-181" xMax="553" yMax="947">
      <contour>
        <pt x="418" y="-181" on="1"/>
        <pt x="132" y="947" on="1"/>
        <pt x="268" y="947" on="1"/>
        <pt x="553" y="-181" on="1"/>
      </contour>
    </TTGlyph>
    <TTGlyph name="bar" xMin="46" yMin="-121" xMax="187" yMax="808">
      <contour>
        <pt x="187" y="-121" on="1"/>
        <pt x="46" y="-121" on="1"/>
        <pt x="46" y="808" on="1"/>
        <pt x="187" y="808" on="1"/>
      </contour>
    </TTGlyph>
    <TTGlyph name="braceleft" xMin="50" yMin="-217" xMax="393" yMax="961">
      <contour>
        <pt x="226" y="360" on="0"/>
        <pt x="282" y="286" on="0"/>
        <pt x="282" y="228" on="1"/>
        <pt x="282" y="198" on="0"/>
        <pt x="272" y="140" on="1"/>
        <pt x="268" y="116" on="0"/>
        <pt x="261" y="59" on="0"/>
        <pt x="261" y="32" on="1"/>
        <pt x="261" y="-59" on="0"/>
        <pt x="338" y="-181" on="0"/>
        <pt x="393" y="-206" on="1"/>
        <pt x="393" y="-217" on="1"/>
        <pt x="260" y="-217" on="1"/>
        <pt x="235" y="-204" on="0"/>
        <pt x="177" y="-145" on="0"/>
        <pt x="131" y="-39" on="0"/>
        <pt x="131" y="36" on="1"/>
        <pt x="131" y="71" on="0"/>
        <pt x="141" y="136" on="0"/>
        <pt x="142" y="142" on="1"/>
        <pt x="152" y="202" on="0"/>
        <pt x="152" y="232" on="1"/>
        <pt x="152" y="329" on="0"/>
        <pt x="50" y="346" on="1"/>
        <pt x="50" y="398" on="1"/>
        <pt x="152" y="414" on="0"/>
        <pt x="152" y="512" on="1"/>
        <pt x="152" y="542" on="0"/>
        <pt x="142" y="602" on="1"/>
        <pt x="141" y="608" on="0"/>
        <pt x="131" y="673" on="0"/>
        <pt x="131" y="708" on="1"/>
        <pt x="131" y="783" on="0"/>
        <pt x="177" y="889" on="0"/>
        <pt x="235" y="948" on="0"/>
        <pt x="260" y="961" on="1"/>
        <pt x="393" y="961" on="1"/>
        <pt x="393" y="950" on="1"/>
        <pt x="338" y="925" on="0"/>
        <pt x="261" y="803" on="0"/>
        <pt x="261" y="712" on="1"/>
        <pt x="261" y="685" on="0"/>
        <pt x="268" y="629" on="0"/>
        <pt x="272" y="605" on="1"/>
        <pt x="282" y="547" on="0"/>
        <pt x="282" y="516" on="1"/>
        <pt x="282" y="396" on="0"/>
        <pt x="169" y="373" on="1"/>
        <pt x="169" y="371" on="1"/>
      </contour>
    </TTGlyph>
    <TTGlyph name="braceright" xMin="38" yMin="-217" xMax="379" yMax="961">
      <contour>
        <pt x="149" y="396" on="0"/>
        <pt x="149" y="504" on="1"/>
        <pt x="149" y="531" on="0"/>
        <pt x="157" y="586" on="0"/>
        <pt x="158" y="593" on="1"/>
        <pt x="169" y="652" on="0"/>
        <pt x="169" y="700" on="1"/>
        <pt x="169" y="760" on="0"/>
        <pt x="132" y="863" on="0"/>
        <pt x="72" y="934" on="0"/>
        <pt x="38" y="950" on="1"/>
        <pt x="38" y="961" on="1"/>
        <pt x="169" y="961" on="1"/>
        <pt x="194" y="948" on="0"/>
        <pt x="252" y="889" on="0"/>
        <pt x="298" y="783" on="0"/>
        <pt x="298" y="708" on="1"/>
        <pt x="298" y="673" on="0"/>
        <pt x="288" y="608" on="0"/>
        <pt x="287" y="602" on="1"/>
        <pt x="277" y="542" on="0"/>
        <pt x="277" y="512" on="1"/>
        <pt x="277" y="470" on="0"/>
        <pt x="322" y="405" on="0"/>
        <pt x="379" y="398" on="1"/>
        <pt x="379" y="346" on="1"/>
        <pt x="322" y="340" on="0"/>
        <pt x="277" y="274" on="0"/>
        <pt x="277" y="232" on="1"/>
        <pt x="277" y="202" on="0"/>
        <pt x="287" y="142" on="1"/>
        <pt x="288" y="136" on="0"/>
        <pt x="298" y="71" on="0"/>
        <pt x="298" y="36" on="1"/>
        <pt x="298" y="-39" on="0"/>
        <pt x="252" y="-145" on="0"/>
        <pt x="194" y="-204" on="0"/>
        <pt x="169" y="-217" on="1"/>
        <pt x="38" y="-217" on="1"/>
        <pt x="38" y="-206" on="1"/>
        <pt x="72" y="-190" on="0"/>
        <pt x="132" y="-119" on="0"/>
        <pt x="169" y="-16" on="0"/>
        <pt x="169" y="44" on="1"/>
        <pt x="169" y="93" on="0"/>
        <pt x="158" y="152" on="1"/>
        <pt x="157" y="160" on="0"/>
        <pt x="149" y="214" on="0"/>
        <pt x="149" y="240" on="1"/>
        <pt x="149" y="349" on="0"/>
        <pt x="261" y="371" on="1"/>
        <pt x="261" y="373" on="1"/>
      </contour>
    </TTGlyph>
    <TTGlyph name="bracketleft" xMin="91" yMin="-181" xMax="358" yMax="947">
      <contour>
        <pt x="358" y="947" on="1"/>
        <pt x="358" y="833" on="1"/>
        <pt x="224" y="833" on="1"/>
        <pt x="224" y="-67" on="1"/>
        <pt x="358" y="-67" on="1"/>
        <pt x="358" y="-181" on="1"/>
        <pt x="91" y="-181" on="1"/>
        <pt x="91" y="947" on="1"/>
      </contour>
    </TTGlyph>
    <TTGlyph name="bracketright" xMin="48" yMin="-181" xMax="315" yMax="947">
      <contour>
        <pt x="48" y="-181" on="1"/>
        <pt x="48" y="-67" on="1"/>
        <pt x="183" y="-67" on="1"/>
        <pt x="183" y="833" on="1"/>
        <pt x="48" y="833" on="1"/>
        <pt x="48" y="947" on="1"/>
        <pt x="315" y="947" on="1"/>
        <pt x="315" y="-181" on="1"/>
      </contour>
    </TTGlyph>
    <TTGlyph name="breve" xMin="22" yMin="606" xMax="342" yMax="782">
      <contour>
        <pt x="109" y="606" on="0"/>
        <pt x="22" y="694" on="0"/>
        <pt x="22" y="770" on="1"/>
        <pt x="22" y="782" on="1"/>
        <pt x="92" y="782" on="1"/>
        <pt x="92" y="708" on="0"/>
        <pt x="182" y="708" on="1"/>
        <pt x="272" y="708" on="0"/>
        <pt x="272" y="782" on="1"/>
        <pt x="342" y="782" on="1"/>
        <pt x="342" y="770" on="1"/>
        <pt x="342" y="694" on="0"/>
        <pt x="255" y="606" on="0"/>
        <pt x="182" y="606" on="1"/>
      </contour>
    </TTGlyph>
    <TTGlyph name="brokenbar" xMin="97" yMin="-121" xMax="238" yMax="808">
      <contour>
        <pt x="97" y="808" on="1"/>
        <pt x="238" y="808" on="1"/>
        <pt x="238" y="410" on="1"/>
        <pt x="97" y="410" on="1"/>
      </contour>
      <contour>
        <pt x="238" y="-121" on="1"/>
        <pt x="97" y="-121" on="1"/>
        <pt x="97" y="278" on="1"/>
        <pt x="238" y="278" on="1"/>
      </contour>
    </TTGlyph>
    <TTGlyph name="bullet" xMin="72" yMin="194" xMax="352" yMax="474">
      <contour>
        <pt x="72" y="372" on="0"/>
        <pt x="109" y="437" on="0"/>
        <pt x="174" y="474" on="0"/>
        <pt x="212" y="474" on="1"/>
        <pt x="251" y="474" on="0"/>
        <pt x="315" y="437" on="0"/>
        <pt x="352" y="372" on="0"/>
        <pt x="352" y="333" on="1"/>
        <pt x="352" y="295" on="0"/>
        <pt x="315" y="231" on="0"/>
        <pt x="251" y="194" on="0"/>
        <pt x="212" y="194" on="1"/>
        <pt x="174" y="194" on="0"/>
        <pt x="109" y="231" on="0"/>
        <pt x="72" y="295" on="0"/>
        <pt x="72" y="333" on="1"/>
      </contour>
    </TTGlyph>
    <TTGlyph name="c" xMin="36" yMin="-7" xMax="581" yMax="561">
      <contour>
        <pt x="420" y="561" on="0"/>
        <pt x="563" y="445" on="0"/>
        <pt x="581" y="345" on="1"/>
        <pt x="432" y="345" on="1"/>
        <pt x="423" y="389" on="0"/>
        <pt x="359" y="440" on="0"/>
        <pt x="310" y="440" on="1"/>
        <pt x="254" y="440" on="0"/>
        <pt x="179" y="357" on="0"/>
        <pt x="179" y="277" on="1"/>
        <pt x="179" y="197" on="0"/>
        <pt x="254" y="114" on="0"/>
        <pt x="310" y="114" on="1"/>
        <pt x="359" y="114" on="0"/>
        <pt x="423" y="165" on="0"/>
        <pt x="432" y="209" on="1"/>
        <pt x="581" y="209" on="1"/>
        <pt x="563" y="109" on="0"/>
        <pt x="420" y="-7" on="0"/>
        <pt x="313" y="-7" on="1"/>
        <pt x="232" y="-7" on="0"/>
        <pt x="106" y="62" on="0"/>
        <pt x="36" y="190" on="0"/>
        <pt x="36" y="277" on="1"/>
        <pt x="36" y="364" on="0"/>
        <pt x="106" y="493" on="0"/>
        <pt x="232" y="561" on="0"/>
        <pt x="313" y="561" on="1"/>
      </contour>
    </TTGlyph>
    <TTGlyph name="cacute" xMin="36" yMin="-7" xMax="581" yMax="812">
      <component glyphName="c" x="0" y="0" flags="0x0"/>
      <component glyphName="acute" x="207" y="0" flags="0x0"/>
    </TTGlyph>
    <TTGlyph name="caron" xMin="22" yMin="602" xMax="319" yMax="780">
      <contour>
        <pt x="319" y="685" on="1"/>
        <pt x="171" y="602" on="1"/>
        <pt x="22" y="685" on="1"/>
        <pt x="22" y="780" on="1"/>
        <pt x="171" y="695" on="1"/>
        <pt x="319" y="780" on="1"/>
      </contour>
    </TTGlyph>
    <TTGlyph name="ccaron" xMin="36" yMin="-7" xMax="581" yMax="780">
      <component glyphName="c" x="0" y="0" flags="0x0"/>
      <component glyphName="caron" x="138" y="0" flags="0x0"/>
    </TTGlyph>
    <TTGlyph name="ccedilla" xMin="36" yMin="-264" xMax="581" yMax="561">
      <component glyphName="c" x="0" y="0" flags="0x0"/>
      <component glyphName="cedilla" x="176" y="0" flags="0x0"/>
    </TTGlyph>
    <TTGlyph name="cdotaccent" xMin="36" yMin="-7" xMax="581" yMax="750">
      <component glyphName="c" x="0" y="0" flags="0x0"/>
      <component glyphName="dotaccent" x="220" y="0" flags="0x0"/>
    </TTGlyph>
    <TTGlyph name="cedilla" xMin="22" yMin="-264" xMax="283" yMax="7">
      <contour>
        <pt x="208" y="-50" on="0"/>
        <pt x="283" y="-102" on="0"/>
        <pt x="283" y="-157" on="1"/>
        <pt x="283" y="-211" on="0"/>
        <pt x="207" y="-264" on="0"/>
        <pt x="151" y="-264" on="1"/>
        <pt x="22" y="-264" on="1"/>
        <pt x="22" y="-188" on="1"/>
        <pt x="136" y="-188" on="1"/>
        <pt x="187" y="-188" on="0"/>
        <pt x="187" y="-152" on="1"/>
        <pt x="187" y="-137" on="0"/>
        <pt x="162" y="-119" on="0"/>
        <pt x="136" y="-119" on="1"/>
        <pt x="70" y="-119" on="1"/>
        <pt x="70" y="7" on="1"/>
        <pt x="155" y="7" on="1"/>
        <pt x="155" y="-52" on="1"/>
      </contour>
    </TTGlyph>
    <TTGlyph name="cent" xMin="36" yMin="-87" xMax="547" yMax="603">
      <contour>
        <pt x="344" y="118" on="0"/>
        <pt x="409" y="166" on="0"/>
        <pt x="417" y="208" on="1"/>
        <pt x="547" y="208" on="1"/>
        <pt x="538" y="120" on="0"/>
        <pt x="417" y="13" on="0"/>
        <pt x="327" y="5" on="1"/>
        <pt x="327" y="-87" on="1"/>
        <pt x="265" y="-87" on="1"/>
        <pt x="265" y="6" on="1"/>
        <pt x="160" y="15" on="0"/>
        <pt x="36" y="148" on="0"/>
        <pt x="36" y="260" on="1"/>
        <pt x="36" y="372" on="0"/>
        <pt x="159" y="504" on="0"/>
        <pt x="265" y="513" on="1"/>
        <pt x="265" y="603" on="1"/>
        <pt x="327" y="603" on="1"/>
        <pt x="327" y="514" on="1"/>
        <pt x="417" y="506" on="0"/>
        <pt x="538" y="400" on="0"/>
        <pt x="547" y="312" on="1"/>
        <pt x="417" y="312" on="1"/>
        <pt x="408" y="355" on="0"/>
        <pt x="344" y="402" on="0"/>
        <pt x="301" y="402" on="1"/>
        <pt x="243" y="402" on="0"/>
        <pt x="171" y="328" on="0"/>
        <pt x="171" y="260" on="1"/>
        <pt x="171" y="191" on="0"/>
        <pt x="243" y="118" on="0"/>
        <pt x="301" y="118" on="1"/>
      </contour>
    </TTGlyph>
    <TTGlyph name="circumflex" xMin="22" yMin="603" xMax="319" yMax="781">
      <contour>
        <pt x="171" y="688" on="1"/>
        <pt x="22" y="603" on="1"/>
        <pt x="22" y="698" on="1"/>
        <pt x="171" y="781" on="1"/>
        <pt x="319" y="698" on="1"/>
        <pt x="319" y="603" on="1"/>
      </contour>
    </TTGlyph>
    <TTGlyph name="colon" xMin="50" yMin="0" xMax="202" yMax="563">
      <contour>
        <pt x="202" y="563" on="1"/>
        <pt x="202" y="416" on="1"/>
        <pt x="50" y="416" on="1"/>
        <pt x="50" y="563" on="1"/>
      </contour>
      <contour>
        <pt x="202" y="147" on="1"/>
        <pt x="202" y="0" on="1"/>
        <pt x="50" y="0" on="1"/>
        <pt x="50" y="147" on="1"/>
      </contour>
    </TTGlyph>
    <TTGlyph name="comma" xMin="30" yMin="-160" xMax="177" yMax="91">
      <contour>
        <pt x="177" y="37" on="0"/>
        <pt x="177" y="-18" on="1"/>
        <pt x="177" y="-80" on="0"/>
        <pt x="112" y="-160" on="0"/>
        <pt x="44" y="-160" on="1"/>
        <pt x="44" y="-106" on="1"/>
        <pt x="70" y="-106" on="0"/>
        <pt x="94" y="-81" on="0"/>
        <pt x="94" y="-49" on="1"/>
        <pt x="94" y="-39" on="1"/>
        <pt x="30" y="-39" on="1"/>
        <pt x="30" y="91" on="1"/>
        <pt x="153" y="91" on="1"/>
      </contour>
    </TTGlyph>
    <TTGlyph name="copyright" xMin="42" yMin="-3" xMax="742" yMax="713">
      <contour>
        <pt x="290" y="713" on="0"/>
        <pt x="131" y="622" on="0"/>
        <pt x="42" y="459" on="0"/>
        <pt x="42" y="356" on="1"/>
        <pt x="42" y="252" on="0"/>
        <pt x="131" y="89" on="0"/>
        <pt x="290" y="-3" on="0"/>
        <pt x="392" y="-3" on="1"/>
        <pt x="495" y="-3" on="0"/>
        <pt x="654" y="89" on="0"/>
        <pt x="742" y="252" on="0"/>
        <pt x="742" y="356" on="1"/>
        <pt x="742" y="460" on="0"/>
        <pt x="654" y="622" on="0"/>
        <pt x="495" y="713" on="0"/>
        <pt x="392" y="713" on="1"/>
      </contour>
      <contour>
        <pt x="483" y="667" on="0"/>
        <pt x="619" y="589" on="0"/>
        <pt x="692" y="448" on="0"/>
        <pt x="692" y="356" on="1"/>
        <pt x="692" y="264" on="0"/>
        <pt x="619" y="122" on="0"/>
        <pt x="483" y="43" on="0"/>
        <pt x="392" y="43" on="1"/>
        <pt x="301" y="43" on="0"/>
        <pt x="165" y="122" on="0"/>
        <pt x="92" y="264" on="0"/>
        <pt x="92" y="356" on="1"/>
        <pt x="92" y="448" on="0"/>
        <pt x="165" y="589" on="0"/>
        <pt x="301" y="667" on="0"/>
        <pt x="392" y="667" on="1"/>
      </contour>
      <contour>
        <pt x="474" y="583" on="0"/>
        <pt x="589" y="492" on="0"/>
        <pt x="604" y="413" on="1"/>
        <pt x="486" y="413" on="1"/>
        <pt x="475" y="448" on="0"/>
        <pt x="424" y="488" on="0"/>
        <pt x="390" y="488" on="1"/>
        <pt x="345" y="488" on="0"/>
        <pt x="285" y="419" on="0"/>
        <pt x="285" y="355" on="1"/>
        <pt x="285" y="291" on="0"/>
        <pt x="345" y="222" on="0"/>
        <pt x="390" y="222" on="1"/>
        <pt x="424" y="222" on="0"/>
        <pt x="475" y="262" on="0"/>
        <pt x="486" y="297" on="1"/>
        <pt x="604" y="297" on="1"/>
        <pt x="589" y="218" on="0"/>
        <pt x="474" y="127" on="0"/>
        <pt x="396" y="127" on="1"/>
        <pt x="333" y="127" on="0"/>
        <pt x="232" y="182" on="0"/>
        <pt x="175" y="285" on="0"/>
        <pt x="175" y="355" on="1"/>
        <pt x="175" y="425" on="0"/>
        <pt x="232" y="528" on="0"/>
        <pt x="333" y="583" on="0"/>
        <pt x="396" y="583" on="1"/>
      </contour>
    </TTGlyph>
    <TTGlyph name="currency" xMin="65" yMin="159" xMax="497" yMax="600">
      <contour>
        <pt x="480" y="314" on="0"/>
        <pt x="443" y="267" on="1"/>
        <pt x="497" y="213" on="1"/>
        <pt x="443" y="159" on="1"/>
        <pt x="382" y="219" on="1"/>
        <pt x="339" y="198" on="0"/>
        <pt x="282" y="198" on="1"/>
        <pt x="224" y="198" on="0"/>
        <pt x="180" y="221" on="1"/>
        <pt x="118" y="159" on="1"/>
        <pt x="65" y="213" on="1"/>
        <pt x="121" y="268" on="1"/>
        <pt x="86" y="314" on="0"/>
        <pt x="86" y="378" on="1"/>
        <pt x="86" y="444" on="0"/>
        <pt x="123" y="489" on="1"/>
        <pt x="65" y="546" on="1"/>
        <pt x="118" y="600" on="1"/>
        <pt x="183" y="535" on="1"/>
        <pt x="225" y="556" on="0"/>
        <pt x="282" y="556" on="1"/>
        <pt x="336" y="556" on="0"/>
        <pt x="379" y="536" on="1"/>
        <pt x="443" y="600" on="1"/>
        <pt x="497" y="546" on="1"/>
        <pt x="441" y="491" on="1"/>
        <pt x="480" y="446" on="0"/>
        <pt x="480" y="378" on="1"/>
      </contour>
      <contour>
        <pt x="319" y="281" on="0"/>
        <pt x="370" y="331" on="0"/>
        <pt x="370" y="377" on="1"/>
        <pt x="370" y="423" on="0"/>
        <pt x="319" y="474" on="0"/>
        <pt x="282" y="474" on="1"/>
        <pt x="245" y="474" on="0"/>
        <pt x="196" y="423" on="0"/>
        <pt x="196" y="377" on="1"/>
        <pt x="196" y="331" on="0"/>
        <pt x="245" y="281" on="0"/>
        <pt x="282" y="281" on="1"/>
      </contour>
    </TTGlyph>
    <TTGlyph name="d" xMin="36" yMin="-7" xMax="612" yMax="740">
      <contour>
        <pt x="351" y="561" on="0"/>
        <pt x="450" y="495" on="0"/>
        <pt x="472" y="439" on="1"/>
        <pt x="472" y="740" on="1"/>
        <pt x="612" y="740" on="1"/>
        <pt x="612" y="0" on="1"/>
        <pt x="472" y="0" on="1"/>
        <pt x="472" y="116" on="1"/>
        <pt x="450" y="60" on="0"/>
        <pt x="351" y="-7" on="0"/>
        <pt x="281" y="-7" on="1"/>
        <pt x="211" y="-7" on="0"/>
        <pt x="99" y="61" on="0"/>
        <pt x="36" y="190" on="0"/>
        <pt x="36" y="277" on="1"/>
        <pt x="36" y="364" on="0"/>
        <pt x="99" y="493" on="0"/>
        <pt x="211" y="561" on="0"/>
        <pt x="281" y="561" on="1"/>
      </contour>
      <contour>
        <pt x="259" y="438" on="0"/>
        <pt x="179" y="352" on="0"/>
        <pt x="179" y="277" on="1"/>
        <pt x="179" y="202" on="0"/>
        <pt x="259" y="117" on="0"/>
        <pt x="325" y="117" on="1"/>
        <pt x="389" y="117" on="0"/>
        <pt x="472" y="204" on="0"/>
        <pt x="472" y="277" on="1"/>
        <pt x="472" y="351" on="0"/>
        <pt x="389" y="438" on="0"/>
        <pt x="325" y="438" on="1"/>
      </contour>
    </TTGlyph>
    <TTGlyph name="dagger" xMin="43" yMin="-264" xMax="559" yMax="786">
      <contour>
        <pt x="559" y="447" on="1"/>
        <pt x="357" y="457" on="1"/>
        <pt x="371" y="-264" on="1"/>
        <pt x="231" y="-264" on="1"/>
        <pt x="244" y="457" on="1"/>
        <pt x="43" y="447" on="1"/>
        <pt x="43" y="554" on="1"/>
        <pt x="244" y="544" on="1"/>
        <pt x="231" y="786" on="1"/>
        <pt x="371" y="786" on="1"/>
        <pt x="357" y="544" on="1"/>
        <pt x="559" y="554" on="1"/>
      </contour>
    </TTGlyph>
    <TTGlyph name="daggerdbl" xMin="42" yMin="-264" xMax="560" yMax="786">
      <contour>
        <pt x="357" y="457" on="1"/>
        <pt x="357" y="65" on="1"/>
        <pt x="560" y="77" on="1"/>
        <pt x="560" y="-32" on="1"/>
        <pt x="357" y="-22" on="1"/>
        <pt x="370" y="-264" on="1"/>
        <pt x="230" y="-264" on="1"/>
        <pt x="244" y="-22" on="1"/>
        <pt x="42" y="-32" on="1"/>
        <pt x="42" y="77" on="1"/>
        <pt x="244" y="65" on="1"/>
        <pt x="244" y="457" on="1"/>
        <pt x="42" y="447" on="1"/>
        <pt x="42" y="554" on="1"/>
        <pt x="244" y="544" on="1"/>
        <pt x="230" y="786" on="1"/>
        <pt x="370" y="786" on="1"/>
        <pt x="357" y="544" on="1"/>
        <pt x="560" y="554" on="1"/>
        <pt x="560" y="447" on="1"/>
      </contour>
    </TTGlyph>
    <TTGlyph name="danda" xMin="151" yMin="0" xMax="279" yMax="741">
      <contour>
        <pt x="279" y="0" on="1"/>
        <pt x="151" y="0" on="1"/>
        <pt x="151" y="741" on="1"/>
        <pt x="279" y="741" on="1"/>
      </contour>
    </TTGlyph>
    <TTGlyph name="dcaron" xMin="36" yMin="-7" xMax="804" yMax="740">
      <contour>
        <pt x="351" y="561" on="0"/>
        <pt x="450" y="495" on="0"/>
        <pt x="472" y="439" on="1"/>
        <pt x="472" y="740" on="1"/>
        <pt x="612" y="740" on="1"/>
        <pt x="612" y="0" on="1"/>
        <pt x="472" y="0" on="1"/>
        <pt x="472" y="116" on="1"/>
        <pt x="450" y="60" on="0"/>
        <pt x="351" y="-7" on="0"/>
        <pt x="281" y="-7" on="1"/>
        <pt x="211" y="-7" on="0"/>
        <pt x="99" y="61" on="0"/>
        <pt x="36" y="190" on="0"/>
        <pt x="36" y="277" on="1"/>
        <pt x="36" y="364" on="0"/>
        <pt x="99" y="493" on="0"/>
        <pt x="211" y="561" on="0"/>
        <pt x="281" y="561" on="1"/>
      </contour>
      <contour>
        <pt x="804" y="685" on="0"/>
        <pt x="804" y="632" on="1"/>
        <pt x="804" y="568" on="0"/>
        <pt x="740" y="495" on="0"/>
        <pt x="678" y="495" on="1"/>
        <pt x="678" y="550" on="1"/>
        <pt x="704" y="550" on="0"/>
        <pt x="729" y="580" on="0"/>
        <pt x="729" y="612" on="1"/>
        <pt x="729" y="631" on="1"/>
        <pt x="671" y="631" on="1"/>
        <pt x="671" y="740" on="1"/>
        <pt x="787" y="740" on="1"/>
      </contour>
      <contour>
        <pt x="259" y="438" on="0"/>
        <pt x="179" y="352" on="0"/>
        <pt x="179" y="277" on="1"/>
        <pt x="179" y="202" on="0"/>
        <pt x="259" y="117" on="0"/>
        <pt x="325" y="117" on="1"/>
        <pt x="389" y="117" on="0"/>
        <pt x="472" y="204" on="0"/>
        <pt x="472" y="277" on="1"/>
        <pt x="472" y="351" on="0"/>
        <pt x="389" y="438" on="0"/>
        <pt x="325" y="438" on="1"/>
      </contour>
    </TTGlyph>
    <TTGlyph name="dcroat" xMin="36" yMin="-7" xMax="678" yMax="740">
      <contour>
        <pt x="678" y="615" on="1"/>
        <pt x="612" y="615" on="1"/>
        <pt x="612" y="0" on="1"/>
        <pt x="472" y="0" on="1"/>
        <pt x="472" y="116" on="1"/>
        <pt x="450" y="60" on="0"/>
        <pt x="351" y="-7" on="0"/>
        <pt x="281" y="-7" on="1"/>
        <pt x="211" y="-7" on="0"/>
        <pt x="99" y="61" on="0"/>
        <pt x="36" y="190" on="0"/>
        <pt x="36" y="277" on="1"/>
        <pt x="36" y="364" on="0"/>
        <pt x="99" y="493" on="0"/>
        <pt x="211" y="561" on="0"/>
        <pt x="281" y="561" on="1"/>
        <pt x="351" y="561" on="0"/>
        <pt x="450" y="495" on="0"/>
        <pt x="472" y="439" on="1"/>
        <pt x="472" y="615" on="1"/>
        <pt x="354" y="615" on="1"/>
        <pt x="354" y="680" on="1"/>
        <pt x="472" y="680" on="1"/>
        <pt x="472" y="740" on="1"/>
        <pt x="612" y="740" on="1"/>
        <pt x="612" y="680" on="1"/>
        <pt x="678" y="680" on="1"/>
      </contour>
      <contour>
        <pt x="389" y="117" on="0"/>
        <pt x="472" y="204" on="0"/>
        <pt x="472" y="277" on="1"/>
        <pt x="472" y="351" on="0"/>
        <pt x="389" y="438" on="0"/>
        <pt x="325" y="438" on="1"/>
        <pt x="259" y="438" on="0"/>
        <pt x="179" y="352" on="0"/>
        <pt x="179" y="277" on="1"/>
        <pt x="179" y="202" on="0"/>
        <pt x="259" y="117" on="0"/>
        <pt x="325" y="117" on="1"/>
      </contour>
    </TTGlyph>
    <TTGlyph name="degree" xMin="26" yMin="347" xMax="414" yMax="705">
      <contour>
        <pt x="309" y="705" on="0"/>
        <pt x="414" y="610" on="0"/>
        <pt x="414" y="527" on="1"/>
        <pt x="414" y="445" on="0"/>
        <pt x="311" y="347" on="0"/>
        <pt x="223" y="347" on="1"/>
        <pt x="135" y="347" on="0"/>
        <pt x="26" y="446" on="0"/>
        <pt x="26" y="527" on="1"/>
        <pt x="26" y="610" on="0"/>
        <pt x="132" y="705" on="0"/>
        <pt x="221" y="705" on="1"/>
      </contour>
      <contour>
        <pt x="184" y="629" on="0"/>
        <pt x="135" y="576" on="0"/>
        <pt x="135" y="526" on="1"/>
        <pt x="135" y="477" on="0"/>
        <pt x="186" y="424" on="0"/>
        <pt x="223" y="424" on="1"/>
        <pt x="259" y="424" on="0"/>
        <pt x="305" y="477" on="0"/>
        <pt x="305" y="526" on="1"/>
        <pt x="305" y="576" on="0"/>
        <pt x="258" y="629" on="0"/>
        <pt x="221" y="629" on="1"/>
      </contour>
    </TTGlyph>
    <TTGlyph name="dieresis" xMin="31" yMin="623" xMax="347" yMax="750">
      <contour>
        <pt x="31" y="713" on="0"/>
        <pt x="68" y="750" on="0"/>
        <pt x="94" y="750" on="1"/>
        <pt x="122" y="750" on="0"/>
        <pt x="158" y="713" on="0"/>
        <pt x="158" y="686" on="1"/>
        <pt x="158" y="660" on="0"/>
        <pt x="122" y="623" on="0"/>
        <pt x="94" y="623" on="1"/>
        <pt x="68" y="623" on="0"/>
        <pt x="31" y="660" on="0"/>
        <pt x="31" y="686" on="1"/>
      </contour>
      <contour>
        <pt x="220" y="713" on="0"/>
        <pt x="256" y="750" on="0"/>
        <pt x="283" y="750" on="1"/>
        <pt x="310" y="750" on="0"/>
        <pt x="347" y="713" on="0"/>
        <pt x="347" y="686" on="1"/>
        <pt x="347" y="660" on="0"/>
        <pt x="310" y="623" on="0"/>
        <pt x="283" y="623" on="1"/>
        <pt x="256" y="623" on="0"/>
        <pt x="220" y="660" on="0"/>
        <pt x="220" y="686" on="1"/>
      </contour>
    </TTGlyph>
    <TTGlyph name="divide" xMin="28" yMin="58" xMax="538" yMax="656">
      <contour>
        <pt x="358" y="656" on="1"/>
        <pt x="358" y="509" on="1"/>
        <pt x="206" y="509" on="1"/>
        <pt x="206" y="656" on="1"/>
      </contour>
      <contour>
        <pt x="538" y="420" on="1"/>
        <pt x="538" y="292" on="1"/>
        <pt x="28" y="292" on="1"/>
        <pt x="28" y="420" on="1"/>
      </contour>
      <contour>
        <pt x="358" y="205" on="1"/>
        <pt x="358" y="58" on="1"/>
        <pt x="206" y="58" on="1"/>
        <pt x="206" y="205" on="1"/>
      </contour>
    </TTGlyph>
    <TTGlyph name="dollar" xMin="42" yMin="-87" xMax="573" yMax="800">
      <contour>
        <pt x="349" y="407" on="1"/>
        <pt x="420" y="385" on="0"/>
        <pt x="510" y="343" on="0"/>
        <pt x="573" y="260" on="0"/>
        <pt x="573" y="193" on="1"/>
        <pt x="573" y="139" on="0"/>
        <pt x="517" y="48" on="0"/>
        <pt x="405" y="-7" on="0"/>
        <pt x="325" y="-7" on="1"/>
        <pt x="324" y="-7" on="1"/>
        <pt x="324" y="-87" on="1"/>
        <pt x="286" y="-87" on="1"/>
        <pt x="286" y="-5" on="1"/>
        <pt x="182" y="4" on="0"/>
        <pt x="51" y="115" on="0"/>
        <pt x="44" y="204" on="1"/>
        <pt x="194" y="204" on="1"/>
        <pt x="198" y="168" on="0"/>
        <pt x="246" y="113" on="0"/>
        <pt x="286" y="105" on="1"/>
        <pt x="286" y="301" on="1"/>
        <pt x="266" y="307" on="1"/>
        <pt x="194" y="328" on="0"/>
        <pt x="105" y="369" on="0"/>
        <pt x="42" y="452" on="0"/>
        <pt x="42" y="520" on="1"/>
        <pt x="42" y="579" on="0"/>
        <pt x="105" y="667" on="0"/>
        <pt x="216" y="715" on="0"/>
        <pt x="286" y="716" on="1"/>
        <pt x="286" y="800" on="1"/>
        <pt x="324" y="800" on="1"/>
        <pt x="324" y="715" on="1"/>
        <pt x="428" y="708" on="0"/>
        <pt x="551" y="601" on="0"/>
        <pt x="559" y="518" on="1"/>
        <pt x="407" y="518" on="1"/>
        <pt x="402" y="551" on="0"/>
        <pt x="359" y="598" on="0"/>
        <pt x="324" y="605" on="1"/>
        <pt x="324" y="415" on="1"/>
      </contour>
      <contour>
        <pt x="193" y="490" on="0"/>
        <pt x="241" y="445" on="0"/>
        <pt x="286" y="428" on="1"/>
        <pt x="286" y="608" on="1"/>
        <pt x="242" y="606" on="0"/>
        <pt x="193" y="564" on="0"/>
        <pt x="193" y="526" on="1"/>
      </contour>
      <contour>
        <pt x="370" y="102" on="0"/>
        <pt x="422" y="151" on="0"/>
        <pt x="422" y="190" on="1"/>
        <pt x="422" y="227" on="0"/>
        <pt x="371" y="272" on="0"/>
        <pt x="324" y="288" on="1"/>
        <pt x="324" y="101" on="1"/>
      </contour>
    </TTGlyph>
    <TTGlyph name="dotaccent" xMin="25" yMin="623" xMax="152" yMax="750">
      <contour>
        <pt x="25" y="713" on="0"/>
        <pt x="62" y="750" on="0"/>
        <pt x="88" y="750" on="1"/>
        <pt x="115" y="750" on="0"/>
        <pt x="152" y="713" on="0"/>
        <pt x="152" y="686" on="1"/>
        <pt x="152" y="660" on="0"/>
        <pt x="115" y="623" on="0"/>
        <pt x="88" y="623" on="1"/>
        <pt x="62" y="623" on="0"/>
        <pt x="25" y="660" on="0"/>
        <pt x="25" y="686" on="1"/>
      </contour>
    </TTGlyph>
    <TTGlyph name="dotlessi" xMin="79" yMin="0" xMax="220" yMax="554">
      <contour>
        <pt x="220" y="554" on="1"/>
        <pt x="220" y="0" on="1"/>
        <pt x="79" y="0" on="1"/>
        <pt x="79" y="554" on="1"/>
      </contour>
    </TTGlyph>
    <TTGlyph name="dottedcircle" xMin="50" yMin="-9" xMax="601" yMax="540">
      <contour>
        <pt x="282" y="456" on="0"/>
        <pt x="258" y="479" on="0"/>
        <pt x="258" y="498" on="1"/>
        <pt x="258" y="517" on="0"/>
        <pt x="282" y="540" on="0"/>
        <pt x="301" y="540" on="1"/>
        <pt x="320" y="540" on="0"/>
        <pt x="344" y="517" on="0"/>
        <pt x="344" y="498" on="1"/>
        <pt x="344" y="479" on="0"/>
        <pt x="320" y="456" on="0"/>
        <pt x="301" y="456" on="1"/>
      </contour>
      <contour>
        <pt x="403" y="441" on="0"/>
        <pt x="379" y="464" on="0"/>
        <pt x="379" y="483" on="1"/>
        <pt x="379" y="502" on="0"/>
        <pt x="403" y="525" on="0"/>
        <pt x="422" y="525" on="1"/>
        <pt x="441" y="525" on="0"/>
        <pt x="465" y="502" on="0"/>
        <pt x="465" y="483" on="1"/>
        <pt x="465" y="464" on="0"/>
        <pt x="441" y="441" on="0"/>
        <pt x="422" y="441" on="1"/>
      </contour>
      <contour>
        <pt x="165" y="414" on="0"/>
        <pt x="141" y="437" on="0"/>
        <pt x="141" y="456" on="1"/>
        <pt x="141" y="475" on="0"/>
        <pt x="165" y="498" on="0"/>
        <pt x="184" y="498" on="1"/>
        <pt x="203" y="498" on="0"/>
        <pt x="227" y="475" on="0"/>
        <pt x="227" y="456" on="1"/>
        <pt x="227" y="437" on="0"/>
        <pt x="203" y="414" on="0"/>
        <pt x="184" y="414" on="1"/>
      </contour>
      <contour>
        <pt x="495" y="367" on="0"/>
        <pt x="471" y="390" on="0"/>
        <pt x="471" y="409" on="1"/>
        <pt x="471" y="428" on="0"/>
        <pt x="495" y="451" on="0"/>
        <pt x="514" y="451" on="1"/>
        <pt x="533" y="451" on="0"/>
        <pt x="557" y="428" on="0"/>
        <pt x="557" y="409" on="1"/>
        <pt x="557" y="390" on="0"/>
        <pt x="533" y="367" on="0"/>
        <pt x="514" y="367" on="1"/>
      </contour>
      <contour>
        <pt x="89" y="315" on="0"/>
        <pt x="65" y="338" on="0"/>
        <pt x="65" y="357" on="1"/>
        <pt x="65" y="376" on="0"/>
        <pt x="89" y="399" on="0"/>
        <pt x="108" y="399" on="1"/>
        <pt x="127" y="399" on="0"/>
        <pt x="151" y="376" on="0"/>
        <pt x="151" y="357" on="1"/>
        <pt x="151" y="338" on="0"/>
        <pt x="127" y="315" on="0"/>
        <pt x="108" y="315" on="1"/>
      </contour>
      <contour>
        <pt x="539" y="253" on="0"/>
        <pt x="515" y="276" on="0"/>
        <pt x="515" y="295" on="1"/>
        <pt x="515" y="314" on="0"/>
        <pt x="539" y="337" on="0"/>
        <pt x="558" y="337" on="1"/>
        <pt x="577" y="337" on="0"/>
        <pt x="601" y="314" on="0"/>
        <pt x="601" y="295" on="1"/>
        <pt x="601" y="276" on="0"/>
        <pt x="577" y="253" on="0"/>
        <pt x="558" y="253" on="1"/>
      </contour>
      <contour>
        <pt x="74" y="194" on="0"/>
        <pt x="50" y="217" on="0"/>
        <pt x="50" y="236" on="1"/>
        <pt x="50" y="255" on="0"/>
        <pt x="74" y="278" on="0"/>
        <pt x="93" y="278" on="1"/>
        <pt x="112" y="278" on="0"/>
        <pt x="136" y="255" on="0"/>
        <pt x="136" y="236" on="1"/>
        <pt x="136" y="217" on="0"/>
        <pt x="112" y="194" on="0"/>
        <pt x="93" y="194" on="1"/>
      </contour>
      <contour>
        <pt x="529" y="133" on="0"/>
        <pt x="505" y="156" on="0"/>
        <pt x="505" y="175" on="1"/>
        <pt x="505" y="194" on="0"/>
        <pt x="529" y="217" on="0"/>
        <pt x="548" y="217" on="1"/>
        <pt x="567" y="217" on="0"/>
        <pt x="591" y="194" on="0"/>
        <pt x="591" y="175" on="1"/>
        <pt x="591" y="156" on="0"/>
        <pt x="567" y="133" on="0"/>
        <pt x="548" y="133" on="1"/>
      </contour>
      <contour>
        <pt x="119" y="81" on="0"/>
        <pt x="95" y="104" on="0"/>
        <pt x="95" y="123" on="1"/>
        <pt x="95" y="142" on="0"/>
        <pt x="119" y="165" on="0"/>
        <pt x="138" y="165" on="1"/>
        <pt x="157" y="165" on="0"/>
        <pt x="181" y="142" on="0"/>
        <pt x="181" y="123" on="1"/>
        <pt x="181" y="104" on="0"/>
        <pt x="157" y="81" on="0"/>
        <pt x="138" y="81" on="1"/>
      </contour>
      <contour>
        <pt x="456" y="37" on="0"/>
        <pt x="432" y="60" on="0"/>
        <pt x="432" y="79" on="1"/>
        <pt x="432" y="98" on="0"/>
        <pt x="456" y="121" on="0"/>
        <pt x="475" y="121" on="1"/>
        <pt x="494" y="121" on="0"/>
        <pt x="518" y="98" on="0"/>
        <pt x="518" y="79" on="1"/>
        <pt x="518" y="60" on="0"/>
        <pt x="494" y="37" on="0"/>
        <pt x="475" y="37" on="1"/>
      </contour>
      <contour>
        <pt x="217" y="5" on="0"/>
        <pt x="193" y="28" on="0"/>
        <pt x="193" y="47" on="1"/>
        <pt x="193" y="66" on="0"/>
        <pt x="217" y="89" on="0"/>
        <pt x="236" y="89" on="1"/>
        <pt x="255" y="89" on="0"/>
        <pt x="279" y="66" on="0"/>
        <pt x="279" y="47" on="1"/>
        <pt x="279" y="28" on="0"/>
        <pt x="255" y="5" on="0"/>
        <pt x="236" y="5" on="1"/>
      </contour>
      <contour>
        <pt x="341" y="-9" on="0"/>
        <pt x="317" y="14" on="0"/>
        <pt x="317" y="33" on="1"/>
        <pt x="317" y="52" on="0"/>
        <pt x="341" y="75" on="0"/>
        <pt x="360" y="75" on="1"/>
        <pt x="379" y="75" on="0"/>
        <pt x="403" y="52" on="0"/>
        <pt x="403" y="33" on="1"/>
        <pt x="403" y="14" on="0"/>
        <pt x="379" y="-9" on="0"/>
        <pt x="360" y="-9" on="1"/>
      </contour>
    </TTGlyph>
    <TTGlyph name="doubledanda" xMin="151" yMin="0" xMax="528" yMax="741">
      <contour>
        <pt x="279" y="0" on="1"/>
        <pt x="151" y="0" on="1"/>
        <pt x="151" y="741" on="1"/>
        <pt x="279" y="741" on="1"/>
      </contour>
      <contour>
        <pt x="528" y="0" on="1"/>
        <pt x="399" y="0" on="1"/>
        <pt x="399" y="741" on="1"/>
        <pt x="528" y="741" on="1"/>
      </contour>
    </TTGlyph>
    <TTGlyph name="dvA" xMin="65" yMin="0" xMax="855" yMax="749">
      <contour>
        <pt x="855" y="740" on="1"/>
        <pt x="855" y="632" on="1"/>
        <pt x="744" y="632" on="1"/>
        <pt x="744" y="0" on="1"/>
        <pt x="615" y="0" on="1"/>
        <pt x="615" y="287" on="1"/>
        <pt x="498" y="288" on="1"/>
        <pt x="501" y="269" on="0"/>
        <pt x="501" y="251" on="1"/>
        <pt x="501" y="162" on="0"/>
        <pt x="388" y="57" on="0"/>
        <pt x="295" y="57" on="1"/>
        <pt x="227" y="57" on="0"/>
        <pt x="123" y="109" on="0"/>
        <pt x="65" y="204" on="0"/>
        <pt x="65" y="265" on="1"/>
        <pt x="186" y="265" on="1"/>
        <pt x="186" y="223" on="0"/>
        <pt x="242" y="168" on="0"/>
        <pt x="287" y="168" on="1"/>
        <pt x="332" y="168" on="0"/>
        <pt x="384" y="221" on="0"/>
        <pt x="384" y="263" on="1"/>
        <pt x="384" y="304" on="0"/>
        <pt x="328" y="361" on="0"/>
        <pt x="273" y="361" on="1"/>
        <pt x="230" y="361" on="1"/>
        <pt x="230" y="465" on="1"/>
        <pt x="273" y="465" on="1"/>
        <pt x="321" y="465" on="0"/>
        <pt x="375" y="515" on="0"/>
        <pt x="375" y="551" on="1"/>
        <pt x="375" y="592" on="0"/>
        <pt x="324" y="639" on="0"/>
        <pt x="285" y="639" on="1"/>
        <pt x="244" y="639" on="0"/>
        <pt x="191" y="592" on="0"/>
        <pt x="191" y="554" on="1"/>
        <pt x="72" y="554" on="1"/>
        <pt x="72" y="612" on="0"/>
        <pt x="126" y="701" on="0"/>
        <pt x="222" y="749" on="0"/>
        <pt x="285" y="749" on="1"/>
        <pt x="377" y="749" on="0"/>
        <pt x="490" y="651" on="0"/>
        <pt x="490" y="569" on="1"/>
        <pt x="490" y="513" on="0"/>
        <pt x="432" y="434" on="0"/>
        <pt x="379" y="418" on="1"/>
        <pt x="379" y="415" on="1"/>
        <pt x="404" y="410" on="0"/>
        <pt x="430" y="394" on="1"/>
        <pt x="615" y="394" on="1"/>
        <pt x="615" y="740" on="1"/>
      </contour>
    </TTGlyph>
    <TTGlyph name="dvAA" xMin="65" yMin="0" xMax="1164" yMax="749">
      <component glyphName="dvA" x="0" y="0" flags="0x0"/>
      <component glyphName="dvmAA" x="834" y="0" flags="0x0"/>
    </TTGlyph>
    <TTGlyph name="dvAI" xMin="-21" yMin="19" xMax="673" yMax="993">
      <component glyphName="dvE" x="0" y="0" flags="0x0"/>
      <component glyphName="dvmE" x="663" y="0" flags="0x0"/>
    </TTGlyph>
    <TTGlyph name="dvAU" xMin="65" yMin="0" xMax="1164" yMax="1060">
      <component glyphName="dvmAI" x="1140" y="0" flags="0x0"/>
      <component glyphName="dvA" x="0" y="0" flags="0x0"/>
      <component glyphName="dvmAA" x="834" y="0" flags="0x0"/>
    </TTGlyph>
    <TTGlyph name="dvAbbreviationsign" xMin="72" yMin="176" xMax="411" yMax="506">
      <contour>
        <pt x="411" y="268" on="0"/>
        <pt x="317" y="176" on="0"/>
        <pt x="243" y="176" on="1"/>
        <pt x="168" y="176" on="0"/>
        <pt x="72" y="268" on="0"/>
        <pt x="72" y="341" on="1"/>
        <pt x="72" y="414" on="0"/>
        <pt x="168" y="506" on="0"/>
        <pt x="243" y="506" on="1"/>
        <pt x="317" y="506" on="0"/>
        <pt x="411" y="413" on="0"/>
        <pt x="411" y="340" on="1"/>
      </contour>
      <contour>
        <pt x="151" y="302" on="0"/>
        <pt x="203" y="254" on="0"/>
        <pt x="243" y="254" on="1"/>
        <pt x="281" y="254" on="0"/>
        <pt x="331" y="302" on="0"/>
        <pt x="331" y="340" on="1"/>
        <pt x="331" y="379" on="0"/>
        <pt x="281" y="429" on="0"/>
        <pt x="243" y="429" on="1"/>
        <pt x="203" y="429" on="0"/>
        <pt x="151" y="379" on="0"/>
        <pt x="151" y="341" on="1"/>
      </contour>
    </TTGlyph>
    <TTGlyph name="dvAcandra" xMin="65" yMin="0" xMax="913" yMax="1028">
      <component glyphName="dvA" x="0" y="0" flags="0x0"/>
      <component glyphName="dvmEcandra" x="849" y="16" flags="0x4"/>
    </TTGlyph>
    <TTGlyph name="dvAnusvara" xMin="-234" yMin="821" xMax="-77" yMax="977">
      <contour>
        <pt x="-189" y="821" on="0"/>
        <pt x="-234" y="867" on="0"/>
        <pt x="-234" y="899" on="1"/>
        <pt x="-234" y="932" on="0"/>
        <pt x="-189" y="977" on="0"/>
        <pt x="-156" y="977" on="1"/>
        <pt x="-123" y="977" on="0"/>
        <pt x="-77" y="932" on="0"/>
        <pt x="-77" y="899" on="1"/>
        <pt x="-77" y="867" on="0"/>
        <pt x="-123" y="821" on="0"/>
        <pt x="-156" y="821" on="1"/>
      </contour>
    </TTGlyph>
    <TTGlyph name="dvAnusvara.amI" xMin="51" yMin="821" xMax="208" yMax="977">
      <component glyphName="dvAnusvara" x="285" y="0" flags="0x0"/>
    </TTGlyph>
    <TTGlyph name="dvAvagraha" xMin="64" yMin="52" xMax="506" yMax="672">
      <contour>
        <pt x="64" y="161" on="1"/>
        <pt x="299" y="161" on="1"/>
        <pt x="330" y="161" on="0"/>
        <pt x="363" y="187" on="0"/>
        <pt x="363" y="209" on="1"/>
        <pt x="363" y="235" on="0"/>
        <pt x="319" y="283" on="0"/>
        <pt x="272" y="320" on="1"/>
        <pt x="226" y="357" on="0"/>
        <pt x="167" y="414" on="0"/>
        <pt x="125" y="492" on="0"/>
        <pt x="125" y="537" on="1"/>
        <pt x="125" y="604" on="0"/>
        <pt x="214" y="672" on="0"/>
        <pt x="287" y="672" on="1"/>
        <pt x="506" y="672" on="1"/>
        <pt x="506" y="563" on="1"/>
        <pt x="319" y="563" on="1"/>
        <pt x="257" y="563" on="0"/>
        <pt x="257" y="518" on="1"/>
        <pt x="257" y="492" on="0"/>
        <pt x="303" y="442" on="0"/>
        <pt x="349" y="406" on="1"/>
        <pt x="395" y="369" on="0"/>
        <pt x="453" y="312" on="0"/>
        <pt x="495" y="235" on="0"/>
        <pt x="495" y="190" on="1"/>
        <pt x="495" y="127" on="0"/>
        <pt x="406" y="52" on="0"/>
        <pt x="331" y="52" on="1"/>
        <pt x="64" y="52" on="1"/>
      </contour>
    </TTGlyph>
    <TTGlyph name="dvB" xMin="-21" yMin="71" xMax="580" yMax="740">
      <contour>
        <pt x="580" y="740" on="1"/>
        <pt x="580" y="632" on="1"/>
        <pt x="-21" y="632" on="1"/>
        <pt x="-21" y="740" on="1"/>
      </contour>
      <contour>
        <pt x="404" y="553" on="0"/>
        <pt x="520" y="486" on="0"/>
        <pt x="577" y="377" on="0"/>
        <pt x="577" y="315" on="1"/>
        <pt x="577" y="248" on="0"/>
        <pt x="518" y="137" on="0"/>
        <pt x="402" y="71" on="0"/>
        <pt x="320" y="71" on="1"/>
        <pt x="241" y="71" on="0"/>
        <pt x="123" y="133" on="0"/>
        <pt x="59" y="244" on="0"/>
        <pt x="59" y="314" on="1"/>
        <pt x="59" y="383" on="0"/>
        <pt x="122" y="492" on="0"/>
        <pt x="240" y="553" on="0"/>
        <pt x="319" y="553" on="1"/>
      </contour>
      <contour>
        <pt x="264" y="464" on="0"/>
        <pt x="221" y="429" on="1"/>
        <pt x="458" y="237" on="1"/>
        <pt x="476" y="272" on="0"/>
        <pt x="476" y="311" on="1"/>
        <pt x="476" y="351" on="0"/>
        <pt x="440" y="422" on="0"/>
        <pt x="370" y="464" on="0"/>
        <pt x="322" y="464" on="1"/>
      </contour>
      <contour>
        <pt x="167" y="265" on="0"/>
        <pt x="210" y="196" on="0"/>
        <pt x="281" y="160" on="0"/>
        <pt x="323" y="160" on="1"/>
        <pt x="382" y="160" on="0"/>
        <pt x="424" y="195" on="1"/>
        <pt x="185" y="386" on="1"/>
        <pt x="167" y="350" on="0"/>
        <pt x="167" y="310" on="1"/>
      </contour>
    </TTGlyph>
    <TTGlyph name="dvBA" xMin="-21" yMin="0" xMax="709" yMax="740">
      <contour>
        <pt x="709" y="740" on="1"/>
        <pt x="709" y="632" on="1"/>
        <pt x="598" y="632" on="1"/>
        <pt x="598" y="0" on="1"/>
        <pt x="474" y="0" on="1"/>
        <pt x="474" y="152" on="1"/>
        <pt x="449" y="114" on="0"/>
        <pt x="360" y="71" on="0"/>
        <pt x="302" y="71" on="1"/>
        <pt x="234" y="71" on="0"/>
        <pt x="123" y="132" on="0"/>
        <pt x="59" y="243" on="0"/>
        <pt x="59" y="314" on="1"/>
        <pt x="59" y="384" on="0"/>
        <pt x="122" y="492" on="0"/>
        <pt x="232" y="552" on="0"/>
        <pt x="301" y="552" on="1"/>
        <pt x="358" y="552" on="0"/>
        <pt x="445" y="510" on="0"/>
        <pt x="474" y="474" on="1"/>
        <pt x="474" y="632" on="1"/>
        <pt x="-21" y="632" on="1"/>
        <pt x="-21" y="740" on="1"/>
      </contour>
      <contour>
        <pt x="269" y="468" on="0"/>
        <pt x="226" y="433" on="1"/>
        <pt x="464" y="242" on="1"/>
        <pt x="481" y="278" on="0"/>
        <pt x="481" y="315" on="1"/>
        <pt x="481" y="355" on="0"/>
        <pt x="445" y="425" on="0"/>
        <pt x="376" y="468" on="0"/>
        <pt x="328" y="468" on="1"/>
      </contour>
      <contour>
        <pt x="172" y="268" on="0"/>
        <pt x="214" y="200" on="0"/>
        <pt x="286" y="164" on="0"/>
        <pt x="329" y="164" on="1"/>
        <pt x="390" y="164" on="0"/>
        <pt x="429" y="198" on="1"/>
        <pt x="190" y="390" on="1"/>
        <pt x="172" y="354" on="0"/>
        <pt x="172" y="314" on="1"/>
      </contour>
    </TTGlyph>
    <TTGlyph name="dvBH" xMin="63" yMin="76" xMax="672" yMax="749">
      <contour>
        <pt x="672" y="355" on="1"/>
        <pt x="472" y="355" on="1"/>
        <pt x="472" y="296" on="1"/>
        <pt x="472" y="191" on="0"/>
        <pt x="368" y="76" on="0"/>
        <pt x="270" y="76" on="1"/>
        <pt x="209" y="76" on="0"/>
        <pt x="115" y="124" on="0"/>
        <pt x="63" y="212" on="0"/>
        <pt x="63" y="269" on="1"/>
        <pt x="63" y="361" on="0"/>
        <pt x="183" y="461" on="0"/>
        <pt x="277" y="461" on="1"/>
        <pt x="351" y="461" on="1"/>
        <pt x="351" y="543" on="1"/>
        <pt x="351" y="588" on="0"/>
        <pt x="317" y="638" on="0"/>
        <pt x="282" y="638" on="1"/>
        <pt x="252" y="638" on="0"/>
        <pt x="214" y="595" on="0"/>
        <pt x="214" y="559" on="1"/>
        <pt x="214" y="541" on="0"/>
        <pt x="218" y="525" on="1"/>
        <pt x="88" y="525" on="1"/>
        <pt x="84" y="549" on="0"/>
        <pt x="84" y="564" on="1"/>
        <pt x="84" y="647" on="0"/>
        <pt x="185" y="749" on="0"/>
        <pt x="278" y="749" on="1"/>
        <pt x="380" y="749" on="0"/>
        <pt x="472" y="625" on="0"/>
        <pt x="472" y="520" on="1"/>
        <pt x="472" y="461" on="1"/>
        <pt x="672" y="461" on="1"/>
      </contour>
      <contour>
        <pt x="351" y="355" on="1"/>
        <pt x="280" y="355" on="1"/>
        <pt x="237" y="355" on="0"/>
        <pt x="183" y="309" on="0"/>
        <pt x="183" y="270" on="1"/>
        <pt x="183" y="231" on="0"/>
        <pt x="231" y="186" on="0"/>
        <pt x="268" y="186" on="1"/>
        <pt x="308" y="186" on="0"/>
        <pt x="351" y="241" on="0"/>
        <pt x="351" y="289" on="1"/>
      </contour>
    </TTGlyph>
    <TTGlyph name="dvBHA" xMin="63" yMin="0" xMax="852" yMax="749">
      <contour>
        <pt x="852" y="740" on="1"/>
        <pt x="852" y="632" on="1"/>
        <pt x="740" y="632" on="1"/>
        <pt x="740" y="0" on="1"/>
        <pt x="611" y="0" on="1"/>
        <pt x="611" y="355" on="1"/>
        <pt x="472" y="355" on="1"/>
        <pt x="472" y="296" on="1"/>
        <pt x="472" y="191" on="0"/>
        <pt x="368" y="76" on="0"/>
        <pt x="270" y="76" on="1"/>
        <pt x="209" y="76" on="0"/>
        <pt x="115" y="124" on="0"/>
        <pt x="63" y="212" on="0"/>
        <pt x="63" y="269" on="1"/>
        <pt x="63" y="361" on="0"/>
        <pt x="183" y="461" on="0"/>
        <pt x="277" y="461" on="1"/>
        <pt x="351" y="461" on="1"/>
        <pt x="351" y="543" on="1"/>
        <pt x="351" y="588" on="0"/>
        <pt x="317" y="638" on="0"/>
        <pt x="282" y="638" on="1"/>
        <pt x="252" y="638" on="0"/>
        <pt x="214" y="595" on="0"/>
        <pt x="214" y="559" on="1"/>
        <pt x="214" y="541" on="0"/>
        <pt x="218" y="525" on="1"/>
        <pt x="88" y="525" on="1"/>
        <pt x="84" y="549" on="0"/>
        <pt x="84" y="564" on="1"/>
        <pt x="84" y="647" on="0"/>
        <pt x="185" y="749" on="0"/>
        <pt x="278" y="749" on="1"/>
        <pt x="380" y="749" on="0"/>
        <pt x="472" y="625" on="0"/>
        <pt x="472" y="520" on="1"/>
        <pt x="472" y="461" on="1"/>
        <pt x="611" y="461" on="1"/>
        <pt x="611" y="740" on="1"/>
      </contour>
      <contour>
        <pt x="351" y="355" on="1"/>
        <pt x="280" y="355" on="1"/>
        <pt x="237" y="355" on="0"/>
        <pt x="183" y="309" on="0"/>
        <pt x="183" y="270" on="1"/>
        <pt x="183" y="231" on="0"/>
        <pt x="231" y="186" on="0"/>
        <pt x="268" y="186" on="1"/>
        <pt x="308" y="186" on="0"/>
        <pt x="351" y="241" on="0"/>
        <pt x="351" y="289" on="1"/>
      </contour>
    </TTGlyph>
    <TTGlyph name="dvBH_LA" xMin="63" yMin="45" xMax="1461" yMax="749">
      <contour>
        <pt x="1247" y="632" on="1"/>
        <pt x="1247" y="517" on="1"/>
        <pt x="1308" y="494" on="0"/>
        <pt x="1381" y="379" on="0"/>
        <pt x="1381" y="295" on="1"/>
        <pt x="1381" y="222" on="0"/>
        <pt x="1323" y="109" on="0"/>
        <pt x="1210" y="45" on="0"/>
        <pt x="1130" y="45" on="1"/>
        <pt x="1110" y="45" on="0"/>
        <pt x="1096" y="46" on="1"/>
        <pt x="1096" y="159" on="1"/>
        <pt x="1124" y="157" on="1"/>
        <pt x="1183" y="157" on="0"/>
        <pt x="1250" y="231" on="0"/>
        <pt x="1250" y="293" on="1"/>
        <pt x="1250" y="348" on="0"/>
        <pt x="1196" y="417" on="0"/>
        <pt x="1146" y="417" on="1"/>
        <pt x="1092" y="417" on="0"/>
        <pt x="1039" y="339" on="0"/>
        <pt x="1039" y="275" on="1"/>
        <pt x="1039" y="254" on="1"/>
        <pt x="932" y="254" on="1"/>
        <pt x="932" y="275" on="1"/>
        <pt x="932" y="338" on="0"/>
        <pt x="880" y="417" on="0"/>
        <pt x="829" y="417" on="1"/>
        <pt x="777" y="417" on="0"/>
        <pt x="721" y="349" on="0"/>
        <pt x="721" y="293" on="1"/>
        <pt x="721" y="231" on="0"/>
        <pt x="788" y="157" on="0"/>
        <pt x="847" y="157" on="1"/>
        <pt x="875" y="159" on="1"/>
        <pt x="875" y="46" on="1"/>
        <pt x="861" y="45" on="0"/>
        <pt x="841" y="45" on="1"/>
        <pt x="761" y="45" on="0"/>
        <pt x="648" y="109" on="0"/>
        <pt x="590" y="222" on="0"/>
        <pt x="590" y="295" on="1"/>
        <pt x="590" y="323" on="0"/>
        <pt x="595" y="355" on="1"/>
        <pt x="472" y="355" on="1"/>
        <pt x="472" y="296" on="1"/>
        <pt x="472" y="191" on="0"/>
        <pt x="368" y="76" on="0"/>
        <pt x="270" y="76" on="1"/>
        <pt x="209" y="76" on="0"/>
        <pt x="115" y="124" on="0"/>
        <pt x="63" y="212" on="0"/>
        <pt x="63" y="269" on="1"/>
        <pt x="63" y="361" on="0"/>
        <pt x="183" y="461" on="0"/>
        <pt x="277" y="461" on="1"/>
        <pt x="351" y="461" on="1"/>
        <pt x="351" y="543" on="1"/>
        <pt x="351" y="588" on="0"/>
        <pt x="317" y="638" on="0"/>
        <pt x="282" y="638" on="1"/>
        <pt x="252" y="638" on="0"/>
        <pt x="214" y="595" on="0"/>
        <pt x="214" y="559" on="1"/>
        <pt x="214" y="541" on="0"/>
        <pt x="218" y="525" on="1"/>
        <pt x="88" y="525" on="1"/>
        <pt x="84" y="549" on="0"/>
        <pt x="84" y="564" on="1"/>
        <pt x="84" y="647" on="0"/>
        <pt x="185" y="749" on="0"/>
        <pt x="278" y="749" on="1"/>
        <pt x="380" y="749" on="0"/>
        <pt x="472" y="625" on="0"/>
        <pt x="472" y="520" on="1"/>
        <pt x="472" y="461" on="1"/>
        <pt x="645" y="461" on="1"/>
        <pt x="675" y="495" on="0"/>
        <pt x="760" y="531" on="0"/>
        <pt x="810" y="531" on="1"/>
        <pt x="880" y="531" on="0"/>
        <pt x="964" y="461" on="0"/>
        <pt x="984" y="406" on="1"/>
        <pt x="987" y="406" on="1"/>
        <pt x="1003" y="451" on="0"/>
        <pt x="1069" y="516" on="0"/>
        <pt x="1121" y="527" on="1"/>
        <pt x="1121" y="632" on="1"/>
        <pt x="575" y="632" on="1"/>
        <pt x="575" y="740" on="1"/>
        <pt x="1461" y="740" on="1"/>
        <pt x="1461" y="632" on="1"/>
      </contour>
      <contour>
        <pt x="351" y="355" on="1"/>
        <pt x="280" y="355" on="1"/>
        <pt x="237" y="355" on="0"/>
        <pt x="183" y="309" on="0"/>
        <pt x="183" y="270" on="1"/>
        <pt x="183" y="231" on="0"/>
        <pt x="231" y="186" on="0"/>
        <pt x="268" y="186" on="1"/>
        <pt x="308" y="186" on="0"/>
        <pt x="351" y="241" on="0"/>
        <pt x="351" y="289" on="1"/>
      </contour>
    </TTGlyph>
    <TTGlyph name="dvBH_NA" xMin="63" yMin="0" xMax="1365" yMax="749">
      <contour>
        <pt x="1365" y="632" on="1"/>
        <pt x="1254" y="632" on="1"/>
        <pt x="1254" y="0" on="1"/>
        <pt x="1125" y="0" on="1"/>
        <pt x="1125" y="392" on="1"/>
        <pt x="973" y="392" on="1"/>
        <pt x="1009" y="342" on="0"/>
        <pt x="1009" y="277" on="1"/>
        <pt x="1009" y="217" on="0"/>
        <pt x="955" y="131" on="0"/>
        <pt x="862" y="87" on="0"/>
        <pt x="806" y="87" on="1"/>
        <pt x="746" y="87" on="0"/>
        <pt x="648" y="137" on="0"/>
        <pt x="590" y="230" on="0"/>
        <pt x="590" y="293" on="1"/>
        <pt x="590" y="325" on="0"/>
        <pt x="598" y="355" on="1"/>
        <pt x="472" y="355" on="1"/>
        <pt x="472" y="296" on="1"/>
        <pt x="472" y="191" on="0"/>
        <pt x="368" y="76" on="0"/>
        <pt x="270" y="76" on="1"/>
        <pt x="209" y="76" on="0"/>
        <pt x="115" y="124" on="0"/>
        <pt x="63" y="212" on="0"/>
        <pt x="63" y="269" on="1"/>
        <pt x="63" y="361" on="0"/>
        <pt x="183" y="461" on="0"/>
        <pt x="277" y="461" on="1"/>
        <pt x="351" y="461" on="1"/>
        <pt x="351" y="543" on="1"/>
        <pt x="351" y="588" on="0"/>
        <pt x="317" y="638" on="0"/>
        <pt x="282" y="638" on="1"/>
        <pt x="252" y="638" on="0"/>
        <pt x="214" y="595" on="0"/>
        <pt x="214" y="559" on="1"/>
        <pt x="214" y="541" on="0"/>
        <pt x="218" y="525" on="1"/>
        <pt x="88" y="525" on="1"/>
        <pt x="84" y="549" on="0"/>
        <pt x="84" y="564" on="1"/>
        <pt x="84" y="647" on="0"/>
        <pt x="185" y="749" on="0"/>
        <pt x="278" y="749" on="1"/>
        <pt x="380" y="749" on="0"/>
        <pt x="472" y="625" on="0"/>
        <pt x="472" y="520" on="1"/>
        <pt x="472" y="461" on="1"/>
        <pt x="675" y="461" on="1"/>
        <pt x="734" y="499" on="0"/>
        <pt x="816" y="499" on="1"/>
        <pt x="1125" y="499" on="1"/>
        <pt x="1125" y="632" on="1"/>
        <pt x="590" y="632" on="1"/>
        <pt x="590" y="740" on="1"/>
        <pt x="1365" y="740" on="1"/>
      </contour>
      <contour>
        <pt x="851" y="196" on="0"/>
        <pt x="907" y="251" on="0"/>
        <pt x="907" y="294" on="1"/>
        <pt x="907" y="336" on="0"/>
        <pt x="851" y="391" on="0"/>
        <pt x="808" y="391" on="1"/>
        <pt x="763" y="391" on="0"/>
        <pt x="706" y="336" on="0"/>
        <pt x="706" y="293" on="1"/>
        <pt x="706" y="250" on="0"/>
        <pt x="762" y="196" on="0"/>
        <pt x="808" y="196" on="1"/>
      </contour>
      <contour>
        <pt x="351" y="355" on="1"/>
        <pt x="280" y="355" on="1"/>
        <pt x="237" y="355" on="0"/>
        <pt x="183" y="309" on="0"/>
        <pt x="183" y="270" on="1"/>
        <pt x="183" y="231" on="0"/>
        <pt x="231" y="186" on="0"/>
        <pt x="268" y="186" on="1"/>
        <pt x="308" y="186" on="0"/>
        <pt x="351" y="241" on="0"/>
        <pt x="351" y="289" on="1"/>
      </contour>
    </TTGlyph>
    <TTGlyph name="dvBH_R" xMin="63" yMin="-83" xMax="673" yMax="749">
      <contour>
        <pt x="673" y="465" on="1"/>
        <pt x="673" y="362" on="1"/>
        <pt x="470" y="362" on="1"/>
        <pt x="470" y="316" on="1"/>
        <pt x="470" y="216" on="0"/>
        <pt x="364" y="98" on="0"/>
        <pt x="269" y="98" on="1"/>
        <pt x="208" y="98" on="0"/>
        <pt x="115" y="144" on="0"/>
        <pt x="63" y="227" on="0"/>
        <pt x="63" y="281" on="1"/>
        <pt x="63" y="370" on="0"/>
        <pt x="183" y="465" on="0"/>
        <pt x="277" y="465" on="1"/>
        <pt x="353" y="465" on="1"/>
        <pt x="353" y="543" on="1"/>
        <pt x="353" y="588" on="0"/>
        <pt x="318" y="639" on="0"/>
        <pt x="281" y="639" on="1"/>
        <pt x="249" y="639" on="0"/>
        <pt x="211" y="596" on="0"/>
        <pt x="211" y="560" on="1"/>
        <pt x="211" y="545" on="0"/>
        <pt x="214" y="527" on="1"/>
        <pt x="88" y="527" on="1"/>
        <pt x="84" y="553" on="0"/>
        <pt x="84" y="567" on="1"/>
        <pt x="84" y="648" on="0"/>
        <pt x="185" y="749" on="0"/>
        <pt x="278" y="749" on="1"/>
        <pt x="379" y="749" on="0"/>
        <pt x="470" y="625" on="0"/>
        <pt x="470" y="520" on="1"/>
        <pt x="470" y="465" on="1"/>
      </contour>
      <contour>
        <pt x="353" y="362" on="1"/>
        <pt x="277" y="362" on="1"/>
        <pt x="235" y="362" on="0"/>
        <pt x="182" y="319" on="0"/>
        <pt x="182" y="281" on="1"/>
        <pt x="182" y="246" on="0"/>
        <pt x="231" y="204" on="0"/>
        <pt x="268" y="204" on="1"/>
        <pt x="309" y="204" on="0"/>
        <pt x="353" y="260" on="0"/>
        <pt x="353" y="309" on="1"/>
      </contour>
      <contour>
        <pt x="271" y="-83" on="1"/>
        <pt x="673" y="297" on="1"/>
        <pt x="673" y="178" on="1"/>
        <pt x="413" y="-83" on="1"/>
      </contour>
    </TTGlyph>
    <TTGlyph name="dvBH_RA" xMin="63" yMin="-83" xMax="872" yMax="749">
      <contour>
        <pt x="872" y="740" on="1"/>
        <pt x="872" y="632" on="1"/>
        <pt x="760" y="632" on="1"/>
        <pt x="760" y="0" on="1"/>
        <pt x="644" y="0" on="1"/>
        <pt x="644" y="149" on="1"/>
        <pt x="413" y="-83" on="1"/>
        <pt x="271" y="-83" on="1"/>
        <pt x="637" y="264" on="1"/>
        <pt x="637" y="362" on="1"/>
        <pt x="470" y="362" on="1"/>
        <pt x="470" y="316" on="1"/>
        <pt x="470" y="216" on="0"/>
        <pt x="364" y="98" on="0"/>
        <pt x="269" y="98" on="1"/>
        <pt x="208" y="98" on="0"/>
        <pt x="115" y="144" on="0"/>
        <pt x="63" y="227" on="0"/>
        <pt x="63" y="281" on="1"/>
        <pt x="63" y="370" on="0"/>
        <pt x="183" y="465" on="0"/>
        <pt x="277" y="465" on="1"/>
        <pt x="353" y="465" on="1"/>
        <pt x="353" y="543" on="1"/>
        <pt x="353" y="588" on="0"/>
        <pt x="318" y="639" on="0"/>
        <pt x="281" y="639" on="1"/>
        <pt x="249" y="639" on="0"/>
        <pt x="211" y="596" on="0"/>
        <pt x="211" y="560" on="1"/>
        <pt x="211" y="545" on="0"/>
        <pt x="214" y="527" on="1"/>
        <pt x="88" y="527" on="1"/>
        <pt x="84" y="553" on="0"/>
        <pt x="84" y="567" on="1"/>
        <pt x="84" y="648" on="0"/>
        <pt x="185" y="749" on="0"/>
        <pt x="278" y="749" on="1"/>
        <pt x="379" y="749" on="0"/>
        <pt x="470" y="625" on="0"/>
        <pt x="470" y="520" on="1"/>
        <pt x="470" y="465" on="1"/>
        <pt x="637" y="465" on="1"/>
        <pt x="637" y="740" on="1"/>
      </contour>
      <contour>
        <pt x="353" y="362" on="1"/>
        <pt x="277" y="362" on="1"/>
        <pt x="235" y="362" on="0"/>
        <pt x="182" y="319" on="0"/>
        <pt x="182" y="281" on="1"/>
        <pt x="182" y="246" on="0"/>
        <pt x="231" y="204" on="0"/>
        <pt x="268" y="204" on="1"/>
        <pt x="309" y="204" on="0"/>
        <pt x="353" y="260" on="0"/>
        <pt x="353" y="309" on="1"/>
      </contour>
    </TTGlyph>
    <TTGlyph name="dvBH_R_YA" xMin="63" yMin="-83" xMax="1287" yMax="749">
      <contour>
        <pt x="1287" y="632" on="1"/>
        <pt x="1176" y="632" on="1"/>
        <pt x="1176" y="0" on="1"/>
        <pt x="1047" y="0" on="1"/>
        <pt x="1047" y="179" on="1"/>
        <pt x="1016" y="139" on="0"/>
        <pt x="914" y="93" on="0"/>
        <pt x="845" y="93" on="1"/>
        <pt x="729" y="93" on="0"/>
        <pt x="658" y="159" on="1"/>
        <pt x="413" y="-83" on="1"/>
        <pt x="271" y="-83" on="1"/>
        <pt x="605" y="233" on="1"/>
        <pt x="580" y="287" on="0"/>
        <pt x="577" y="362" on="1"/>
        <pt x="470" y="362" on="1"/>
        <pt x="470" y="316" on="1"/>
        <pt x="470" y="216" on="0"/>
        <pt x="364" y="98" on="0"/>
        <pt x="269" y="98" on="1"/>
        <pt x="208" y="98" on="0"/>
        <pt x="115" y="144" on="0"/>
        <pt x="63" y="227" on="0"/>
        <pt x="63" y="281" on="1"/>
        <pt x="63" y="368" on="0"/>
        <pt x="183" y="461" on="0"/>
        <pt x="277" y="461" on="1"/>
        <pt x="353" y="461" on="1"/>
        <pt x="353" y="543" on="1"/>
        <pt x="353" y="588" on="0"/>
        <pt x="318" y="639" on="0"/>
        <pt x="281" y="639" on="1"/>
        <pt x="249" y="639" on="0"/>
        <pt x="211" y="596" on="0"/>
        <pt x="211" y="560" on="1"/>
        <pt x="211" y="545" on="0"/>
        <pt x="214" y="527" on="1"/>
        <pt x="88" y="527" on="1"/>
        <pt x="84" y="553" on="0"/>
        <pt x="84" y="567" on="1"/>
        <pt x="84" y="648" on="0"/>
        <pt x="185" y="749" on="0"/>
        <pt x="278" y="749" on="1"/>
        <pt x="379" y="749" on="0"/>
        <pt x="470" y="625" on="0"/>
        <pt x="470" y="520" on="1"/>
        <pt x="470" y="461" on="1"/>
        <pt x="621" y="461" on="1"/>
        <pt x="689" y="461" on="0"/>
        <pt x="753" y="511" on="0"/>
        <pt x="753" y="578" on="1"/>
        <pt x="753" y="632" on="1"/>
        <pt x="577" y="632" on="1"/>
        <pt x="577" y="740" on="1"/>
        <pt x="1287" y="740" on="1"/>
      </contour>
      <contour>
        <pt x="1047" y="632" on="1"/>
        <pt x="880" y="632" on="1"/>
        <pt x="880" y="555" on="1"/>
        <pt x="880" y="376" on="0"/>
        <pt x="705" y="362" on="1"/>
        <pt x="705" y="289" on="0"/>
        <pt x="794" y="201" on="0"/>
        <pt x="873" y="201" on="1"/>
        <pt x="951" y="201" on="0"/>
        <pt x="1047" y="297" on="0"/>
        <pt x="1047" y="372" on="1"/>
      </contour>
      <contour>
        <pt x="353" y="362" on="1"/>
        <pt x="277" y="362" on="1"/>
        <pt x="235" y="362" on="0"/>
        <pt x="182" y="319" on="0"/>
        <pt x="182" y="281" on="1"/>
        <pt x="182" y="246" on="0"/>
        <pt x="231" y="204" on="0"/>
        <pt x="268" y="204" on="1"/>
        <pt x="309" y="204" on="0"/>
        <pt x="353" y="260" on="0"/>
        <pt x="353" y="309" on="1"/>
      </contour>
    </TTGlyph>
    <TTGlyph name="dvBH_VA" xMin="63" yMin="0" xMax="1218" yMax="749">
      <contour>
        <pt x="1218" y="740" on="1"/>
        <pt x="1218" y="632" on="1"/>
        <pt x="1108" y="632" on="1"/>
        <pt x="1108" y="0" on="1"/>
        <pt x="981" y="0" on="1"/>
        <pt x="981" y="158" on="1"/>
        <pt x="955" y="119" on="0"/>
        <pt x="869" y="75" on="0"/>
        <pt x="813" y="75" on="1"/>
        <pt x="745" y="75" on="0"/>
        <pt x="642" y="136" on="0"/>
        <pt x="587" y="244" on="0"/>
        <pt x="587" y="314" on="1"/>
        <pt x="587" y="336" on="0"/>
        <pt x="590" y="355" on="1"/>
        <pt x="472" y="355" on="1"/>
        <pt x="472" y="296" on="1"/>
        <pt x="472" y="191" on="0"/>
        <pt x="368" y="76" on="0"/>
        <pt x="270" y="76" on="1"/>
        <pt x="209" y="76" on="0"/>
        <pt x="115" y="124" on="0"/>
        <pt x="63" y="212" on="0"/>
        <pt x="63" y="269" on="1"/>
        <pt x="63" y="361" on="0"/>
        <pt x="183" y="461" on="0"/>
        <pt x="277" y="461" on="1"/>
        <pt x="351" y="461" on="1"/>
        <pt x="351" y="543" on="1"/>
        <pt x="351" y="588" on="0"/>
        <pt x="317" y="638" on="0"/>
        <pt x="282" y="638" on="1"/>
        <pt x="252" y="638" on="0"/>
        <pt x="214" y="595" on="0"/>
        <pt x="214" y="559" on="1"/>
        <pt x="214" y="541" on="0"/>
        <pt x="218" y="525" on="1"/>
        <pt x="88" y="525" on="1"/>
        <pt x="84" y="549" on="0"/>
        <pt x="84" y="564" on="1"/>
        <pt x="84" y="647" on="0"/>
        <pt x="185" y="749" on="0"/>
        <pt x="278" y="749" on="1"/>
        <pt x="380" y="749" on="0"/>
        <pt x="472" y="625" on="0"/>
        <pt x="472" y="520" on="1"/>
        <pt x="472" y="461" on="1"/>
        <pt x="632" y="461" on="1"/>
        <pt x="662" y="501" on="0"/>
        <pt x="755" y="545" on="0"/>
        <pt x="813" y="545" on="1"/>
        <pt x="869" y="545" on="0"/>
        <pt x="955" y="502" on="0"/>
        <pt x="981" y="463" on="1"/>
        <pt x="981" y="632" on="1"/>
        <pt x="579" y="632" on="1"/>
        <pt x="579" y="740" on="1"/>
      </contour>
      <contour>
        <pt x="890" y="178" on="0"/>
        <pt x="951" y="216" on="0"/>
        <pt x="981" y="276" on="0"/>
        <pt x="981" y="310" on="1"/>
        <pt x="981" y="364" on="0"/>
        <pt x="911" y="442" on="0"/>
        <pt x="847" y="442" on="1"/>
        <pt x="789" y="442" on="0"/>
        <pt x="713" y="369" on="0"/>
        <pt x="713" y="311" on="1"/>
        <pt x="713" y="251" on="0"/>
        <pt x="788" y="178" on="0"/>
        <pt x="847" y="178" on="1"/>
      </contour>
      <contour>
        <pt x="351" y="355" on="1"/>
        <pt x="280" y="355" on="1"/>
        <pt x="237" y="355" on="0"/>
        <pt x="183" y="309" on="0"/>
        <pt x="183" y="270" on="1"/>
        <pt x="183" y="231" on="0"/>
        <pt x="231" y="186" on="0"/>
        <pt x="268" y="186" on="1"/>
        <pt x="308" y="186" on="0"/>
        <pt x="351" y="241" on="0"/>
        <pt x="351" y="289" on="1"/>
      </contour>
    </TTGlyph>
    <TTGlyph name="dvBH_YA" xMin="63" yMin="0" xMax="1287" yMax="749">
      <contour>
        <pt x="1287" y="632" on="1"/>
        <pt x="1176" y="632" on="1"/>
        <pt x="1176" y="0" on="1"/>
        <pt x="1047" y="0" on="1"/>
        <pt x="1047" y="179" on="1"/>
        <pt x="1016" y="139" on="0"/>
        <pt x="914" y="93" on="0"/>
        <pt x="845" y="93" on="1"/>
        <pt x="724" y="93" on="0"/>
        <pt x="583" y="233" on="0"/>
        <pt x="577" y="355" on="1"/>
        <pt x="472" y="355" on="1"/>
        <pt x="472" y="296" on="1"/>
        <pt x="472" y="191" on="0"/>
        <pt x="368" y="76" on="0"/>
        <pt x="270" y="76" on="1"/>
        <pt x="209" y="76" on="0"/>
        <pt x="115" y="124" on="0"/>
        <pt x="63" y="212" on="0"/>
        <pt x="63" y="269" on="1"/>
        <pt x="63" y="361" on="0"/>
        <pt x="183" y="461" on="0"/>
        <pt x="277" y="461" on="1"/>
        <pt x="351" y="461" on="1"/>
        <pt x="351" y="543" on="1"/>
        <pt x="351" y="588" on="0"/>
        <pt x="317" y="638" on="0"/>
        <pt x="282" y="638" on="1"/>
        <pt x="252" y="638" on="0"/>
        <pt x="214" y="595" on="0"/>
        <pt x="214" y="559" on="1"/>
        <pt x="214" y="541" on="0"/>
        <pt x="218" y="525" on="1"/>
        <pt x="88" y="525" on="1"/>
        <pt x="84" y="549" on="0"/>
        <pt x="84" y="564" on="1"/>
        <pt x="84" y="647" on="0"/>
        <pt x="185" y="749" on="0"/>
        <pt x="278" y="749" on="1"/>
        <pt x="380" y="749" on="0"/>
        <pt x="472" y="625" on="0"/>
        <pt x="472" y="520" on="1"/>
        <pt x="472" y="461" on="1"/>
        <pt x="621" y="461" on="1"/>
        <pt x="689" y="461" on="0"/>
        <pt x="753" y="511" on="0"/>
        <pt x="753" y="578" on="1"/>
        <pt x="753" y="632" on="1"/>
        <pt x="577" y="632" on="1"/>
        <pt x="577" y="740" on="1"/>
        <pt x="1287" y="740" on="1"/>
      </contour>
      <contour>
        <pt x="1047" y="632" on="1"/>
        <pt x="880" y="632" on="1"/>
        <pt x="880" y="555" on="1"/>
        <pt x="880" y="376" on="0"/>
        <pt x="705" y="362" on="1"/>
        <pt x="705" y="289" on="0"/>
        <pt x="794" y="201" on="0"/>
        <pt x="873" y="201" on="1"/>
        <pt x="951" y="201" on="0"/>
        <pt x="1047" y="297" on="0"/>
        <pt x="1047" y="372" on="1"/>
      </contour>
      <contour>
        <pt x="351" y="355" on="1"/>
        <pt x="280" y="355" on="1"/>
        <pt x="237" y="355" on="0"/>
        <pt x="183" y="309" on="0"/>
        <pt x="183" y="270" on="1"/>
        <pt x="183" y="231" on="0"/>
        <pt x="231" y="186" on="0"/>
        <pt x="268" y="186" on="1"/>
        <pt x="308" y="186" on="0"/>
        <pt x="351" y="241" on="0"/>
        <pt x="351" y="289" on="1"/>
      </contour>
    </TTGlyph>
    <TTGlyph name="dvB_BA" xMin="-21" yMin="0" xMax="1126" yMax="740">
      <contour>
        <pt x="1126" y="632" on="1"/>
        <pt x="1015" y="632" on="1"/>
        <pt x="1015" y="0" on="1"/>
        <pt x="891" y="0" on="1"/>
        <pt x="891" y="152" on="1"/>
        <pt x="866" y="115" on="0"/>
        <pt x="777" y="71" on="0"/>
        <pt x="719" y="71" on="1"/>
        <pt x="659" y="71" on="0"/>
        <pt x="559" y="118" on="0"/>
        <pt x="526" y="161" on="1"/>
        <pt x="493" y="118" on="0"/>
        <pt x="389" y="71" on="0"/>
        <pt x="320" y="71" on="1"/>
        <pt x="241" y="71" on="0"/>
        <pt x="123" y="133" on="0"/>
        <pt x="59" y="244" on="0"/>
        <pt x="59" y="314" on="1"/>
        <pt x="59" y="383" on="0"/>
        <pt x="122" y="492" on="0"/>
        <pt x="240" y="553" on="0"/>
        <pt x="319" y="553" on="1"/>
        <pt x="390" y="553" on="0"/>
        <pt x="494" y="506" on="0"/>
        <pt x="526" y="465" on="1"/>
        <pt x="559" y="507" on="0"/>
        <pt x="658" y="552" on="0"/>
        <pt x="718" y="552" on="1"/>
        <pt x="775" y="552" on="0"/>
        <pt x="862" y="510" on="0"/>
        <pt x="891" y="474" on="1"/>
        <pt x="891" y="632" on="1"/>
        <pt x="-21" y="632" on="1"/>
        <pt x="-21" y="740" on="1"/>
        <pt x="1126" y="740" on="1"/>
      </contour>
      <contour>
        <pt x="686" y="468" on="0"/>
        <pt x="643" y="433" on="1"/>
        <pt x="881" y="242" on="1"/>
        <pt x="898" y="278" on="0"/>
        <pt x="898" y="315" on="1"/>
        <pt x="898" y="355" on="0"/>
        <pt x="861" y="425" on="0"/>
        <pt x="792" y="468" on="0"/>
        <pt x="744" y="468" on="1"/>
      </contour>
      <contour>
        <pt x="264" y="464" on="0"/>
        <pt x="221" y="429" on="1"/>
        <pt x="458" y="237" on="1"/>
        <pt x="476" y="272" on="0"/>
        <pt x="476" y="311" on="1"/>
        <pt x="476" y="351" on="0"/>
        <pt x="440" y="422" on="0"/>
        <pt x="370" y="464" on="0"/>
        <pt x="322" y="464" on="1"/>
      </contour>
      <contour>
        <pt x="589" y="268" on="0"/>
        <pt x="631" y="200" on="0"/>
        <pt x="703" y="164" on="0"/>
        <pt x="746" y="164" on="1"/>
        <pt x="807" y="164" on="0"/>
        <pt x="846" y="198" on="1"/>
        <pt x="607" y="390" on="1"/>
        <pt x="589" y="354" on="0"/>
        <pt x="589" y="314" on="1"/>
      </contour>
      <contour>
        <pt x="167" y="265" on="0"/>
        <pt x="210" y="196" on="0"/>
        <pt x="281" y="160" on="0"/>
        <pt x="323" y="160" on="1"/>
        <pt x="382" y="160" on="0"/>
        <pt x="424" y="195" on="1"/>
        <pt x="185" y="386" on="1"/>
        <pt x="167" y="350" on="0"/>
        <pt x="167" y="310" on="1"/>
      </contour>
    </TTGlyph>
    <TTGlyph name="dvB_BHA" xMin="-21" yMin="0" xMax="1262" yMax="749">
      <contour>
        <pt x="1262" y="740" on="1"/>
        <pt x="1262" y="632" on="1"/>
        <pt x="1151" y="632" on="1"/>
        <pt x="1151" y="0" on="1"/>
        <pt x="1021" y="0" on="1"/>
        <pt x="1021" y="355" on="1"/>
        <pt x="882" y="355" on="1"/>
        <pt x="882" y="296" on="1"/>
        <pt x="882" y="192" on="0"/>
        <pt x="777" y="76" on="0"/>
        <pt x="680" y="76" on="1"/>
        <pt x="627" y="76" on="0"/>
        <pt x="541" y="113" on="0"/>
        <pt x="514" y="147" on="1"/>
        <pt x="481" y="111" on="0"/>
        <pt x="383" y="71" on="0"/>
        <pt x="320" y="71" on="1"/>
        <pt x="241" y="71" on="0"/>
        <pt x="123" y="133" on="0"/>
        <pt x="59" y="244" on="0"/>
        <pt x="59" y="314" on="1"/>
        <pt x="59" y="383" on="0"/>
        <pt x="122" y="492" on="0"/>
        <pt x="240" y="553" on="0"/>
        <pt x="319" y="553" on="1"/>
        <pt x="406" y="553" on="0"/>
        <pt x="523" y="483" on="0"/>
        <pt x="551" y="425" on="1"/>
        <pt x="607" y="461" on="0"/>
        <pt x="687" y="461" on="1"/>
        <pt x="761" y="461" on="1"/>
        <pt x="761" y="543" on="1"/>
        <pt x="761" y="588" on="0"/>
        <pt x="728" y="638" on="0"/>
        <pt x="693" y="638" on="1"/>
        <pt x="682" y="638" on="0"/>
        <pt x="664" y="632" on="1"/>
        <pt x="619" y="633" on="1"/>
        <pt x="619" y="632" on="1"/>
        <pt x="-21" y="632" on="1"/>
        <pt x="-21" y="740" on="1"/>
        <pt x="622" y="740" on="1"/>
        <pt x="651" y="749" on="0"/>
        <pt x="688" y="749" on="1"/>
        <pt x="790" y="749" on="0"/>
        <pt x="882" y="625" on="0"/>
        <pt x="882" y="520" on="1"/>
        <pt x="882" y="461" on="1"/>
        <pt x="1021" y="461" on="1"/>
        <pt x="1021" y="740" on="1"/>
      </contour>
      <contour>
        <pt x="264" y="464" on="0"/>
        <pt x="221" y="429" on="1"/>
        <pt x="458" y="237" on="1"/>
        <pt x="476" y="272" on="0"/>
        <pt x="476" y="311" on="1"/>
        <pt x="476" y="351" on="0"/>
        <pt x="440" y="422" on="0"/>
        <pt x="370" y="464" on="0"/>
        <pt x="322" y="464" on="1"/>
      </contour>
      <contour>
        <pt x="167" y="265" on="0"/>
        <pt x="210" y="196" on="0"/>
        <pt x="281" y="160" on="0"/>
        <pt x="323" y="160" on="1"/>
        <pt x="382" y="160" on="0"/>
        <pt x="424" y="195" on="1"/>
        <pt x="185" y="386" on="1"/>
        <pt x="167" y="350" on="0"/>
        <pt x="167" y="310" on="1"/>
      </contour>
      <contour>
        <pt x="761" y="355" on="1"/>
        <pt x="690" y="355" on="1"/>
        <pt x="647" y="355" on="0"/>
        <pt x="593" y="309" on="0"/>
        <pt x="593" y="270" on="1"/>
        <pt x="593" y="231" on="0"/>
        <pt x="641" y="186" on="0"/>
        <pt x="677" y="186" on="1"/>
        <pt x="718" y="186" on="0"/>
        <pt x="761" y="241" on="0"/>
        <pt x="761" y="289" on="1"/>
      </contour>
    </TTGlyph>
    <TTGlyph name="dvB_BH_RA" xMin="-21" yMin="-83" xMax="1283" yMax="749">
      <contour>
        <pt x="1283" y="740" on="1"/>
        <pt x="1283" y="632" on="1"/>
        <pt x="1172" y="632" on="1"/>
        <pt x="1172" y="0" on="1"/>
        <pt x="1055" y="0" on="1"/>
        <pt x="1055" y="149" on="1"/>
        <pt x="824" y="-83" on="1"/>
        <pt x="682" y="-83" on="1"/>
        <pt x="1048" y="264" on="1"/>
        <pt x="1048" y="362" on="1"/>
        <pt x="881" y="362" on="1"/>
        <pt x="881" y="316" on="1"/>
        <pt x="881" y="216" on="0"/>
        <pt x="775" y="98" on="0"/>
        <pt x="680" y="98" on="1"/>
        <pt x="630" y="98" on="0"/>
        <pt x="550" y="128" on="0"/>
        <pt x="523" y="156" on="1"/>
        <pt x="490" y="116" on="0"/>
        <pt x="387" y="71" on="0"/>
        <pt x="320" y="71" on="1"/>
        <pt x="241" y="71" on="0"/>
        <pt x="123" y="133" on="0"/>
        <pt x="59" y="244" on="0"/>
        <pt x="59" y="314" on="1"/>
        <pt x="59" y="383" on="0"/>
        <pt x="122" y="492" on="0"/>
        <pt x="240" y="553" on="0"/>
        <pt x="319" y="553" on="1"/>
        <pt x="404" y="553" on="0"/>
        <pt x="520" y="485" on="0"/>
        <pt x="550" y="428" on="1"/>
        <pt x="605" y="465" on="0"/>
        <pt x="688" y="465" on="1"/>
        <pt x="764" y="465" on="1"/>
        <pt x="764" y="543" on="1"/>
        <pt x="764" y="588" on="0"/>
        <pt x="729" y="639" on="0"/>
        <pt x="692" y="639" on="1"/>
        <pt x="673" y="639" on="0"/>
        <pt x="662" y="632" on="1"/>
        <pt x="-21" y="632" on="1"/>
        <pt x="-21" y="740" on="1"/>
        <pt x="622" y="740" on="1"/>
        <pt x="651" y="749" on="0"/>
        <pt x="689" y="749" on="1"/>
        <pt x="790" y="749" on="0"/>
        <pt x="881" y="625" on="0"/>
        <pt x="881" y="520" on="1"/>
        <pt x="881" y="465" on="1"/>
        <pt x="1048" y="465" on="1"/>
        <pt x="1048" y="740" on="1"/>
      </contour>
      <contour>
        <pt x="264" y="464" on="0"/>
        <pt x="221" y="429" on="1"/>
        <pt x="458" y="237" on="1"/>
        <pt x="476" y="272" on="0"/>
        <pt x="476" y="311" on="1"/>
        <pt x="476" y="351" on="0"/>
        <pt x="440" y="422" on="0"/>
        <pt x="370" y="464" on="0"/>
        <pt x="322" y="464" on="1"/>
      </contour>
      <contour>
        <pt x="167" y="265" on="0"/>
        <pt x="210" y="196" on="0"/>
        <pt x="281" y="160" on="0"/>
        <pt x="323" y="160" on="1"/>
        <pt x="382" y="160" on="0"/>
        <pt x="424" y="195" on="1"/>
        <pt x="185" y="386" on="1"/>
        <pt x="167" y="350" on="0"/>
        <pt x="167" y="310" on="1"/>
      </contour>
      <contour>
        <pt x="764" y="362" on="1"/>
        <pt x="688" y="362" on="1"/>
        <pt x="646" y="362" on="0"/>
        <pt x="594" y="319" on="0"/>
        <pt x="594" y="281" on="1"/>
        <pt x="594" y="246" on="0"/>
        <pt x="642" y="204" on="0"/>
        <pt x="679" y="204" on="1"/>
        <pt x="721" y="204" on="0"/>
        <pt x="764" y="260" on="0"/>
        <pt x="764" y="309" on="1"/>
      </contour>
    </TTGlyph>
    <TTGlyph name="dvB_DA" xMin="-21" yMin="-26" xMax="1048" yMax="740">
      <component glyphName="dvDA" x="417" y="0" flags="0x0"/>
      <component glyphName="dvB" x="0" y="0" flags="0x0"/>
    </TTGlyph>
    <TTGlyph name="dvB_DHA" xMin="-21" yMin="0" xMax="1149" yMax="749">
      <contour>
        <pt x="1149" y="632" on="1"/>
        <pt x="1041" y="632" on="1"/>
        <pt x="1041" y="0" on="1"/>
        <pt x="911" y="0" on="1"/>
        <pt x="911" y="185" on="1"/>
        <pt x="879" y="137" on="0"/>
        <pt x="770" y="85" on="0"/>
        <pt x="698" y="85" on="1"/>
        <pt x="639" y="85" on="0"/>
        <pt x="542" y="122" on="0"/>
        <pt x="512" y="158" on="1"/>
        <pt x="480" y="116" on="0"/>
        <pt x="381" y="71" on="0"/>
        <pt x="319" y="71" on="1"/>
        <pt x="249" y="71" on="0"/>
        <pt x="130" y="127" on="0"/>
        <pt x="60" y="236" on="0"/>
        <pt x="60" y="310" on="1"/>
        <pt x="60" y="382" on="0"/>
        <pt x="125" y="493" on="0"/>
        <pt x="240" y="554" on="0"/>
        <pt x="313" y="554" on="1"/>
        <pt x="354" y="554" on="0"/>
        <pt x="385" y="545" on="1"/>
        <pt x="385" y="459" on="1"/>
        <pt x="355" y="467" on="0"/>
        <pt x="326" y="467" on="1"/>
        <pt x="261" y="467" on="0"/>
        <pt x="218" y="429" on="1"/>
        <pt x="459" y="236" on="1"/>
        <pt x="472" y="261" on="0"/>
        <pt x="477" y="293" on="1"/>
        <pt x="478" y="293" on="1"/>
        <pt x="486" y="341" on="0"/>
        <pt x="553" y="401" on="0"/>
        <pt x="594" y="408" on="1"/>
        <pt x="594" y="412" on="1"/>
        <pt x="541" y="425" on="0"/>
        <pt x="468" y="510" on="0"/>
        <pt x="468" y="577" on="1"/>
        <pt x="468" y="605" on="0"/>
        <pt x="476" y="632" on="1"/>
        <pt x="-21" y="632" on="1"/>
        <pt x="-21" y="740" on="1"/>
        <pt x="586" y="740" on="1"/>
        <pt x="615" y="749" on="0"/>
        <pt x="649" y="749" on="1"/>
        <pt x="731" y="749" on="0"/>
        <pt x="824" y="658" on="0"/>
        <pt x="824" y="584" on="1"/>
        <pt x="824" y="568" on="0"/>
        <pt x="822" y="546" on="1"/>
        <pt x="726" y="546" on="1"/>
        <pt x="727" y="568" on="1"/>
        <pt x="727" y="600" on="0"/>
        <pt x="688" y="641" on="0"/>
        <pt x="654" y="641" on="1"/>
        <pt x="619" y="641" on="0"/>
        <pt x="578" y="597" on="0"/>
        <pt x="578" y="563" on="1"/>
        <pt x="578" y="515" on="0"/>
        <pt x="655" y="465" on="0"/>
        <pt x="714" y="465" on="1"/>
        <pt x="773" y="465" on="1"/>
        <pt x="773" y="360" on="1"/>
        <pt x="720" y="360" on="1"/>
        <pt x="666" y="360" on="0"/>
        <pt x="607" y="317" on="0"/>
        <pt x="607" y="278" on="1"/>
        <pt x="607" y="236" on="0"/>
        <pt x="675" y="191" on="0"/>
        <pt x="730" y="191" on="1"/>
        <pt x="783" y="191" on="0"/>
        <pt x="865" y="238" on="0"/>
        <pt x="911" y="322" on="0"/>
        <pt x="911" y="377" on="1"/>
        <pt x="911" y="740" on="1"/>
        <pt x="1149" y="740" on="1"/>
      </contour>
      <contour>
        <pt x="167" y="263" on="0"/>
        <pt x="210" y="195" on="0"/>
        <pt x="283" y="159" on="0"/>
        <pt x="326" y="159" on="1"/>
        <pt x="384" y="159" on="0"/>
        <pt x="424" y="193" on="1"/>
        <pt x="184" y="385" on="1"/>
        <pt x="167" y="351" on="0"/>
        <pt x="167" y="308" on="1"/>
      </contour>
    </TTGlyph>
    <TTGlyph name="dvB_DH_VA" xMin="-21" yMin="0" xMax="1545" yMax="749">
      <contour>
        <pt x="1545" y="740" on="1"/>
        <pt x="1545" y="632" on="1"/>
        <pt x="1434" y="632" on="1"/>
        <pt x="1434" y="0" on="1"/>
        <pt x="1308" y="0" on="1"/>
        <pt x="1308" y="158" on="1"/>
        <pt x="1282" y="118" on="0"/>
        <pt x="1196" y="75" on="0"/>
        <pt x="1140" y="75" on="1"/>
        <pt x="1069" y="75" on="0"/>
        <pt x="964" y="141" on="0"/>
        <pt x="938" y="198" on="1"/>
        <pt x="875" y="84" on="0"/>
        <pt x="716" y="84" on="1"/>
        <pt x="648" y="84" on="0"/>
        <pt x="542" y="121" on="0"/>
        <pt x="511" y="158" on="1"/>
        <pt x="479" y="116" on="0"/>
        <pt x="380" y="71" on="0"/>
        <pt x="319" y="71" on="1"/>
        <pt x="249" y="71" on="0"/>
        <pt x="130" y="127" on="0"/>
        <pt x="60" y="236" on="0"/>
        <pt x="60" y="310" on="1"/>
        <pt x="60" y="382" on="0"/>
        <pt x="125" y="493" on="0"/>
        <pt x="240" y="554" on="0"/>
        <pt x="313" y="554" on="1"/>
        <pt x="354" y="554" on="0"/>
        <pt x="385" y="545" on="1"/>
        <pt x="385" y="459" on="1"/>
        <pt x="355" y="467" on="0"/>
        <pt x="326" y="467" on="1"/>
        <pt x="261" y="467" on="0"/>
        <pt x="218" y="429" on="1"/>
        <pt x="459" y="236" on="1"/>
        <pt x="472" y="261" on="0"/>
        <pt x="477" y="293" on="1"/>
        <pt x="478" y="293" on="1"/>
        <pt x="486" y="341" on="0"/>
        <pt x="553" y="401" on="0"/>
        <pt x="594" y="408" on="1"/>
        <pt x="594" y="412" on="1"/>
        <pt x="541" y="425" on="0"/>
        <pt x="468" y="510" on="0"/>
        <pt x="468" y="577" on="1"/>
        <pt x="468" y="605" on="0"/>
        <pt x="476" y="632" on="1"/>
        <pt x="-21" y="632" on="1"/>
        <pt x="-21" y="740" on="1"/>
        <pt x="586" y="740" on="1"/>
        <pt x="615" y="749" on="0"/>
        <pt x="649" y="749" on="1"/>
        <pt x="731" y="749" on="0"/>
        <pt x="824" y="658" on="0"/>
        <pt x="824" y="584" on="1"/>
        <pt x="824" y="568" on="0"/>
        <pt x="822" y="546" on="1"/>
        <pt x="726" y="546" on="1"/>
        <pt x="727" y="568" on="1"/>
        <pt x="727" y="600" on="0"/>
        <pt x="688" y="641" on="0"/>
        <pt x="654" y="641" on="1"/>
        <pt x="619" y="641" on="0"/>
        <pt x="578" y="597" on="0"/>
        <pt x="578" y="563" on="1"/>
        <pt x="578" y="515" on="0"/>
        <pt x="655" y="465" on="0"/>
        <pt x="714" y="465" on="1"/>
        <pt x="773" y="465" on="1"/>
        <pt x="773" y="360" on="1"/>
        <pt x="720" y="360" on="1"/>
        <pt x="666" y="360" on="0"/>
        <pt x="607" y="317" on="0"/>
        <pt x="607" y="278" on="1"/>
        <pt x="607" y="234" on="0"/>
        <pt x="683" y="191" on="0"/>
        <pt x="739" y="191" on="1"/>
        <pt x="811" y="191" on="0"/>
        <pt x="903" y="263" on="0"/>
        <pt x="915" y="336" on="1"/>
        <pt x="922" y="430" on="0"/>
        <pt x="1043" y="545" on="0"/>
        <pt x="1140" y="545" on="1"/>
        <pt x="1196" y="545" on="0"/>
        <pt x="1282" y="502" on="0"/>
        <pt x="1308" y="464" on="1"/>
        <pt x="1308" y="632" on="1"/>
        <pt x="926" y="632" on="1"/>
        <pt x="926" y="740" on="1"/>
      </contour>
      <contour>
        <pt x="1217" y="178" on="0"/>
        <pt x="1278" y="216" on="0"/>
        <pt x="1308" y="276" on="0"/>
        <pt x="1308" y="310" on="1"/>
        <pt x="1308" y="364" on="0"/>
        <pt x="1238" y="442" on="0"/>
        <pt x="1174" y="442" on="1"/>
        <pt x="1116" y="442" on="0"/>
        <pt x="1041" y="370" on="0"/>
        <pt x="1041" y="311" on="1"/>
        <pt x="1041" y="251" on="0"/>
        <pt x="1116" y="178" on="0"/>
        <pt x="1174" y="178" on="1"/>
      </contour>
      <contour>
        <pt x="167" y="263" on="0"/>
        <pt x="210" y="195" on="0"/>
        <pt x="283" y="159" on="0"/>
        <pt x="326" y="159" on="1"/>
        <pt x="384" y="159" on="0"/>
        <pt x="424" y="193" on="1"/>
        <pt x="184" y="385" on="1"/>
        <pt x="167" y="351" on="0"/>
        <pt x="167" y="308" on="1"/>
      </contour>
    </TTGlyph>
    <TTGlyph name="dvB_JA" xMin="-21" yMin="0" xMax="1267" yMax="740">
      <contour>
        <pt x="1267" y="632" on="1"/>
        <pt x="1156" y="632" on="1"/>
        <pt x="1156" y="0" on="1"/>
        <pt x="1027" y="0" on="1"/>
        <pt x="1027" y="382" on="1"/>
        <pt x="883" y="382" on="1"/>
        <pt x="883" y="327" on="1"/>
        <pt x="883" y="230" on="0"/>
        <pt x="776" y="112" on="0"/>
        <pt x="679" y="112" on="1"/>
        <pt x="583" y="112" on="0"/>
        <pt x="534" y="167" on="1"/>
        <pt x="500" y="122" on="0"/>
        <pt x="390" y="71" on="0"/>
        <pt x="320" y="71" on="1"/>
        <pt x="241" y="71" on="0"/>
        <pt x="123" y="133" on="0"/>
        <pt x="59" y="244" on="0"/>
        <pt x="59" y="314" on="1"/>
        <pt x="59" y="383" on="0"/>
        <pt x="122" y="492" on="0"/>
        <pt x="240" y="553" on="0"/>
        <pt x="319" y="553" on="1"/>
        <pt x="401" y="553" on="0"/>
        <pt x="519" y="490" on="0"/>
        <pt x="581" y="387" on="0"/>
        <pt x="584" y="327" on="1"/>
        <pt x="584" y="326" on="1"/>
        <pt x="585" y="280" on="0"/>
        <pt x="630" y="225" on="0"/>
        <pt x="670" y="225" on="1"/>
        <pt x="711" y="225" on="0"/>
        <pt x="757" y="282" on="0"/>
        <pt x="757" y="331" on="1"/>
        <pt x="757" y="492" on="1"/>
        <pt x="1027" y="492" on="1"/>
        <pt x="1027" y="632" on="1"/>
        <pt x="-21" y="632" on="1"/>
        <pt x="-21" y="740" on="1"/>
        <pt x="1267" y="740" on="1"/>
      </contour>
      <contour>
        <pt x="264" y="464" on="0"/>
        <pt x="221" y="429" on="1"/>
        <pt x="458" y="237" on="1"/>
        <pt x="476" y="272" on="0"/>
        <pt x="476" y="311" on="1"/>
        <pt x="476" y="351" on="0"/>
        <pt x="440" y="422" on="0"/>
        <pt x="370" y="464" on="0"/>
        <pt x="322" y="464" on="1"/>
      </contour>
      <contour>
        <pt x="167" y="265" on="0"/>
        <pt x="210" y="196" on="0"/>
        <pt x="281" y="160" on="0"/>
        <pt x="323" y="160" on="1"/>
        <pt x="382" y="160" on="0"/>
        <pt x="424" y="195" on="1"/>
        <pt x="185" y="386" on="1"/>
        <pt x="167" y="350" on="0"/>
        <pt x="167" y="310" on="1"/>
      </contour>
    </TTGlyph>
    <TTGlyph name="dvB_JHA" xMin="-21" yMin="-82" xMax="1356" yMax="740">
      <contour>
        <pt x="1356" y="632" on="1"/>
        <pt x="1245" y="632" on="1"/>
        <pt x="1245" y="0" on="1"/>
        <pt x="1118" y="0" on="1"/>
        <pt x="1118" y="232" on="1"/>
        <pt x="971" y="232" on="1"/>
        <pt x="997" y="193" on="0"/>
        <pt x="997" y="139" on="1"/>
        <pt x="997" y="73" on="0"/>
        <pt x="910" y="-12" on="0"/>
        <pt x="830" y="-12" on="1"/>
        <pt x="739" y="-12" on="0"/>
        <pt x="686" y="50" on="1"/>
        <pt x="686" y="-82" on="1"/>
        <pt x="570" y="-82" on="1"/>
        <pt x="570" y="170" on="1"/>
        <pt x="679" y="170" on="1"/>
        <pt x="685" y="131" on="0"/>
        <pt x="742" y="83" on="0"/>
        <pt x="790" y="83" on="1"/>
        <pt x="833" y="83" on="0"/>
        <pt x="878" y="125" on="0"/>
        <pt x="878" y="157" on="1"/>
        <pt x="878" y="195" on="0"/>
        <pt x="824" y="237" on="0"/>
        <pt x="771" y="237" on="1"/>
        <pt x="684" y="237" on="0"/>
        <pt x="659" y="239" on="1"/>
        <pt x="602" y="241" on="0"/>
        <pt x="560" y="264" on="1"/>
        <pt x="540" y="177" on="0"/>
        <pt x="417" y="71" on="0"/>
        <pt x="320" y="71" on="1"/>
        <pt x="241" y="71" on="0"/>
        <pt x="123" y="133" on="0"/>
        <pt x="59" y="244" on="0"/>
        <pt x="59" y="314" on="1"/>
        <pt x="59" y="383" on="0"/>
        <pt x="122" y="492" on="0"/>
        <pt x="240" y="553" on="0"/>
        <pt x="319" y="553" on="1"/>
        <pt x="361" y="553" on="0"/>
        <pt x="402" y="542" on="1"/>
        <pt x="402" y="454" on="1"/>
        <pt x="368" y="466" on="0"/>
        <pt x="325" y="466" on="1"/>
        <pt x="263" y="466" on="0"/>
        <pt x="219" y="430" on="1"/>
        <pt x="460" y="237" on="1"/>
        <pt x="490" y="288" on="0"/>
        <pt x="490" y="355" on="1"/>
        <pt x="490" y="389" on="1"/>
        <pt x="490" y="466" on="0"/>
        <pt x="594" y="542" on="0"/>
        <pt x="673" y="542" on="1"/>
        <pt x="799" y="542" on="1"/>
        <pt x="799" y="632" on="1"/>
        <pt x="-21" y="632" on="1"/>
        <pt x="-21" y="740" on="1"/>
        <pt x="1356" y="740" on="1"/>
      </contour>
      <contour>
        <pt x="1118" y="329" on="1"/>
        <pt x="1118" y="632" on="1"/>
        <pt x="924" y="632" on="1"/>
        <pt x="924" y="449" on="1"/>
        <pt x="704" y="449" on="1"/>
        <pt x="667" y="449" on="0"/>
        <pt x="616" y="421" on="0"/>
        <pt x="616" y="388" on="1"/>
        <pt x="616" y="358" on="0"/>
        <pt x="660" y="329" on="0"/>
        <pt x="696" y="329" on="1"/>
        <pt x="795" y="329" on="1"/>
      </contour>
      <contour>
        <pt x="167" y="265" on="0"/>
        <pt x="210" y="196" on="0"/>
        <pt x="281" y="160" on="0"/>
        <pt x="323" y="160" on="1"/>
        <pt x="382" y="160" on="0"/>
        <pt x="424" y="194" on="1"/>
        <pt x="185" y="387" on="1"/>
        <pt x="167" y="354" on="0"/>
        <pt x="167" y="310" on="1"/>
      </contour>
    </TTGlyph>
    <TTGlyph name="dvB_J_YA" xMin="-21" yMin="0" xMax="1722" yMax="740">
      <contour>
        <pt x="1722" y="632" on="1"/>
        <pt x="1611" y="632" on="1"/>
        <pt x="1611" y="0" on="1"/>
        <pt x="1481" y="0" on="1"/>
        <pt x="1481" y="178" on="1"/>
        <pt x="1450" y="138" on="0"/>
        <pt x="1348" y="93" on="0"/>
        <pt x="1280" y="93" on="1"/>
        <pt x="1164" y="93" on="0"/>
        <pt x="1026" y="229" on="0"/>
        <pt x="1014" y="348" on="1"/>
        <pt x="883" y="348" on="1"/>
        <pt x="883" y="327" on="1"/>
        <pt x="883" y="230" on="0"/>
        <pt x="776" y="112" on="0"/>
        <pt x="679" y="112" on="1"/>
        <pt x="583" y="112" on="0"/>
        <pt x="534" y="167" on="1"/>
        <pt x="500" y="122" on="0"/>
        <pt x="390" y="71" on="0"/>
        <pt x="320" y="71" on="1"/>
        <pt x="241" y="71" on="0"/>
        <pt x="123" y="133" on="0"/>
        <pt x="59" y="244" on="0"/>
        <pt x="59" y="314" on="1"/>
        <pt x="59" y="383" on="0"/>
        <pt x="122" y="492" on="0"/>
        <pt x="240" y="553" on="0"/>
        <pt x="319" y="553" on="1"/>
        <pt x="401" y="553" on="0"/>
        <pt x="519" y="490" on="0"/>
        <pt x="581" y="387" on="0"/>
        <pt x="584" y="327" on="1"/>
        <pt x="584" y="326" on="1"/>
        <pt x="585" y="280" on="0"/>
        <pt x="630" y="225" on="0"/>
        <pt x="670" y="225" on="1"/>
        <pt x="711" y="225" on="0"/>
        <pt x="757" y="282" on="0"/>
        <pt x="757" y="331" on="1"/>
        <pt x="757" y="455" on="1"/>
        <pt x="1027" y="455" on="1"/>
        <pt x="1111" y="455" on="0"/>
        <pt x="1187" y="515" on="0"/>
        <pt x="1187" y="578" on="1"/>
        <pt x="1187" y="632" on="1"/>
        <pt x="-21" y="632" on="1"/>
        <pt x="-21" y="740" on="1"/>
        <pt x="1722" y="740" on="1"/>
      </contour>
      <contour>
        <pt x="1481" y="632" on="1"/>
        <pt x="1314" y="632" on="1"/>
        <pt x="1314" y="555" on="1"/>
        <pt x="1314" y="476" on="0"/>
        <pt x="1224" y="377" on="0"/>
        <pt x="1140" y="367" on="1"/>
        <pt x="1142" y="291" on="0"/>
        <pt x="1230" y="201" on="0"/>
        <pt x="1308" y="201" on="1"/>
        <pt x="1386" y="201" on="0"/>
        <pt x="1481" y="297" on="0"/>
        <pt x="1481" y="372" on="1"/>
      </contour>
      <contour>
        <pt x="264" y="464" on="0"/>
        <pt x="221" y="429" on="1"/>
        <pt x="458" y="237" on="1"/>
        <pt x="476" y="272" on="0"/>
        <pt x="476" y="311" on="1"/>
        <pt x="476" y="351" on="0"/>
        <pt x="440" y="422" on="0"/>
        <pt x="370" y="464" on="0"/>
        <pt x="322" y="464" on="1"/>
      </contour>
      <contour>
        <pt x="167" y="265" on="0"/>
        <pt x="210" y="196" on="0"/>
        <pt x="281" y="160" on="0"/>
        <pt x="323" y="160" on="1"/>
        <pt x="382" y="160" on="0"/>
        <pt x="424" y="195" on="1"/>
        <pt x="185" y="386" on="1"/>
        <pt x="167" y="350" on="0"/>
        <pt x="167" y="310" on="1"/>
      </contour>
    </TTGlyph>
    <TTGlyph name="dvB_JxA" xMin="-21" yMin="-109" xMax="1267" yMax="740">
      <component glyphName="dvB_JA" x="0" y="0" flags="0x0"/>
      <component glyphName="dvNukta" x="984" y="110" flags="0x4"/>
    </TTGlyph>
    <TTGlyph name="dvB_LA" xMin="-21" yMin="45" xMax="1332" yMax="740">
      <contour>
        <pt x="1119" y="632" on="1"/>
        <pt x="1119" y="516" on="1"/>
        <pt x="1180" y="493" on="0"/>
        <pt x="1252" y="379" on="0"/>
        <pt x="1252" y="295" on="1"/>
        <pt x="1252" y="222" on="0"/>
        <pt x="1194" y="109" on="0"/>
        <pt x="1081" y="45" on="0"/>
        <pt x="1001" y="45" on="1"/>
        <pt x="980" y="45" on="0"/>
        <pt x="967" y="46" on="1"/>
        <pt x="967" y="159" on="1"/>
        <pt x="994" y="157" on="1"/>
        <pt x="1053" y="157" on="0"/>
        <pt x="1121" y="231" on="0"/>
        <pt x="1121" y="293" on="1"/>
        <pt x="1121" y="348" on="0"/>
        <pt x="1066" y="417" on="0"/>
        <pt x="1016" y="417" on="1"/>
        <pt x="963" y="417" on="0"/>
        <pt x="910" y="339" on="0"/>
        <pt x="910" y="275" on="1"/>
        <pt x="910" y="254" on="1"/>
        <pt x="802" y="254" on="1"/>
        <pt x="802" y="275" on="1"/>
        <pt x="802" y="338" on="0"/>
        <pt x="751" y="417" on="0"/>
        <pt x="700" y="417" on="1"/>
        <pt x="648" y="417" on="0"/>
        <pt x="591" y="349" on="0"/>
        <pt x="591" y="293" on="1"/>
        <pt x="591" y="231" on="0"/>
        <pt x="659" y="157" on="0"/>
        <pt x="718" y="157" on="1"/>
        <pt x="746" y="159" on="1"/>
        <pt x="746" y="46" on="1"/>
        <pt x="732" y="45" on="0"/>
        <pt x="711" y="45" on="1"/>
        <pt x="643" y="45" on="0"/>
        <pt x="543" y="98" on="0"/>
        <pt x="515" y="147" on="1"/>
        <pt x="482" y="111" on="0"/>
        <pt x="383" y="71" on="0"/>
        <pt x="320" y="71" on="1"/>
        <pt x="241" y="71" on="0"/>
        <pt x="123" y="133" on="0"/>
        <pt x="59" y="244" on="0"/>
        <pt x="59" y="314" on="1"/>
        <pt x="59" y="383" on="0"/>
        <pt x="122" y="492" on="0"/>
        <pt x="240" y="553" on="0"/>
        <pt x="319" y="553" on="1"/>
        <pt x="391" y="553" on="0"/>
        <pt x="497" y="505" on="0"/>
        <pt x="529" y="462" on="1"/>
        <pt x="556" y="496" on="0"/>
        <pt x="635" y="531" on="0"/>
        <pt x="681" y="531" on="1"/>
        <pt x="750" y="531" on="0"/>
        <pt x="836" y="461" on="0"/>
        <pt x="855" y="406" on="1"/>
        <pt x="858" y="406" on="1"/>
        <pt x="874" y="452" on="0"/>
        <pt x="939" y="516" on="0"/>
        <pt x="991" y="527" on="1"/>
        <pt x="991" y="632" on="1"/>
        <pt x="-21" y="632" on="1"/>
        <pt x="-21" y="740" on="1"/>
        <pt x="1332" y="740" on="1"/>
        <pt x="1332" y="632" on="1"/>
      </contour>
      <contour>
        <pt x="264" y="464" on="0"/>
        <pt x="221" y="429" on="1"/>
        <pt x="458" y="237" on="1"/>
        <pt x="476" y="272" on="0"/>
        <pt x="476" y="311" on="1"/>
        <pt x="476" y="351" on="0"/>
        <pt x="440" y="422" on="0"/>
        <pt x="370" y="464" on="0"/>
        <pt x="322" y="464" on="1"/>
      </contour>
      <contour>
        <pt x="167" y="265" on="0"/>
        <pt x="210" y="196" on="0"/>
        <pt x="281" y="160" on="0"/>
        <pt x="323" y="160" on="1"/>
        <pt x="382" y="160" on="0"/>
        <pt x="424" y="195" on="1"/>
        <pt x="185" y="386" on="1"/>
        <pt x="167" y="350" on="0"/>
        <pt x="167" y="310" on="1"/>
      </contour>
    </TTGlyph>
    <TTGlyph name="dvB_L_YA" xMin="-21" yMin="0" xMax="1822" yMax="740">
      <contour>
        <pt x="1822" y="632" on="1"/>
        <pt x="1711" y="632" on="1"/>
        <pt x="1711" y="0" on="1"/>
        <pt x="1582" y="0" on="1"/>
        <pt x="1582" y="179" on="1"/>
        <pt x="1551" y="139" on="0"/>
        <pt x="1449" y="93" on="0"/>
        <pt x="1381" y="93" on="1"/>
        <pt x="1258" y="93" on="0"/>
        <pt x="1117" y="231" on="0"/>
        <pt x="1112" y="349" on="1"/>
        <pt x="1105" y="377" on="0"/>
        <pt x="1058" y="417" on="0"/>
        <pt x="1019" y="417" on="1"/>
        <pt x="964" y="417" on="0"/>
        <pt x="910" y="339" on="0"/>
        <pt x="910" y="275" on="1"/>
        <pt x="910" y="254" on="1"/>
        <pt x="802" y="254" on="1"/>
        <pt x="802" y="275" on="1"/>
        <pt x="802" y="338" on="0"/>
        <pt x="751" y="417" on="0"/>
        <pt x="700" y="417" on="1"/>
        <pt x="648" y="417" on="0"/>
        <pt x="591" y="349" on="0"/>
        <pt x="591" y="293" on="1"/>
        <pt x="591" y="231" on="0"/>
        <pt x="659" y="157" on="0"/>
        <pt x="718" y="157" on="1"/>
        <pt x="746" y="159" on="1"/>
        <pt x="746" y="46" on="1"/>
        <pt x="732" y="45" on="0"/>
        <pt x="711" y="45" on="1"/>
        <pt x="643" y="45" on="0"/>
        <pt x="543" y="98" on="0"/>
        <pt x="515" y="147" on="1"/>
        <pt x="482" y="111" on="0"/>
        <pt x="383" y="71" on="0"/>
        <pt x="320" y="71" on="1"/>
        <pt x="241" y="71" on="0"/>
        <pt x="123" y="133" on="0"/>
        <pt x="59" y="244" on="0"/>
        <pt x="59" y="314" on="1"/>
        <pt x="59" y="383" on="0"/>
        <pt x="122" y="492" on="0"/>
        <pt x="240" y="553" on="0"/>
        <pt x="319" y="553" on="1"/>
        <pt x="391" y="553" on="0"/>
        <pt x="497" y="505" on="0"/>
        <pt x="529" y="462" on="1"/>
        <pt x="556" y="496" on="0"/>
        <pt x="635" y="531" on="0"/>
        <pt x="681" y="531" on="1"/>
        <pt x="750" y="531" on="0"/>
        <pt x="836" y="461" on="0"/>
        <pt x="855" y="406" on="1"/>
        <pt x="858" y="406" on="1"/>
        <pt x="877" y="461" on="0"/>
        <pt x="963" y="531" on="0"/>
        <pt x="1034" y="531" on="1"/>
        <pt x="1089" y="531" on="0"/>
        <pt x="1176" y="478" on="0"/>
        <pt x="1200" y="431" on="1"/>
        <pt x="1245" y="444" on="0"/>
        <pt x="1288" y="513" on="0"/>
        <pt x="1288" y="569" on="1"/>
        <pt x="1288" y="632" on="1"/>
        <pt x="-21" y="632" on="1"/>
        <pt x="-21" y="740" on="1"/>
        <pt x="1822" y="740" on="1"/>
      </contour>
      <contour>
        <pt x="1582" y="632" on="1"/>
        <pt x="1415" y="632" on="1"/>
        <pt x="1415" y="547" on="1"/>
        <pt x="1415" y="368" on="0"/>
        <pt x="1240" y="354" on="1"/>
        <pt x="1240" y="285" on="0"/>
        <pt x="1329" y="201" on="0"/>
        <pt x="1408" y="201" on="1"/>
        <pt x="1486" y="201" on="0"/>
        <pt x="1582" y="297" on="0"/>
        <pt x="1582" y="372" on="1"/>
      </contour>
      <contour>
        <pt x="264" y="464" on="0"/>
        <pt x="221" y="429" on="1"/>
        <pt x="458" y="237" on="1"/>
        <pt x="476" y="272" on="0"/>
        <pt x="476" y="311" on="1"/>
        <pt x="476" y="351" on="0"/>
        <pt x="440" y="422" on="0"/>
        <pt x="370" y="464" on="0"/>
        <pt x="322" y="464" on="1"/>
      </contour>
      <contour>
        <pt x="167" y="265" on="0"/>
        <pt x="210" y="196" on="0"/>
        <pt x="281" y="160" on="0"/>
        <pt x="323" y="160" on="1"/>
        <pt x="382" y="160" on="0"/>
        <pt x="424" y="195" on="1"/>
        <pt x="185" y="386" on="1"/>
        <pt x="167" y="350" on="0"/>
        <pt x="167" y="310" on="1"/>
      </contour>
    </TTGlyph>
    <TTGlyph name="dvB_NA" xMin="-21" yMin="0" xMax="1252" yMax="740">
      <component glyphName="dvNA" x="421" y="0" flags="0x0"/>
      <component glyphName="dvB" x="0" y="0" flags="0x0"/>
    </TTGlyph>
    <TTGlyph name="dvB_R" xMin="-21" yMin="-59" xMax="580" yMax="740">
      <contour>
        <pt x="580" y="740" on="1"/>
        <pt x="580" y="632" on="1"/>
        <pt x="-21" y="632" on="1"/>
        <pt x="-21" y="740" on="1"/>
      </contour>
      <contour>
        <pt x="404" y="553" on="0"/>
        <pt x="520" y="486" on="0"/>
        <pt x="577" y="377" on="0"/>
        <pt x="577" y="315" on="1"/>
        <pt x="577" y="269" on="0"/>
        <pt x="549" y="187" on="0"/>
        <pt x="522" y="155" on="1"/>
        <pt x="523" y="155" on="1"/>
        <pt x="331" y="-59" on="1"/>
        <pt x="201" y="-59" on="1"/>
        <pt x="328" y="71" on="1"/>
        <pt x="320" y="71" on="1"/>
        <pt x="241" y="71" on="0"/>
        <pt x="123" y="133" on="0"/>
        <pt x="59" y="244" on="0"/>
        <pt x="59" y="314" on="1"/>
        <pt x="59" y="383" on="0"/>
        <pt x="122" y="492" on="0"/>
        <pt x="240" y="553" on="0"/>
        <pt x="319" y="553" on="1"/>
      </contour>
      <contour>
        <pt x="264" y="464" on="0"/>
        <pt x="221" y="429" on="1"/>
        <pt x="458" y="237" on="1"/>
        <pt x="476" y="272" on="0"/>
        <pt x="476" y="311" on="1"/>
        <pt x="476" y="351" on="0"/>
        <pt x="440" y="422" on="0"/>
        <pt x="370" y="464" on="0"/>
        <pt x="322" y="464" on="1"/>
      </contour>
      <contour>
        <pt x="167" y="265" on="0"/>
        <pt x="210" y="196" on="0"/>
        <pt x="281" y="160" on="0"/>
        <pt x="323" y="160" on="1"/>
        <pt x="382" y="160" on="0"/>
        <pt x="424" y="195" on="1"/>
        <pt x="185" y="386" on="1"/>
        <pt x="167" y="350" on="0"/>
        <pt x="167" y="310" on="1"/>
      </contour>
    </TTGlyph>
    <TTGlyph name="dvB_RA" xMin="-21" yMin="-59" xMax="708" yMax="740">
      <contour>
        <pt x="708" y="740" on="1"/>
        <pt x="708" y="632" on="1"/>
        <pt x="598" y="632" on="1"/>
        <pt x="598" y="0" on="1"/>
        <pt x="474" y="0" on="1"/>
        <pt x="474" y="153" on="1"/>
        <pt x="458" y="133" on="1"/>
        <pt x="283" y="-59" on="1"/>
        <pt x="146" y="-59" on="1"/>
        <pt x="280" y="78" on="1"/>
        <pt x="217" y="82" on="0"/>
        <pt x="116" y="144" on="0"/>
        <pt x="59" y="248" on="0"/>
        <pt x="59" y="314" on="1"/>
        <pt x="59" y="384" on="0"/>
        <pt x="122" y="492" on="0"/>
        <pt x="232" y="552" on="0"/>
        <pt x="301" y="552" on="1"/>
        <pt x="358" y="552" on="0"/>
        <pt x="445" y="510" on="0"/>
        <pt x="474" y="474" on="1"/>
        <pt x="474" y="632" on="1"/>
        <pt x="-21" y="632" on="1"/>
        <pt x="-21" y="740" on="1"/>
      </contour>
      <contour>
        <pt x="269" y="468" on="0"/>
        <pt x="226" y="433" on="1"/>
        <pt x="464" y="242" on="1"/>
        <pt x="481" y="278" on="0"/>
        <pt x="481" y="315" on="1"/>
        <pt x="481" y="355" on="0"/>
        <pt x="445" y="425" on="0"/>
        <pt x="376" y="468" on="0"/>
        <pt x="328" y="468" on="1"/>
      </contour>
      <contour>
        <pt x="172" y="268" on="0"/>
        <pt x="214" y="200" on="0"/>
        <pt x="286" y="164" on="0"/>
        <pt x="329" y="164" on="1"/>
        <pt x="390" y="164" on="0"/>
        <pt x="429" y="198" on="1"/>
        <pt x="190" y="390" on="1"/>
        <pt x="172" y="354" on="0"/>
        <pt x="172" y="314" on="1"/>
      </contour>
    </TTGlyph>
    <TTGlyph name="dvB_SA" xMin="-21" yMin="-9" xMax="1251" yMax="740">
      <contour>
        <pt x="1251" y="632" on="1"/>
        <pt x="1140" y="632" on="1"/>
        <pt x="1140" y="0" on="1"/>
        <pt x="1011" y="0" on="1"/>
        <pt x="1011" y="319" on="1"/>
        <pt x="604" y="319" on="1"/>
        <pt x="604" y="202" on="1"/>
        <pt x="604" y="157" on="0"/>
        <pt x="646" y="101" on="0"/>
        <pt x="688" y="101" on="1"/>
        <pt x="727" y="101" on="0"/>
        <pt x="771" y="153" on="0"/>
        <pt x="771" y="195" on="1"/>
        <pt x="771" y="207" on="1"/>
        <pt x="895" y="207" on="1"/>
        <pt x="896" y="199" on="0"/>
        <pt x="896" y="187" on="1"/>
        <pt x="896" y="97" on="0"/>
        <pt x="786" y="-9" on="0"/>
        <pt x="690" y="-9" on="1"/>
        <pt x="614" y="-9" on="0"/>
        <pt x="517" y="66" on="0"/>
        <pt x="498" y="131" on="1"/>
        <pt x="430" y="71" on="0"/>
        <pt x="320" y="71" on="1"/>
        <pt x="241" y="71" on="0"/>
        <pt x="123" y="133" on="0"/>
        <pt x="59" y="244" on="0"/>
        <pt x="59" y="314" on="1"/>
        <pt x="59" y="383" on="0"/>
        <pt x="122" y="492" on="0"/>
        <pt x="240" y="553" on="0"/>
        <pt x="319" y="553" on="1"/>
        <pt x="410" y="553" on="0"/>
        <pt x="532" y="475" on="0"/>
        <pt x="558" y="412" on="1"/>
        <pt x="637" y="412" on="0"/>
        <pt x="711" y="488" on="0"/>
        <pt x="711" y="556" on="1"/>
        <pt x="711" y="632" on="1"/>
        <pt x="-21" y="632" on="1"/>
        <pt x="-21" y="740" on="1"/>
        <pt x="1251" y="740" on="1"/>
      </contour>
      <contour>
        <pt x="1011" y="632" on="1"/>
        <pt x="840" y="632" on="1"/>
        <pt x="840" y="556" on="1"/>
        <pt x="840" y="481" on="0"/>
        <pt x="805" y="425" on="1"/>
        <pt x="1011" y="425" on="1"/>
      </contour>
      <contour>
        <pt x="264" y="464" on="0"/>
        <pt x="221" y="429" on="1"/>
        <pt x="458" y="237" on="1"/>
        <pt x="476" y="272" on="0"/>
        <pt x="476" y="311" on="1"/>
        <pt x="476" y="351" on="0"/>
        <pt x="440" y="422" on="0"/>
        <pt x="370" y="464" on="0"/>
        <pt x="322" y="464" on="1"/>
      </contour>
      <contour>
        <pt x="167" y="265" on="0"/>
        <pt x="210" y="196" on="0"/>
        <pt x="281" y="160" on="0"/>
        <pt x="323" y="160" on="1"/>
        <pt x="382" y="160" on="0"/>
        <pt x="424" y="195" on="1"/>
        <pt x="185" y="386" on="1"/>
        <pt x="167" y="350" on="0"/>
        <pt x="167" y="310" on="1"/>
      </contour>
    </TTGlyph>
    <TTGlyph name="dvB_SHA" xMin="-21" yMin="-7" xMax="1261" yMax="749">
      <contour>
        <pt x="606" y="300" on="1"/>
        <pt x="606" y="215" on="1"/>
        <pt x="606" y="165" on="0"/>
        <pt x="654" y="104" on="0"/>
        <pt x="703" y="104" on="1"/>
        <pt x="745" y="104" on="0"/>
        <pt x="793" y="159" on="0"/>
        <pt x="793" y="205" on="1"/>
        <pt x="793" y="219" on="1"/>
        <pt x="919" y="219" on="1"/>
        <pt x="919" y="203" on="1"/>
        <pt x="919" y="105" on="0"/>
        <pt x="805" y="-7" on="0"/>
        <pt x="706" y="-7" on="1"/>
        <pt x="628" y="-7" on="0"/>
        <pt x="522" y="67" on="0"/>
        <pt x="501" y="133" on="1"/>
        <pt x="431" y="71" on="0"/>
        <pt x="320" y="71" on="1"/>
        <pt x="241" y="71" on="0"/>
        <pt x="123" y="133" on="0"/>
        <pt x="59" y="244" on="0"/>
        <pt x="59" y="314" on="1"/>
        <pt x="59" y="383" on="0"/>
        <pt x="122" y="492" on="0"/>
        <pt x="240" y="553" on="0"/>
        <pt x="319" y="553" on="1"/>
        <pt x="412" y="553" on="0"/>
        <pt x="533" y="473" on="0"/>
        <pt x="560" y="408" on="1"/>
        <pt x="619" y="408" on="1"/>
        <pt x="697" y="408" on="0"/>
        <pt x="799" y="471" on="0"/>
        <pt x="799" y="538" on="1"/>
        <pt x="799" y="583" on="0"/>
        <pt x="750" y="637" on="0"/>
        <pt x="708" y="637" on="1"/>
        <pt x="688" y="637" on="0"/>
        <pt x="677" y="632" on="1"/>
        <pt x="-21" y="632" on="1"/>
        <pt x="-21" y="740" on="1"/>
        <pt x="640" y="740" on="1"/>
        <pt x="670" y="749" on="0"/>
        <pt x="708" y="749" on="1"/>
        <pt x="809" y="749" on="0"/>
        <pt x="930" y="634" on="0"/>
        <pt x="930" y="530" on="1"/>
        <pt x="930" y="417" on="0"/>
        <pt x="782" y="300" on="0"/>
        <pt x="665" y="300" on="1"/>
      </contour>
      <contour>
        <pt x="1261" y="740" on="1"/>
        <pt x="1261" y="632" on="1"/>
        <pt x="1151" y="632" on="1"/>
        <pt x="1151" y="0" on="1"/>
        <pt x="1020" y="0" on="1"/>
        <pt x="1020" y="740" on="1"/>
      </contour>
      <contour>
        <pt x="264" y="464" on="0"/>
        <pt x="221" y="429" on="1"/>
        <pt x="458" y="237" on="1"/>
        <pt x="476" y="272" on="0"/>
        <pt x="476" y="311" on="1"/>
        <pt x="476" y="351" on="0"/>
        <pt x="440" y="422" on="0"/>
        <pt x="370" y="464" on="0"/>
        <pt x="322" y="464" on="1"/>
      </contour>
      <contour>
        <pt x="167" y="265" on="0"/>
        <pt x="210" y="196" on="0"/>
        <pt x="281" y="160" on="0"/>
        <pt x="323" y="160" on="1"/>
        <pt x="382" y="160" on="0"/>
        <pt x="424" y="195" on="1"/>
        <pt x="185" y="386" on="1"/>
        <pt x="167" y="350" on="0"/>
        <pt x="167" y="310" on="1"/>
      </contour>
    </TTGlyph>
    <TTGlyph name="dvB_TA" xMin="-21" yMin="0" xMax="1136" yMax="740">
      <component glyphName="dvTA" x="413" y="0" flags="0x0"/>
      <component glyphName="dvB" x="0" y="0" flags="0x0"/>
    </TTGlyph>
    <TTGlyph name="dvB_VA" xMin="-21" yMin="0" xMax="1107" yMax="740">
      <component glyphName="dvVA" x="417" y="0" flags="0x0"/>
      <component glyphName="dvB" x="0" y="0" flags="0x0"/>
    </TTGlyph>
    <TTGlyph name="dvB_YA" xMin="-21" yMin="0" xMax="1183" yMax="740">
      <contour>
        <pt x="1183" y="632" on="1"/>
        <pt x="1072" y="632" on="1"/>
        <pt x="1072" y="0" on="1"/>
        <pt x="943" y="0" on="1"/>
        <pt x="943" y="179" on="1"/>
        <pt x="912" y="139" on="0"/>
        <pt x="810" y="93" on="0"/>
        <pt x="741" y="93" on="1"/>
        <pt x="675" y="93" on="0"/>
        <pt x="572" y="136" on="0"/>
        <pt x="538" y="176" on="1"/>
        <pt x="505" y="127" on="0"/>
        <pt x="395" y="71" on="0"/>
        <pt x="320" y="71" on="1"/>
        <pt x="241" y="71" on="0"/>
        <pt x="123" y="133" on="0"/>
        <pt x="59" y="244" on="0"/>
        <pt x="59" y="314" on="1"/>
        <pt x="59" y="383" on="0"/>
        <pt x="122" y="492" on="0"/>
        <pt x="240" y="553" on="0"/>
        <pt x="319" y="553" on="1"/>
        <pt x="401" y="553" on="0"/>
        <pt x="517" y="489" on="0"/>
        <pt x="547" y="435" on="1"/>
        <pt x="600" y="447" on="0"/>
        <pt x="648" y="517" on="0"/>
        <pt x="648" y="578" on="1"/>
        <pt x="648" y="632" on="1"/>
        <pt x="-21" y="632" on="1"/>
        <pt x="-21" y="740" on="1"/>
        <pt x="1183" y="740" on="1"/>
      </contour>
      <contour>
        <pt x="943" y="632" on="1"/>
        <pt x="776" y="632" on="1"/>
        <pt x="776" y="555" on="1"/>
        <pt x="776" y="471" on="0"/>
        <pt x="686" y="354" on="0"/>
        <pt x="598" y="345" on="1"/>
        <pt x="607" y="279" on="0"/>
        <pt x="692" y="201" on="0"/>
        <pt x="769" y="201" on="1"/>
        <pt x="847" y="201" on="0"/>
        <pt x="943" y="297" on="0"/>
        <pt x="943" y="372" on="1"/>
      </contour>
      <contour>
        <pt x="264" y="464" on="0"/>
        <pt x="221" y="429" on="1"/>
        <pt x="458" y="237" on="1"/>
        <pt x="476" y="272" on="0"/>
        <pt x="476" y="311" on="1"/>
        <pt x="476" y="351" on="0"/>
        <pt x="440" y="422" on="0"/>
        <pt x="370" y="464" on="0"/>
        <pt x="322" y="464" on="1"/>
      </contour>
      <contour>
        <pt x="167" y="265" on="0"/>
        <pt x="210" y="196" on="0"/>
        <pt x="281" y="160" on="0"/>
        <pt x="323" y="160" on="1"/>
        <pt x="382" y="160" on="0"/>
        <pt x="424" y="195" on="1"/>
        <pt x="185" y="386" on="1"/>
        <pt x="167" y="350" on="0"/>
        <pt x="167" y="310" on="1"/>
      </contour>
    </TTGlyph>
    <TTGlyph name="dvC" xMin="-21" yMin="88" xMax="639" yMax="740">
      <contour>
        <pt x="638" y="632" on="1"/>
        <pt x="-21" y="632" on="1"/>
        <pt x="-21" y="740" on="1"/>
        <pt x="638" y="740" on="1"/>
      </contour>
      <contour>
        <pt x="639" y="281" on="0"/>
        <pt x="576" y="157" on="0"/>
        <pt x="454" y="88" on="0"/>
        <pt x="371" y="88" on="1"/>
        <pt x="267" y="88" on="0"/>
        <pt x="138" y="189" on="0"/>
        <pt x="138" y="283" on="1"/>
        <pt x="138" y="324" on="0"/>
        <pt x="170" y="393" on="0"/>
        <pt x="200" y="416" on="1"/>
        <pt x="50" y="416" on="1"/>
        <pt x="50" y="518" on="1"/>
        <pt x="417" y="518" on="1"/>
        <pt x="417" y="416" on="1"/>
        <pt x="378" y="416" on="1"/>
        <pt x="325" y="416" on="0"/>
        <pt x="259" y="354" on="0"/>
        <pt x="259" y="305" on="1"/>
        <pt x="259" y="254" on="0"/>
        <pt x="331" y="196" on="0"/>
        <pt x="384" y="196" on="1"/>
        <pt x="449" y="197" on="0"/>
        <pt x="527" y="290" on="0"/>
        <pt x="527" y="361" on="1"/>
        <pt x="638" y="361" on="1"/>
      </contour>
    </TTGlyph>
    <TTGlyph name="dvCA" xMin="-21" yMin="0" xMax="767" yMax="740">
      <contour>
        <pt x="767" y="632" on="1"/>
        <pt x="656" y="632" on="1"/>
        <pt x="656" y="0" on="1"/>
        <pt x="527" y="0" on="1"/>
        <pt x="527" y="176" on="1"/>
        <pt x="498" y="135" on="0"/>
        <pt x="404" y="89" on="0"/>
        <pt x="346" y="89" on="1"/>
        <pt x="287" y="89" on="0"/>
        <pt x="193" y="135" on="0"/>
        <pt x="138" y="223" on="0"/>
        <pt x="138" y="283" on="1"/>
        <pt x="138" y="324" on="0"/>
        <pt x="170" y="393" on="0"/>
        <pt x="200" y="416" on="1"/>
        <pt x="50" y="416" on="1"/>
        <pt x="50" y="518" on="1"/>
        <pt x="417" y="518" on="1"/>
        <pt x="417" y="416" on="1"/>
        <pt x="378" y="416" on="1"/>
        <pt x="325" y="416" on="0"/>
        <pt x="259" y="354" on="0"/>
        <pt x="259" y="305" on="1"/>
        <pt x="259" y="254" on="0"/>
        <pt x="331" y="196" on="0"/>
        <pt x="384" y="196" on="1"/>
        <pt x="449" y="197" on="0"/>
        <pt x="527" y="290" on="0"/>
        <pt x="527" y="361" on="1"/>
        <pt x="527" y="632" on="1"/>
        <pt x="-21" y="632" on="1"/>
        <pt x="-21" y="740" on="1"/>
        <pt x="767" y="740" on="1"/>
      </contour>
    </TTGlyph>
    <TTGlyph name="dvCH" xMin="-21" yMin="23" xMax="842" yMax="740">
      <contour>
        <pt x="213" y="632" on="1"/>
        <pt x="213" y="554" on="1"/>
        <pt x="213" y="507" on="0"/>
        <pt x="261" y="457" on="0"/>
        <pt x="313" y="457" on="1"/>
        <pt x="334" y="457" on="1"/>
        <pt x="334" y="353" on="1"/>
        <pt x="315" y="353" on="1"/>
        <pt x="257" y="353" on="0"/>
        <pt x="197" y="299" on="0"/>
        <pt x="197" y="256" on="1"/>
        <pt x="197" y="197" on="0"/>
        <pt x="301" y="133" on="0"/>
        <pt x="401" y="133" on="1"/>
        <pt x="524" y="133" on="0"/>
        <pt x="664" y="240" on="0"/>
        <pt x="664" y="337" on="1"/>
        <pt x="664" y="388" on="0"/>
        <pt x="617" y="448" on="0"/>
        <pt x="582" y="448" on="1"/>
        <pt x="549" y="448" on="0"/>
        <pt x="503" y="400" on="0"/>
        <pt x="503" y="355" on="1"/>
        <pt x="503" y="316" on="0"/>
        <pt x="517" y="272" on="1"/>
        <pt x="411" y="272" on="1"/>
        <pt x="396" y="317" on="0"/>
        <pt x="396" y="369" on="1"/>
        <pt x="396" y="457" on="0"/>
        <pt x="503" y="544" on="0"/>
        <pt x="583" y="544" on="1"/>
        <pt x="669" y="544" on="0"/>
        <pt x="777" y="431" on="0"/>
        <pt x="777" y="331" on="1"/>
        <pt x="777" y="237" on="0"/>
        <pt x="686" y="98" on="0"/>
        <pt x="516" y="23" on="0"/>
        <pt x="400" y="23" on="1"/>
        <pt x="248" y="23" on="0"/>
        <pt x="66" y="136" on="0"/>
        <pt x="66" y="244" on="1"/>
        <pt x="66" y="306" on="0"/>
        <pt x="132" y="386" on="0"/>
        <pt x="187" y="402" on="1"/>
        <pt x="187" y="405" on="1"/>
        <pt x="140" y="416" on="0"/>
        <pt x="84" y="485" on="0"/>
        <pt x="84" y="548" on="1"/>
        <pt x="84" y="632" on="1"/>
        <pt x="-21" y="632" on="1"/>
        <pt x="-21" y="740" on="1"/>
        <pt x="842" y="740" on="1"/>
        <pt x="842" y="632" on="1"/>
      </contour>
    </TTGlyph>
    <TTGlyph name="dvCHA" xMin="-21" yMin="23" xMax="842" yMax="740">
      <contour>
        <pt x="643" y="632" on="1"/>
        <pt x="643" y="536" on="1"/>
        <pt x="705" y="518" on="0"/>
        <pt x="777" y="412" on="0"/>
        <pt x="777" y="331" on="1"/>
        <pt x="777" y="237" on="0"/>
        <pt x="686" y="98" on="0"/>
        <pt x="516" y="23" on="0"/>
        <pt x="400" y="23" on="1"/>
        <pt x="248" y="23" on="0"/>
        <pt x="66" y="136" on="0"/>
        <pt x="66" y="244" on="1"/>
        <pt x="66" y="306" on="0"/>
        <pt x="132" y="386" on="0"/>
        <pt x="187" y="402" on="1"/>
        <pt x="187" y="405" on="1"/>
        <pt x="140" y="416" on="0"/>
        <pt x="84" y="485" on="0"/>
        <pt x="84" y="548" on="1"/>
        <pt x="84" y="632" on="1"/>
        <pt x="-21" y="632" on="1"/>
        <pt x="-21" y="740" on="1"/>
        <pt x="842" y="740" on="1"/>
        <pt x="842" y="632" on="1"/>
      </contour>
      <contour>
        <pt x="523" y="632" on="1"/>
        <pt x="213" y="632" on="1"/>
        <pt x="213" y="554" on="1"/>
        <pt x="213" y="507" on="0"/>
        <pt x="261" y="457" on="0"/>
        <pt x="313" y="457" on="1"/>
        <pt x="334" y="457" on="1"/>
        <pt x="334" y="353" on="1"/>
        <pt x="315" y="353" on="1"/>
        <pt x="257" y="353" on="0"/>
        <pt x="197" y="299" on="0"/>
        <pt x="197" y="256" on="1"/>
        <pt x="197" y="197" on="0"/>
        <pt x="301" y="133" on="0"/>
        <pt x="401" y="133" on="1"/>
        <pt x="524" y="133" on="0"/>
        <pt x="664" y="240" on="0"/>
        <pt x="664" y="337" on="1"/>
        <pt x="664" y="388" on="0"/>
        <pt x="617" y="448" on="0"/>
        <pt x="582" y="448" on="1"/>
        <pt x="549" y="448" on="0"/>
        <pt x="503" y="400" on="0"/>
        <pt x="503" y="355" on="1"/>
        <pt x="503" y="316" on="0"/>
        <pt x="517" y="272" on="1"/>
        <pt x="411" y="272" on="1"/>
        <pt x="396" y="317" on="0"/>
        <pt x="396" y="369" on="1"/>
        <pt x="396" y="439" on="0"/>
        <pt x="465" y="523" on="0"/>
        <pt x="523" y="537" on="1"/>
      </contour>
    </TTGlyph>
    <TTGlyph name="dvCH_R" xMin="-21" yMin="-111" xMax="842" yMax="740">
      <component glyphName="dvRashtrasign" x="703" y="-14" flags="0x4"/>
      <component glyphName="dvCH" x="0" y="0" flags="0x0"/>
    </TTGlyph>
    <TTGlyph name="dvCH_RA" xMin="-21" yMin="-111" xMax="842" yMax="740">
      <component glyphName="dvCHA" x="0" y="0" flags="0x0"/>
      <component glyphName="dvRashtrasign" x="703" y="-14" flags="0x4"/>
    </TTGlyph>
    <TTGlyph name="dvCH_R_YA" xMin="-21" yMin="-111" xMax="1373" yMax="740">
      <component glyphName="dvCH_YA" x="0" y="0" flags="0x0"/>
      <component glyphName="dvRashtrasign" x="703" y="-14" flags="0x4"/>
    </TTGlyph>
    <TTGlyph name="dvCH_YA" xMin="-21" yMin="0" xMax="1373" yMax="740">
      <contour>
        <pt x="1373" y="632" on="1"/>
        <pt x="1262" y="632" on="1"/>
        <pt x="1262" y="0" on="1"/>
        <pt x="1132" y="0" on="1"/>
        <pt x="1132" y="174" on="1"/>
        <pt x="1103" y="136" on="0"/>
        <pt x="1010" y="93" on="0"/>
        <pt x="949" y="93" on="1"/>
        <pt x="879" y="93" on="0"/>
        <pt x="772" y="141" on="0"/>
        <pt x="737" y="186" on="1"/>
        <pt x="695" y="108" on="0"/>
        <pt x="522" y="23" on="0"/>
        <pt x="400" y="23" on="1"/>
        <pt x="248" y="23" on="0"/>
        <pt x="66" y="136" on="0"/>
        <pt x="66" y="244" on="1"/>
        <pt x="66" y="306" on="0"/>
        <pt x="132" y="386" on="0"/>
        <pt x="187" y="402" on="1"/>
        <pt x="187" y="405" on="1"/>
        <pt x="140" y="416" on="0"/>
        <pt x="84" y="485" on="0"/>
        <pt x="84" y="548" on="1"/>
        <pt x="84" y="632" on="1"/>
        <pt x="-21" y="632" on="1"/>
        <pt x="-21" y="740" on="1"/>
        <pt x="1373" y="740" on="1"/>
      </contour>
      <contour>
        <pt x="524" y="133" on="0"/>
        <pt x="664" y="240" on="0"/>
        <pt x="664" y="337" on="1"/>
        <pt x="664" y="388" on="0"/>
        <pt x="617" y="448" on="0"/>
        <pt x="582" y="448" on="1"/>
        <pt x="549" y="448" on="0"/>
        <pt x="503" y="400" on="0"/>
        <pt x="503" y="355" on="1"/>
        <pt x="503" y="316" on="0"/>
        <pt x="517" y="272" on="1"/>
        <pt x="411" y="272" on="1"/>
        <pt x="396" y="317" on="0"/>
        <pt x="396" y="369" on="1"/>
        <pt x="396" y="457" on="0"/>
        <pt x="503" y="544" on="0"/>
        <pt x="583" y="544" on="1"/>
        <pt x="634" y="544" on="0"/>
        <pt x="714" y="501" on="0"/>
        <pt x="739" y="461" on="1"/>
        <pt x="791" y="467" on="0"/>
        <pt x="840" y="521" on="0"/>
        <pt x="840" y="573" on="1"/>
        <pt x="840" y="632" on="1"/>
        <pt x="213" y="632" on="1"/>
        <pt x="213" y="554" on="1"/>
        <pt x="213" y="507" on="0"/>
        <pt x="261" y="457" on="0"/>
        <pt x="313" y="457" on="1"/>
        <pt x="334" y="457" on="1"/>
        <pt x="334" y="353" on="1"/>
        <pt x="315" y="353" on="1"/>
        <pt x="257" y="353" on="0"/>
        <pt x="197" y="299" on="0"/>
        <pt x="197" y="256" on="1"/>
        <pt x="197" y="197" on="0"/>
        <pt x="301" y="133" on="0"/>
        <pt x="401" y="133" on="1"/>
      </contour>
      <contour>
        <pt x="1132" y="632" on="1"/>
        <pt x="965" y="632" on="1"/>
        <pt x="965" y="555" on="1"/>
        <pt x="965" y="469" on="0"/>
        <pt x="864" y="366" on="0"/>
        <pt x="774" y="361" on="1"/>
        <pt x="808" y="201" on="0"/>
        <pt x="959" y="201" on="1"/>
        <pt x="1008" y="201" on="0"/>
        <pt x="1087" y="244" on="0"/>
        <pt x="1132" y="322" on="0"/>
        <pt x="1132" y="372" on="1"/>
      </contour>
    </TTGlyph>
    <TTGlyph name="dvC_CA" xMin="-21" yMin="0" xMax="1144" yMax="740">
      <contour>
        <pt x="1144" y="632" on="1"/>
        <pt x="1033" y="632" on="1"/>
        <pt x="1033" y="0" on="1"/>
        <pt x="904" y="0" on="1"/>
        <pt x="904" y="176" on="1"/>
        <pt x="875" y="135" on="0"/>
        <pt x="781" y="89" on="0"/>
        <pt x="723" y="89" on="1"/>
        <pt x="661" y="89" on="0"/>
        <pt x="564" y="139" on="0"/>
        <pt x="539" y="186" on="1"/>
        <pt x="474" y="88" on="0"/>
        <pt x="355" y="88" on="1"/>
        <pt x="258" y="88" on="0"/>
        <pt x="138" y="189" on="0"/>
        <pt x="138" y="283" on="1"/>
        <pt x="138" y="324" on="0"/>
        <pt x="170" y="393" on="0"/>
        <pt x="200" y="416" on="1"/>
        <pt x="50" y="416" on="1"/>
        <pt x="50" y="518" on="1"/>
        <pt x="794" y="518" on="1"/>
        <pt x="794" y="416" on="1"/>
        <pt x="755" y="416" on="1"/>
        <pt x="702" y="416" on="0"/>
        <pt x="636" y="354" on="0"/>
        <pt x="636" y="305" on="1"/>
        <pt x="636" y="254" on="0"/>
        <pt x="708" y="196" on="0"/>
        <pt x="761" y="196" on="1"/>
        <pt x="826" y="197" on="0"/>
        <pt x="904" y="290" on="0"/>
        <pt x="904" y="361" on="1"/>
        <pt x="904" y="632" on="1"/>
        <pt x="-21" y="632" on="1"/>
        <pt x="-21" y="740" on="1"/>
        <pt x="1144" y="740" on="1"/>
      </contour>
      <contour>
        <pt x="432" y="196" on="0"/>
        <pt x="502" y="261" on="0"/>
        <pt x="518" y="315" on="1"/>
        <pt x="529" y="378" on="0"/>
        <pt x="577" y="416" on="1"/>
        <pt x="378" y="416" on="1"/>
        <pt x="325" y="416" on="0"/>
        <pt x="259" y="354" on="0"/>
        <pt x="259" y="305" on="1"/>
        <pt x="259" y="254" on="0"/>
        <pt x="328" y="196" on="0"/>
        <pt x="379" y="196" on="1"/>
      </contour>
    </TTGlyph>
    <TTGlyph name="dvC_CHA" xMin="-21" yMin="23" xMax="1286" yMax="740">
      <contour>
        <pt x="1087" y="632" on="1"/>
        <pt x="1087" y="536" on="1"/>
        <pt x="1149" y="518" on="0"/>
        <pt x="1221" y="412" on="0"/>
        <pt x="1221" y="331" on="1"/>
        <pt x="1221" y="237" on="0"/>
        <pt x="1130" y="98" on="0"/>
        <pt x="960" y="23" on="0"/>
        <pt x="844" y="23" on="1"/>
        <pt x="728" y="23" on="0"/>
        <pt x="564" y="90" on="0"/>
        <pt x="530" y="155" on="1"/>
        <pt x="465" y="88" on="0"/>
        <pt x="360" y="88" on="1"/>
        <pt x="299" y="88" on="0"/>
        <pt x="198" y="133" on="0"/>
        <pt x="138" y="222" on="0"/>
        <pt x="138" y="283" on="1"/>
        <pt x="138" y="324" on="0"/>
        <pt x="170" y="393" on="0"/>
        <pt x="200" y="416" on="1"/>
        <pt x="50" y="416" on="1"/>
        <pt x="50" y="518" on="1"/>
        <pt x="417" y="518" on="1"/>
        <pt x="417" y="416" on="1"/>
        <pt x="378" y="416" on="1"/>
        <pt x="325" y="416" on="0"/>
        <pt x="259" y="354" on="0"/>
        <pt x="259" y="305" on="1"/>
        <pt x="259" y="254" on="0"/>
        <pt x="331" y="196" on="0"/>
        <pt x="384" y="196" on="1"/>
        <pt x="431" y="197" on="0"/>
        <pt x="501" y="247" on="0"/>
        <pt x="515" y="286" on="1"/>
        <pt x="525" y="331" on="0"/>
        <pt x="586" y="390" on="0"/>
        <pt x="631" y="402" on="1"/>
        <pt x="631" y="405" on="1"/>
        <pt x="584" y="416" on="0"/>
        <pt x="528" y="485" on="0"/>
        <pt x="528" y="548" on="1"/>
        <pt x="528" y="632" on="1"/>
        <pt x="-21" y="632" on="1"/>
        <pt x="-21" y="740" on="1"/>
        <pt x="1286" y="740" on="1"/>
        <pt x="1286" y="632" on="1"/>
      </contour>
      <contour>
        <pt x="967" y="632" on="1"/>
        <pt x="657" y="632" on="1"/>
        <pt x="657" y="554" on="1"/>
        <pt x="657" y="507" on="0"/>
        <pt x="705" y="457" on="0"/>
        <pt x="757" y="457" on="1"/>
        <pt x="778" y="457" on="1"/>
        <pt x="778" y="353" on="1"/>
        <pt x="759" y="353" on="1"/>
        <pt x="701" y="353" on="0"/>
        <pt x="641" y="299" on="0"/>
        <pt x="641" y="256" on="1"/>
        <pt x="641" y="197" on="0"/>
        <pt x="745" y="133" on="0"/>
        <pt x="845" y="133" on="1"/>
        <pt x="968" y="133" on="0"/>
        <pt x="1108" y="240" on="0"/>
        <pt x="1108" y="337" on="1"/>
        <pt x="1108" y="388" on="0"/>
        <pt x="1061" y="448" on="0"/>
        <pt x="1026" y="448" on="1"/>
        <pt x="993" y="448" on="0"/>
        <pt x="947" y="400" on="0"/>
        <pt x="947" y="355" on="1"/>
        <pt x="947" y="316" on="0"/>
        <pt x="961" y="272" on="1"/>
        <pt x="855" y="272" on="1"/>
        <pt x="840" y="317" on="0"/>
        <pt x="840" y="369" on="1"/>
        <pt x="840" y="439" on="0"/>
        <pt x="909" y="523" on="0"/>
        <pt x="967" y="537" on="1"/>
      </contour>
    </TTGlyph>
    <TTGlyph name="dvC_CH_VA" xMin="-21" yMin="-359" xMax="1286" yMax="740">
      <contour>
        <pt x="1087" y="632" on="1"/>
        <pt x="1087" y="536" on="1"/>
        <pt x="1149" y="518" on="0"/>
        <pt x="1221" y="412" on="0"/>
        <pt x="1221" y="331" on="1"/>
        <pt x="1221" y="245" on="0"/>
        <pt x="1144" y="113" on="0"/>
        <pt x="1072" y="74" on="1"/>
        <pt x="1072" y="-359" on="1"/>
        <pt x="957" y="-359" on="1"/>
        <pt x="957" y="-233" on="1"/>
        <pt x="934" y="-267" on="0"/>
        <pt x="858" y="-304" on="0"/>
        <pt x="809" y="-304" on="1"/>
        <pt x="748" y="-304" on="0"/>
        <pt x="656" y="-254" on="0"/>
        <pt x="606" y="-166" on="0"/>
        <pt x="606" y="-111" on="1"/>
        <pt x="606" y="-63" on="0"/>
        <pt x="645" y="18" on="0"/>
        <pt x="681" y="44" on="1"/>
        <pt x="570" y="77" on="0"/>
        <pt x="530" y="155" on="1"/>
        <pt x="465" y="88" on="0"/>
        <pt x="360" y="88" on="1"/>
        <pt x="299" y="88" on="0"/>
        <pt x="198" y="133" on="0"/>
        <pt x="138" y="222" on="0"/>
        <pt x="138" y="283" on="1"/>
        <pt x="138" y="324" on="0"/>
        <pt x="170" y="393" on="0"/>
        <pt x="200" y="416" on="1"/>
        <pt x="50" y="416" on="1"/>
        <pt x="50" y="518" on="1"/>
        <pt x="417" y="518" on="1"/>
        <pt x="417" y="416" on="1"/>
        <pt x="378" y="416" on="1"/>
        <pt x="325" y="416" on="0"/>
        <pt x="259" y="354" on="0"/>
        <pt x="259" y="305" on="1"/>
        <pt x="259" y="254" on="0"/>
        <pt x="331" y="196" on="0"/>
        <pt x="384" y="196" on="1"/>
        <pt x="431" y="197" on="0"/>
        <pt x="501" y="247" on="0"/>
        <pt x="515" y="286" on="1"/>
        <pt x="525" y="331" on="0"/>
        <pt x="586" y="390" on="0"/>
        <pt x="631" y="402" on="1"/>
        <pt x="631" y="405" on="1"/>
        <pt x="584" y="416" on="0"/>
        <pt x="528" y="485" on="0"/>
        <pt x="528" y="548" on="1"/>
        <pt x="528" y="632" on="1"/>
        <pt x="-21" y="632" on="1"/>
        <pt x="-21" y="740" on="1"/>
        <pt x="1286" y="740" on="1"/>
        <pt x="1286" y="632" on="1"/>
      </contour>
      <contour>
        <pt x="967" y="632" on="1"/>
        <pt x="657" y="632" on="1"/>
        <pt x="657" y="554" on="1"/>
        <pt x="657" y="507" on="0"/>
        <pt x="705" y="457" on="0"/>
        <pt x="757" y="457" on="1"/>
        <pt x="778" y="457" on="1"/>
        <pt x="778" y="353" on="1"/>
        <pt x="759" y="353" on="1"/>
        <pt x="701" y="353" on="0"/>
        <pt x="641" y="299" on="0"/>
        <pt x="641" y="256" on="1"/>
        <pt x="641" y="197" on="0"/>
        <pt x="745" y="133" on="0"/>
        <pt x="845" y="133" on="1"/>
        <pt x="968" y="133" on="0"/>
        <pt x="1108" y="240" on="0"/>
        <pt x="1108" y="337" on="1"/>
        <pt x="1108" y="388" on="0"/>
        <pt x="1061" y="448" on="0"/>
        <pt x="1026" y="448" on="1"/>
        <pt x="993" y="448" on="0"/>
        <pt x="947" y="400" on="0"/>
        <pt x="947" y="355" on="1"/>
        <pt x="947" y="316" on="0"/>
        <pt x="961" y="272" on="1"/>
        <pt x="855" y="272" on="1"/>
        <pt x="840" y="317" on="0"/>
        <pt x="840" y="369" on="1"/>
        <pt x="840" y="439" on="0"/>
        <pt x="909" y="523" on="0"/>
        <pt x="967" y="537" on="1"/>
      </contour>
      <contour>
        <pt x="957" y="33" on="1"/>
        <pt x="902" y="23" on="0"/>
        <pt x="849" y="23" on="1"/>
        <pt x="792" y="22" on="0"/>
        <pt x="727" y="-41" on="0"/>
        <pt x="727" y="-92" on="1"/>
        <pt x="727" y="-143" on="0"/>
        <pt x="790" y="-205" on="0"/>
        <pt x="841" y="-205" on="1"/>
        <pt x="895" y="-205" on="0"/>
        <pt x="957" y="-138" on="0"/>
        <pt x="957" y="-94" on="1"/>
      </contour>
    </TTGlyph>
    <TTGlyph name="dvC_MA" xMin="-21" yMin="0" xMax="1304" yMax="740">
      <contour>
        <pt x="1304" y="632" on="1"/>
        <pt x="1193" y="632" on="1"/>
        <pt x="1193" y="0" on="1"/>
        <pt x="1063" y="0" on="1"/>
        <pt x="1063" y="355" on="1"/>
        <pt x="914" y="355" on="1"/>
        <pt x="914" y="296" on="1"/>
        <pt x="914" y="192" on="0"/>
        <pt x="809" y="76" on="0"/>
        <pt x="711" y="76" on="1"/>
        <pt x="651" y="76" on="0"/>
        <pt x="559" y="122" on="0"/>
        <pt x="533" y="163" on="1"/>
        <pt x="503" y="127" on="0"/>
        <pt x="415" y="88" on="0"/>
        <pt x="359" y="88" on="1"/>
        <pt x="261" y="88" on="0"/>
        <pt x="138" y="191" on="0"/>
        <pt x="138" y="283" on="1"/>
        <pt x="138" y="324" on="0"/>
        <pt x="170" y="393" on="0"/>
        <pt x="200" y="416" on="1"/>
        <pt x="50" y="416" on="1"/>
        <pt x="50" y="518" on="1"/>
        <pt x="417" y="518" on="1"/>
        <pt x="417" y="416" on="1"/>
        <pt x="378" y="416" on="1"/>
        <pt x="325" y="416" on="0"/>
        <pt x="259" y="354" on="0"/>
        <pt x="259" y="305" on="1"/>
        <pt x="259" y="254" on="0"/>
        <pt x="325" y="196" on="0"/>
        <pt x="375" y="196" on="1"/>
        <pt x="430" y="196" on="0"/>
        <pt x="498" y="260" on="0"/>
        <pt x="509" y="313" on="1"/>
        <pt x="524" y="385" on="0"/>
        <pt x="637" y="461" on="0"/>
        <pt x="718" y="461" on="1"/>
        <pt x="793" y="461" on="1"/>
        <pt x="793" y="632" on="1"/>
        <pt x="-21" y="632" on="1"/>
        <pt x="-21" y="740" on="1"/>
        <pt x="1304" y="740" on="1"/>
      </contour>
      <contour>
        <pt x="1063" y="632" on="1"/>
        <pt x="914" y="632" on="1"/>
        <pt x="914" y="461" on="1"/>
        <pt x="1063" y="461" on="1"/>
      </contour>
      <contour>
        <pt x="793" y="355" on="1"/>
        <pt x="722" y="355" on="1"/>
        <pt x="679" y="355" on="0"/>
        <pt x="625" y="309" on="0"/>
        <pt x="625" y="270" on="1"/>
        <pt x="625" y="231" on="0"/>
        <pt x="672" y="186" on="0"/>
        <pt x="709" y="186" on="1"/>
        <pt x="750" y="186" on="0"/>
        <pt x="793" y="241" on="0"/>
        <pt x="793" y="289" on="1"/>
      </contour>
    </TTGlyph>
</ttFont>
